<svg xmlns="http://www.w3.org/2000/svg" viewBox="0 0 2048 2048"><defs><style>.cls-1{fill:#ffbee3;}.cls-2{fill:#a6eeff;}.cls-3{fill:#88e1ff;}.cls-4{fill:#fff;}.cls-5{fill:#e1e1e1;}.cls-6{fill:#ee4c66;}.cls-7{fill:#e1324b;}.cls-8{fill:#231f20;}.cls-9{fill:#530e20;}.cls-10{fill:#da70ab;}.cls-11{fill:#ee5d78;}.cls-12{fill:#ff64be;}</style></defs><g id="Background"><rect class="cls-1" width="2048" height="2048"/></g><g id="Body"><path class="cls-2" d="M1680.42658,1441.83523c-12.5-8.17391-61-56.67391-68-81.17391s-22-15-23.5,0-9.5,67.76018,23,125.38009C1644.92658,1474.16132,1680.42658,1441.83523,1680.42658,1441.83523Z"/><path class="cls-3" d="M1596.89138,1452.2584a193.40906,193.40906,0,0,0,15.0352,33.783c33-11.88009,68.5-44.20618,68.5-44.20618-3.47886-2.27487-28.03986,3.11869-35.42491-4.01651C1632.37294,1440.29192,1617.5,1450.625,1596.89138,1452.2584Z"/><path class="cls-2" d="M961.51038,1308.38894c-15.52161,45.37085-149.24634,290.13489-214.91474,309.23841-65.66839,19.10364-293.06866,23.11645-365.35516,16.0979-75.61814-7.342-113.82523-11.72-92.33374-39.18128S565.51,1508.9761,581.03168,1498.23025c15.5216-10.74572,73.39758-170.88965,93.32873-194.02026Z"/><path class="cls-3" d="M288.90674,1594.544c-21.49149,27.46131,16.7156,31.83924,92.33374,39.18128,72.2865,7.01855,299.68677,3.00574,365.35516-16.0979,65.6684-19.10352,199.39313-263.86756,214.91474-309.23841l-287.15-4.17895c-15.34606,17.8095-53.1869,116.84441-76.86991,166.372C627.5,1521.7222,691.331,1567.7222,699.9155,1572.2222s25.92006,25.2939,11.96421,27.5C607.5,1616.2222,256.5,1634.2222,288.90674,1594.544Z"/><path class="cls-2" d="M523.3536,1159.78829c0,310.83046,163.972,528.38194,800.75658,528.38194,283.95537,0,402.08339-199.962,399.177-235.1128-2.60492-31.50455-44.55395-36.786-65.66841-22.98394-135.68236,88.69242-403.55489,79.4673-403.55489-285.40883,0-361.77323-271.03143-389.23456-356.99734-389.23456C637.97482,755.4301,523.3536,906.26844,523.3536,1159.78829Z"/><path class="cls-3" d="M1723.28711,1453.05737a29.8057,29.8057,0,0,0-6.93433-17.23095c2.64722,13.84021-1.78637,32.61731-34.01953,67.17358-68.74292,73.69739-253.41418,164.5072-627.6936,86.45068,5.89477-5.27819,8.98437-12.11718,6.0271-19.784-9-23.33338-156.33789-207.151-156.33789-207.151-.98809,7.79589,52.02018,126.08606,84.06761,191.44791a12.0013,12.0013,0,0,1-13.73229,16.91681q-4.60633-1.17348-9.24841-2.38034C530.83142,1455.5,531,1073.24951,533.24634,1040.683c-6.6427,36.637-9.89276,76.41541-9.89276,119.10535,0,310.83032,163.972,528.38184,800.75653,528.38184C1608.06555,1688.17017,1726.1936,1488.20825,1723.28711,1453.05737Z"/><path class="cls-3" d="M1191.47893,1358.3367C1212,1364.42657,1281,1537,1290.33333,1546.66667s178.245,44.263,199.18439,55.01915S1459.66667,1634,1459.66667,1634l-297-91Z"/><path class="cls-2" d="M904.32889,1362.51559c4.11023,25.14573,149.24638,290.135,214.91479,309.2385s293.06865,23.11645,365.35514,16.09787c75.61816-7.34208,113.82524-11.72,92.33376-39.18131s-276.60329-85.56792-292.12492-96.31366-69.28893-173.34492-93.32873-194.02029S900.21866,1337.36987,904.32889,1362.51559Z"/><path class="cls-3" d="M1576.93258,1648.67065c21.49148,27.46134-16.7156,31.83923-92.33376,39.18131-72.28649,7.01858-299.68673,3.00567-365.35514-16.09787-34.53671-10.047-91.054-88.10557-137.47676-163.51654,43.89975,57.65131,100.59279,125.65131,141.5796,137.65131S1604.86516,1695.45245,1576.93258,1648.67065Z"/><path class="cls-2" d="M1711.92658,1441.83523c35.91667,10.07609,118.41667,8.24276,140,2.32609,20.71257-5.678,28.5,10.5,24.5,18s-71.5,111-236,65.5C1646.92658,1490.16132,1711.92658,1441.83523,1711.92658,1441.83523Z"/><path class="cls-3" d="M1872.69355,1447.47806c4.66358,4.30442,5.85158,10.711,3.733,14.68326-3.9358,7.37963-69.34964,107.70243-228.15428,67.57666a7.96068,7.96068,0,0,1-5.50182-10.52848c5.49935-14.74811,18.14363-30.43113,31.13754-43.79434C1658.83333,1499.33333,1655.93644,1510.324,1659,1515c2.375,3.625,40.83333,18.5,94.83333,10.16667S1850.125,1494.625,1873.5,1461.5C1877.071,1456.43947,1875.05376,1452.28945,1872.69355,1447.47806Z"/></g><g id="Horn"><path class="cls-4" d="M912.47288,740.81714c-7.211,44.34094-66.40529,62.77581-77.90593,116.78868,26.22167,9.03507,63.23269,11.75095,91.53646.79732C931.83834,838.72352,921.855,750.88629,912.47288,740.81714Z"/><path class="cls-4" d="M898.387,619.30255c-6.15157,45.60078-48.27378,74.69154-63.28628,106.58344s-6.97849,115.70245-.53372,131.71983c11.50064-54.01287,70.69489-72.44774,77.90593-116.78868S898.387,619.30255,898.387,619.30255Z"/><path class="cls-4" d="M885.78975,510.63074c-5.91,46.76609-35.27495,46.47388-50.18247,90.22685s-6.14492,111.7128-.50661,125.0284c15.0125-31.8919,57.13471-60.98266,63.28628-106.58344S885.78975,510.63074,885.78975,510.63074Z"/><path class="cls-4" d="M874.09885,409.77722c-6.68854,47.70226-28.65561,51.10514-38.04035,79.72076s-13.41883,75.71556-.45122,111.35961c14.90752-43.753,44.2725-43.46076,50.18247-90.22685S883.09167,425.80079,874.09885,409.77722Z"/><path class="cls-4" d="M862.7163,311.58378c-2.59044,34.65128-19.61832,48.97881-26.22382,70.81137s-9.50177,71.74154-.434,107.10283c9.38474-28.61562,31.35181-32.0185,38.04035-79.72076S862.7163,311.58378,862.7163,311.58378Z"/><path class="cls-4" d="M853.706,233.85516c-3.16438,35.04611-10.4371,46.04026-16.86994,63.741s-7.50054,63.35458-.3436,84.79895c6.6055-21.83256,23.63338-36.16009,26.22382-70.81137S860.30531,250.3959,853.706,233.85516Z"/><path class="cls-4" d="M844.98026,158.581c-.14186,16.77853-1.65873,27.57963-7.79335,52.43188s-10.525,60.30062-.35083,86.58337c6.43284-17.70078,13.70556-28.69493,16.86994-63.741S849.62721,167.10246,844.98026,158.581Z"/><path class="cls-4" d="M837.65539,95.39177c1.40909,3.71563,1.7511,26.96133-.1486,36.67388-1.78946,9.149-7.083,34.47681-.31988,78.94718,6.13462-24.85225,7.65149-35.65335,7.79335-52.43188S842.05178,108.342,837.65539,95.39177Z"/><path class="cls-4" d="M837.65539,95.39177c-2.17161,11.58334-1.5715,31.17052-.1486,36.67388C839.40649,122.3531,839.06448,99.1074,837.65539,95.39177Z"/><path class="cls-5" d="M907.18046,863.58484a101.49212,101.49212,0,0,0,18.923-5.1817c1.51062-5.18371,1.93067-15.09643,1.55835-27.07116C926.06412,838.84882,909.48429,862.25837,907.18046,863.58484Z"/><path class="cls-5" d="M913.96218,720.49478a131.04429,131.04429,0,0,1-1.4893,20.32236c-7.211,44.34094-66.40529,62.77581-77.90593,116.78868-1.44048-3.58006-2.96035-10.54688-4.28453-19.56376C831.93912,816.03632,900.23523,768.32823,913.96218,720.49478Z"/><path class="cls-5" d="M830.69382,706.81451c1.38392,8.96264,2.99354,15.73376,4.40685,19.07148,15.0125-31.8919,57.13471-60.98266,63.28628-106.58344a148.43476,148.43476,0,0,0,1.23215-18.445C884.43912,661.16132,838.07351,681.0927,830.69382,706.81451Z"/><path class="cls-5" d="M830.281,581.15825a126.86333,126.86333,0,0,0,5.3263,19.69934c14.90752-43.753,44.2725-43.46076,50.18247-90.22685q1.03272-8.172,1.49671-15.96857C875.68912,532.16132,831.62283,566.40517,830.281,581.15825Z"/><path class="cls-5" d="M875.50366,392.82993a155.99927,155.99927,0,0,1-1.40481,16.94729c-6.68854,47.70226-28.65561,51.10514-38.04035,79.72076-1.2755-4.974-2.31428-10.23589-3.13931-15.667C835.68912,452.28632,857.19319,456.74853,875.50366,392.82993Z"/><path class="cls-5" d="M863.37282,297.59548q-.12393,6.7534-.65652,13.9883c-2.59044,34.65128-19.61832,48.97881-26.22382,70.81137a85.90466,85.90466,0,0,1-3.25969-14.84806C837.93912,337.53632,853.43151,339.52963,863.37282,297.59548Z"/><path class="cls-5" d="M854.45964,219.32828c-.06961,4.73954-.30878,9.60021-.75362,14.52688-3.16438,35.04611-10.4371,46.04026-16.86994,63.741a82.38324,82.38324,0,0,1-3.91913-13.74476C833.84322,273.078,846.73016,263.41191,854.45964,219.32828Z"/><path class="cls-5" d="M844.58274,144.65336c.29009,5.23193.43048,10.02988.39752,13.92759-.14186,16.77853-1.65873,27.57963-7.79335,52.43188-.85989-5.65409-1.52487-10.99873-2.02693-16.04C838.50162,171.53632,839.16385,187.3954,844.58274,144.65336Z"/><path class="cls-5" d="M836.38792,121.83032a59.5624,59.5624,0,0,0,1.11887,10.23533c1.8997-9.71255,1.55769-32.95825.1486-36.67388C837.85579,109.24465,836.25338,115.166,836.38792,121.83032Z"/></g><g id="Hotdog"><path class="cls-6" d="M987.98779,284.19586c-18.29614-38.556-51.04248-28.34961-74.09973-9.072-39.9928,33.43689-80.65527,36.31371-115.21545-31.19769-18.13456-35.42485-90.868-17.18238-80.087,39.44122,8.915,46.8233,46.26245,108.34137,114.80774,112.99835,5.61218-6.14416,37.1687-6.03,42.104-2.14514C963.19385,381.15155,1004.31458,318.60144,987.98779,284.19586Z"/><path class="cls-7" d="M987.98779,284.19586c3.22118,42.9702-52.06458,84.58975-112.4037,93.4721-7.71306,1.13542-13.94253-.20963-21.70909-.20963-5.74058,0-12.79186,1.66-18.03236,1.11834-77.508-8.01052-101.50308-72.02468-106.99578-96.34968-3.59814-15.93457-2.09436-28.064,2.53931-43.19775-10.45343,9.57147-16.57758,24.50085-12.8006,44.33813,8.915,46.8233,46.26245,108.34137,114.80774,112.99835,5.61218-6.14416,37.1687-6.03,42.104-2.14514C963.19385,381.15155,1004.31458,318.60144,987.98779,284.19586Z"/></g><g id="Face"><path class="cls-8" d="M673.4291,1000.57351c-12.68771,12.68771-30.17464,57.33182-4.82794,68.19469s27.76067-1.207,43.45148-3.01746,30.77814,6.03492,45.262,4.22445,32.58862-59.1423,13.88034-69.40168S697.56881,976.43379,673.4291,1000.57351Z"/><path class="cls-4" d="M710.42205,991.37748c-15.7834,4.85643-11.20088,24.26857,0,28.9356s14.93451,8.40066,22.40176-10.26747S722.55634,987.64385,710.42205,991.37748Z"/><path class="cls-4" d="M692.33854,1007.09308c-2.42284.71293-4.22445,5.55028-1.81048,6.35494s7.64424,1.60932,6.83959-1.40815S696.16066,1005.96841,692.33854,1007.09308Z"/><path class="cls-4" d="M698.57463,1017.069c-1.99162,1.37882-1.00582,2.61513,0,3.82212s3.01747,1.60931,3.621,0-.20116-2.61514-.80466-3.82212S701.18977,1015.2585,698.57463,1017.069Z"/><path class="cls-8" d="M941.46687,1014.34958c-6.3139,11.48139,5.22549,55.63257,22.12807,55.63257,22.28006,0,21.83265-8.65739,41.28319-8.65739,11.2939,0,22.004,11.37131,40.7052,6.59191,21.46177-5.4849,18.06405-48.50937-.53823-62.89182-13.91667-10.75975-31.03482-10.9242-51.37136-11.124C968.5385,993.654,947.5018,1003.37548,941.46687,1014.34958Z"/><path class="cls-4" d="M984.84162,998.814c-12.24445,8.689-9.92327,14.957-4.05952,20.74865s15.43872,7.8882,19.39548,4.3523c3.60846-3.22465,9.47221-10.6671,7.21693-19.2372S988.0763,996.51856,984.84162,998.814Z"/><path class="cls-4" d="M1014.69067,1008.8282c-3.56442.66833-5.23027,6.03493-2.61513,8.4489s7.8454,1.60932,8.04657-1.60931S1017.9093,1008.22471,1014.69067,1008.8282Z"/><path class="cls-4" d="M1007.89669,1019.69108c-1.84938,1.02363-2.36838,4.41345,0,4.62069s4.17885.81074,4.17885-.99974S1009.35043,1018.88642,1007.89669,1019.69108Z"/><path class="cls-9" d="M766.39009,1134.3833c53.25-20.66807,154.02586-16.96568,191.02129-8.1804a10.433,10.433,0,0,1,7.88946,11.69888c-12.05727,81.18833-137.28113,184.68467-204.77968,9.96247A10.42028,10.42028,0,0,1,766.39009,1134.3833Z"/><path class="cls-10" d="M935.85566,1200.58525c-35.73051,43.54111-96.27867,66.84065-144.495,4.56839C807.11051,1198.39521,898.03677,1186.68216,935.85566,1200.58525Z"/><ellipse class="cls-11" cx="685.39214" cy="1149.39418" rx="24.05881" ry="12.39418"/><ellipse class="cls-11" cx="1035.64605" cy="1144.14418" rx="21.57051" ry="11.56085"/></g><g id="Heart_Small" data-name="Heart Small"><path class="cls-12" d="M1317.43913,1067.30556c0-7.56221,12.16666-17.93106,21.5-17.93106s21.5,12.10416,21.5,25.70189c0,20.06892-24,39.63142-43,47.29809-19-7.66667-43-27.22917-43-47.29809,0-13.59773,12.16666-25.70189,21.5-25.70189S1317.43913,1059.74335,1317.43913,1067.30556Z"/></g><g id="Heart_Medium" data-name="Heart Medium"><path class="cls-12" d="M1383.18914,965.6447c0-9.101,14.64244-21.57984,25.875-21.57984s25.875,14.56722,25.875,30.93194c0,24.15273-28.88372,47.696-51.75,56.92272-22.86628-9.22675-51.75-32.77-51.75-56.92272,0-16.36472,14.64244-30.93194,25.875-30.93194S1383.18914,956.54366,1383.18914,965.6447Z"/></g><g id="Heart_Large" data-name="Heart Large"><path class="cls-12" d="M1295.18914,848.44975c0-11.47523,18.46221-27.20936,32.625-27.20936s32.625,18.36736,32.625,39.00114c0,30.45343-36.41861,60.1384-65.25,71.77212-28.8314-11.63372-65.25-41.31869-65.25-71.77212,0-20.63378,18.46221-39.00114,32.625-39.00114S1295.18914,836.97452,1295.18914,848.44975Z"/></g></svg>