<svg xmlns="http://www.w3.org/2000/svg" viewBox="0 0 2048 2048"><defs><style>.cls-1{fill:#ffbee3;}.cls-2{fill:#a6eeff;}.cls-3{fill:#88e1ff;}.cls-4{fill:#141414;}.cls-5{fill:#fff;}.cls-6{fill:#c8c8c8;}.cls-7{fill:none;stroke:#c8c8c8;stroke-miterlimit:10;stroke-width:5px;}.cls-8{fill:#ee4c66;}.cls-9{fill:#bd1e38;}.cls-10{fill:#e1e1e1;}.cls-11{fill:#231f20;}.cls-12{fill:#530e20;}.cls-13{fill:#da70ab;}.cls-14{fill:#ee5d78;}.cls-15{fill:#eee;}.cls-16{fill:#7a4118;}.cls-17{fill:#b3b3b3;}</style></defs><g id="Background"><rect class="cls-1" width="2048" height="2048"/></g><g id="Body"><path class="cls-2" d="M1680.42658,1441.83523c-12.5-8.17391-61-56.67391-68-81.17391s-22-15-23.5,0-9.5,67.76018,23,125.38009C1644.92658,1474.16132,1680.42658,1441.83523,1680.42658,1441.83523Z"/><path class="cls-3" d="M1596.89138,1452.2584a193.40906,193.40906,0,0,0,15.0352,33.783c33-11.88009,68.5-44.20618,68.5-44.20618-3.47886-2.27487-28.03986,3.11869-35.42491-4.01651C1632.37294,1440.29192,1617.5,1450.625,1596.89138,1452.2584Z"/><path class="cls-2" d="M961.51038,1308.38894c-15.52161,45.37085-149.24634,290.13489-214.91474,309.23841-65.66839,19.10364-293.06866,23.11645-365.35516,16.0979-75.61814-7.342-113.82523-11.72-92.33374-39.18128S565.51,1508.9761,581.03168,1498.23025c15.5216-10.74572,73.39758-170.88965,93.32873-194.02026Z"/><path class="cls-3" d="M288.90674,1594.544c-21.49149,27.46131,16.7156,31.83924,92.33374,39.18128,72.2865,7.01855,299.68677,3.00574,365.35516-16.0979,65.6684-19.10352,199.39313-263.86756,214.91474-309.23841l-287.15-4.17895c-15.34606,17.8095-53.1869,116.84441-76.86991,166.372C627.5,1521.7222,691.331,1567.7222,699.9155,1572.2222s25.92006,25.2939,11.96421,27.5C607.5,1616.2222,256.5,1634.2222,288.90674,1594.544Z"/><path class="cls-2" d="M1723.28711,1453.05737c-2.60486-31.50451-44.554-36.78589-65.66834-22.98388-135.68237,88.69238-403.55481,79.46728-403.55481-285.40882,0-361.77325-271.03149-389.23462-356.99743-389.23462-259.09174,0-373.71295,150.83838-373.71295,404.35828,0,310.83032,163.972,528.38184,800.75653,528.38184q7.06824,0,13.99646-.16736c-4.47571-7.97522-3.45447-19.29578,2.00451-27.00281,30.22217-42.66675,86.16651-51.668,133.08326-53.834-46.91675,2.166-102.86109,11.16723-133.08326,53.834-5.459,7.707-6.48022,19.02759-2.00451,27.00281C1611.94946,1681.57507,1726.14539,1487.62488,1723.28711,1453.05737Z"/><path class="cls-3" d="M1340.11108,1661c19.00159-26.82568,48.17225-40.3385,78.87305-47.21667-93.98022,11.13415-213.82617,7.05822-364.34448-24.33265,5.89477-5.27819,8.98437-12.11718,6.0271-19.784-9-23.33338-156.33789-207.151-156.33789-207.151-.988,7.7959,52.02026,126.08606,84.06762,191.44788a12.00133,12.00133,0,0,1-13.7323,16.91687q-4.60638-1.17353-9.24841-2.38037C530.83142,1455.5,531,1073.24951,533.24634,1040.683c-6.6427,36.637-9.89276,76.41541-9.89276,119.10535,0,310.83032,163.972,528.38184,800.75653,528.38184q7.06824,0,13.99646-.16748C1333.63086,1680.02759,1334.6521,1668.70691,1340.11108,1661Z"/><path class="cls-3" d="M1723.28711,1453.05737a29.8057,29.8057,0,0,0-6.93433-17.23095c2.64722,13.84021-1.78637,32.61731-34.01953,67.17358-37.18591,39.866-108.29968,84.73657-224.99365,105.179,5.36279-.44312,10.66589-.77344,15.85474-1.01294-5.18885.2395-10.492.56982-15.85474,1.01294q-18.41308,3.22558-38.35547,5.60437c-30.7008,6.87817-59.87146,20.391-78.87305,47.21667-5.459,7.70691-6.48022,19.02759-2.00451,27.00269C1611.94971,1681.575,1726.14539,1487.625,1723.28711,1453.05737Z"/><path class="cls-3" d="M1489.5177,1601.68579c-20.93933-10.7561-189.85095-45.35254-199.18445-55.01916C1281,1537,1212,1364.42651,1191.479,1358.33667L1162.66675,1543l242.646,74.34607c22.2472-6.67712,46.04163-9.17175,67.8816-10.18005-21.84,1.0083-45.6344,3.50293-67.8816,10.18005L1459.66675,1634S1510.457,1612.442,1489.5177,1601.68579Z"/><path class="cls-2" d="M1340.11108,1661c30.22217-42.66663,86.16626-51.668,133.083-53.834-80.35-24.08875-178.92065-48.25586-188.38647-54.80909-15.52161-10.74572-69.28882-173.34485-93.32862-194.02026-24.03979-20.67529-291.26037-20.9668-287.15014,4.17895,4.11035,25.14576,149.24634,290.13489,214.91479,309.23853,38.83545,11.29749,134.23364,17.31689,220.66321,18.89844C1333.45276,1682.72583,1334.01318,1669.60889,1340.11108,1661Z"/><path class="cls-2" d="M1576.93262,1648.67065c-8.38513-10.71423-52.333-26.09338-103.73853-41.50463-46.91675,2.166-102.86084,11.16735-133.083,53.834-6.0979,8.60889-6.65832,21.72583-.20422,29.65259,59.7179,1.09277,115.15466.06726,144.692-2.80066C1560.217,1680.50989,1598.42407,1676.132,1576.93262,1648.67065Z"/><path class="cls-3" d="M1336.89526,1667.29077c-99.27014-5.802-195.43359-16.09814-213.54882-21.40185-40.98682-12-97.67969-80-141.57959-137.65137,46.42285,75.41089,102.94018,153.46948,137.4768,163.5166,38.83545,11.29749,134.23364,17.31689,220.66321,18.89844C1334.884,1684.48376,1334.11621,1675.17627,1336.89526,1667.29077Z"/><path class="cls-3" d="M1576.93262,1648.67065c15.587,26.10547-114.70142,25.94532-240.03736,18.62012-2.77905,7.8855-2.01123,17.193,3.0116,23.36182,59.7179,1.09277,115.15466.06726,144.692-2.80066C1560.217,1680.50989,1598.42407,1676.132,1576.93262,1648.67065Z"/><path class="cls-2" d="M1711.92658,1441.83523c35.91667,10.07609,118.41667,8.24276,140,2.32609,20.71257-5.678,28.5,10.5,24.5,18s-71.5,111-236,65.5C1646.92658,1490.16132,1711.92658,1441.83523,1711.92658,1441.83523Z"/><path class="cls-3" d="M1872.69355,1447.47806c4.66358,4.30442,5.85158,10.711,3.733,14.68326-3.9358,7.37963-69.34964,107.70243-228.15428,67.57666a7.96068,7.96068,0,0,1-5.50182-10.52848c5.49935-14.74811,18.14363-30.43113,31.13754-43.79434C1658.83333,1499.33333,1655.93644,1510.324,1659,1515c2.375,3.625,40.83333,18.5,94.83333,10.16667S1850.125,1494.625,1873.5,1461.5C1877.071,1456.43947,1875.05376,1452.28945,1872.69355,1447.47806Z"/><path class="cls-4" d="M610.5885,1441.73633c-12.85034,29.30737-23.9585,52.61816-29.55682,56.49389-8.95014,6.19629-97.56287,28.1399-175.112,50.87488-20.48767,6.00647-40.20276,12.068-57.47315,17.90906,12.30231,1.332,81.91278,31.35815,90.7757,44.65247C445.5,1621,440.33331,1632.5,433.39392,1636.4165c96.63306,2.398,259.33313-3.11816,313.20172-18.78918,14.10938-4.10461,31.36041-18.62634,49.90582-39.34973Z"/><polygon class="cls-5" points="840 1585 642 1437.819 656.778 1291.376 891.778 1309.222 904.282 1530 840 1585"/><polygon class="cls-6" points="791.138 1301.506 657.964 1289.154 650.509 1363.04 739.896 1368.615 791.138 1301.506"/><polygon class="cls-6" points="895.895 1384.111 891.713 1307.722 763.889 1300.196 811.196 1369.746 895.895 1384.111"/><path class="cls-4" d="M1680.42658,1441.83523c-12.5-8.17391-61-56.67391-68-81.17391s-22-15-23.5,0-9.5,67.76018,23,125.38009C1644.92658,1474.16132,1680.42658,1441.83523,1680.42658,1441.83523Z"/><path class="cls-4" d="M1711.92658,1441.83523c35.91667,10.07609,118.41667,8.24276,140,2.32609,20.71257-5.678,28.5,10.5,24.5,18s-71.5,111-236,65.5C1646.92658,1490.16132,1711.92658,1441.83523,1711.92658,1441.83523Z"/><path class="cls-7" d="M756.55556,1341.04233c-.88889,22.17989,13.22222,178.17989,61.33333,229.73545"/><path class="cls-8" d="M736.35931,1347.52441S742.66667,1371.33333,746,1374s50.75474,8.03875,55.33333,3.7275c4.66667-4.39417,11.64735-19.3908,11.64735-19.3908l12.77285-54.12853-94.97575-6.986Z"/><polygon class="cls-5" points="772.919 1300.196 657 1289.154 650.509 1353.483 728.333 1358.337 772.919 1300.196"/><polygon class="cls-5" points="895.895 1377.728 892 1307 772.919 1300.196 817 1364.427 895.895 1377.728"/><path class="cls-8" d="M753.134,1375.92349c-3.884,47.65984,34.06873,176.40984,34.06873,176.40984L860,1586.66667l7.33333-41s-75.306-110.88889-77.66666-167S757.018,1328.26365,753.134,1375.92349Z"/><polygon class="cls-9" points="752.898 1380.333 790.055 1383.707 789.699 1379.346 753.134 1375.923 752.898 1380.333"/><path class="cls-4" d="M1723.28711,1453.05737c-2.60486-31.50451-44.554-36.78589-65.66834-22.98388-122.96215,80.37744-354.4906,80.33642-396.82141-191.95264C1078.59448,1289.24182,921,1307,892,1307c-26.84351,96-35,140.478-52,262-121.51038-52-153-203.84644-183-279.84644-29-2-128.31915-38.23852-128.31915-38.23852,32.58325,261.39746,222.90735,437.25513,795.42926,437.25513q7.06824,0,13.99646-.16736c-4.47571-7.97522-3.45447-19.29578,2.00451-27.00281,30.22217-42.66675,86.16651-51.668,133.08326-53.834-46.91675,2.166-102.86109,11.16723-133.08326,53.834-5.459,7.707-6.48022,19.02759-2.00451,27.00281C1611.94946,1681.57507,1726.14539,1487.62488,1723.28711,1453.05737Z"/><path d="M1340.11108,1661c19.00159-26.82568,48.17225-40.3385,78.87305-47.21667-93.98022,11.13415-213.82617,7.05822-364.34448-24.33265,5.89477-5.27819,8.98437-12.11718,6.0271-19.784-9-23.33338-156.33789-207.151-156.33789-207.151-.988,7.7959,52.02026,126.08606,84.06762,191.44788a12.00133,12.00133,0,0,1-13.7323,16.91687q-4.60638-1.17353-9.24841-2.38037a716.88811,716.88811,0,0,1-119.34692-42.08374C844.14978,1539.55713,842.14551,1553.66333,840,1569c-57.568-24.636-94.92242-71.686-121.49316-122.46143a505.66864,505.66864,0,0,1-135.18793-176.81286c-28.97833-9.45044-54.57007-18.78577-54.63507-18.80945.01208.09717.02289.19507.035.29211.084.67127.17456,1.339.26062,2.009q.28693,2.23352.58533,4.46069c.11377.83679.23364,1.67.35071,2.505q.27648,1.97241.56219,3.93957c.13062.88843.266,1.77429.40039,2.66052q.28556,1.88325.581,3.76111.21524,1.3592.43762,2.71448.30139,1.84662.61395,3.687.23036,1.35572.46631,2.70813.32326,1.84771.65955,3.68836.24132,1.32678.48632,2.65185.35459,1.8966.72467,3.78516c.16193.83337.32135,1.668.48694,2.49951.27356,1.37366.55646,2.74243.84015,4.11072.1474.71093.29041,1.42419.44055,2.13366q.60215,2.84527,1.23487,5.67432c.03918.17554.07592.35229.11523.52759q.69241,3.08569,1.42206,6.15185c.15771.66431.32288,1.32471.48315,1.9878.334,1.38159.669,2.76245,1.014,4.13818.20007.79773.40686,1.592.61072,2.38769q.47553,1.8567.96124,3.70777c.22272.8418.45056,1.681.67749,2.52075q.48066,1.77832.97235,3.5509.35615,1.27863.7201,2.553.4984,1.7516,1.00952,3.49646.37225,1.27112.75055,2.53894.52468,1.754,1.06414,3.50049c.2544.82654.50806,1.65344.76679,2.47766q.56589,1.80213,1.14935,3.59546c.25092.77649.499,1.55457.75385,2.329.43353,1.31726.87756,2.629,1.32269,3.94006.21869.64429.43237,1.29114.65393,1.93384q2.01672,5.85187,4.19,11.62256c.23853.63318.48511,1.26221.72651,1.89392.49212,1.28772.98535,2.57483,1.48937,3.85645.29487.74963.59693,1.4956.89594,2.24316q.69654,1.74151,1.40448,3.47717c.323.787.65143,1.57129.97906,2.35584q.69636,1.66754,1.405,3.3291.513,1.19879,1.03425,2.39331.71411,1.64007,1.44232,3.27307.529,1.18671,1.06427,2.37012.74753,1.64832,1.51159,3.28809c.35559.76562.71009,1.532,1.07044,2.29516q.80457,1.70435,1.62878,3.39868c.34436.71192.6853,1.42578,1.03388,2.13562.61346,1.24939,1.23858,2.4928,1.86517,3.73548.294.58313.58234,1.16894.87921,1.75061q1.39206,2.72735,2.82495,5.43371c.07648.14429.156.28711.23273.43116q1.32357,2.4884,2.68268,4.95874c.33471.60778.67822,1.21118,1.01623,1.81738.65784,1.17944,1.31671,2.35852,1.98719,3.53161.40149.70252.8106,1.401,1.21667,2.1012q.93429,1.611,1.881,3.2157c.43311.73035.87195,1.45776,1.31006,2.18555q.934,1.55163,1.88178,3.09631.68115,1.10742,1.37121,2.21069.951,1.52289,1.91767,3.038.7,1.09771,1.40661,2.19226.98942,1.5282,1.99695,3.04748c.468.70789.93457,1.41638,1.40765,2.12158q1.06019,1.58038,2.142,3.14979c.44861.65454.89343,1.31091,1.34656,1.96313.81518,1.17322,1.64337,2.33984,2.4732,3.50586.369.51831.73182,1.04,1.10376,1.557q1.81074,2.51678,3.66614,5.01123c.162.21753.3291.43249.49158.64978q1.61975,2.16522,3.27215,4.31421c.43879.56945.887,1.13427,1.32959,1.70166.83808,1.075,1.67731,2.14917,2.52887,3.21728.51728.64868,1.04267,1.29346,1.56488,1.93982q1.19193,1.47492,2.39728,2.94336c.55481.67273,1.1156,1.34265,1.676,2.01257q1.18615,1.41834,2.3872,2.82959.86838,1.01807,1.746,2.0315,1.20711,1.39543,2.43115,2.78247.88348,1.00158,1.77368,2,1.25574,1.40386,2.53143,2.798c.58631.64282,1.171,1.2865,1.76276,1.92651.89819.97156,1.80762,1.93738,2.71851,2.90247.55444.58765,1.10437,1.17737,1.66357,1.76257,1.04712,1.09583,2.10858,2.1847,3.17236,3.27246.43708.4469.86731.8971,1.30719,1.34266q2.26337,2.29248,4.57538,4.56054c.269.2638.545.524.81507.78723q1.91766,1.86933,3.86547,3.72364c.55494.52661,1.11994,1.04822,1.679,1.57275,1.03009.96643,2.06146,1.93225,3.10577,2.89173.641.58886,1.29059,1.17358,1.937,1.75976q1.4718,1.33483,2.95825,2.66235c.68536.60962,1.37707,1.21631,2.06842,1.823q1.45953,1.28064,2.93518,2.55371,1.06659.91828,2.14288,1.832,1.48682,1.26308,2.99237,2.517,1.08042.90071,2.16773,1.79773,1.54009,1.26672,3.1018,2.52271c.71564.57739,1.42914,1.15588,2.15064,1.73047,1.10577.88061,2.22394,1.75512,3.34357,2.6289.66564.51966,1.32623,1.04175,1.99676,1.55884,1.30969,1.01,2.635,2.01245,3.96338,3.01343.49725.37451.98718.75293,1.48706,1.12622q2.75262,2.0559,5.558,4.08594c.37476.27111.75788.53808,1.134.80847q2.24889,1.61627,4.5271,3.21814c.68091.47693,1.37262.94873,2.05816,1.42346,1.23529.85535,2.47205,1.7102,3.72242,2.55835.7749.52551,1.55859,1.047,2.33923,1.5697q1.77007,1.18542,3.55609,2.36316,1.23651.81225,2.4859,1.61829,1.757,1.13855,3.5315,2.26879,1.27917.81336,2.56842,1.62208,1.78179,1.11766,3.58367,2.22583,1.294.7965,2.5951,1.58959,1.85238,1.125,3.72839,2.23853c.84729.50464,1.69214,1.01074,2.54553,1.51245,1.33216.7832,2.67768,1.55969,4.02484,2.33569.78388.45142,1.562.90577,2.351,1.35474,1.60419.913,3.22534,1.81787,4.85071,2.72046.54644.30359,1.08514.61084,1.634.91309q3.27474,1.80394,6.6065,3.58056c.5055.26953,1.02057.53418,1.528.80274q2.5783,1.36431,5.185,2.71508c.82129.42359,1.65387.842,2.48028,1.26319,1.44721.73767,2.89594,1.47461,4.35889,2.20483.92511.46179,1.85968.91907,2.79108,1.37781q2.07824,1.02337,4.17334,2.03882,1.46741.70844,2.94824,1.41052,2.0669.984,4.15283,1.959,1.50678.7035,3.02441,1.40186,2.10187.96753,4.22559,1.92456,1.51794.68481,3.04285,1.36621,2.185.9723,4.39538,1.93213c.98865.43091,1.97412.86328,2.96924,1.29126,1.57324.67651,3.16113,1.34607,4.75049,2.01489.91089.38318,1.81518.76953,2.73144,1.15015q2.89966,1.205,5.84119,2.38965c.58276.23584,1.15735.47558,1.74231.71045q3.82947,1.53735,7.72,3.04541c.65747.255,1.32593.50451,1.98584.75818q2.90955,1.11822,5.84644,2.22326c.97363.3645,1.95923.72339,2.93847,1.08521,1.67359.61816,3.34864,1.23572,5.03858,1.84619,1.07641.38892,2.1626.77331,3.24573,1.15893q2.42084.86206,4.86,1.71546,1.70178.59307,3.41748,1.17956,2.40528.82563,4.83081,1.64161,1.74555.58649,3.50171,1.16784,2.445.809,4.91333,1.60681c1.16821.37818,2.33618.75635,3.51172,1.13123q2.54078.81006,5.10913,1.60706c1.1394.35522,2.27515.71215,3.42126,1.0642,1.83826.56446,3.69251,1.12146,5.54822,1.67774,1.032.30932,2.05689.62207,3.09449.92871q3.4713,1.0265,6.98974,2.031c.593.16992,1.17774.34387,1.77246.51306q4.41577,1.25646,8.89673,2.48205c.81934.22437,1.65088.44275,2.47351.66541,2.17737.58948,4.3584,1.17712,6.55847,1.75574,1.12793.29663,2.26831.5874,3.4021.88134,1.91529.49622,3.83228.99146,5.76465,1.47974,1.24878.31543,2.50733.62622,3.76318.93823q2.76307.68646,5.545,1.36377,1.96362.47607,3.94189.94531,2.75922.65736,5.54,1.30445,1.99438.46362,3.99988.92212,2.80993.64159,5.64514,1.27136c1.33545.29724,2.67053.59485,4.01367.88855q2.92493.63959,5.87928,1.26538c1.28881.27441,2.57348.55078,3.86914.822,2.12988.4458,4.27685.88355,6.42566,1.32031,1.15478.23462,2.30163.47315,3.46191.7052q4.13435.82709,8.32068,1.63c.5625.1084,1.11719.22046,1.681.32812q5.04.96314,10.14941,1.89368c.98621.17981,1.98572.35339,2.976.53137,2.42773.43653,4.859.87158,7.30981,1.29724,1.2998.22571,2.6123.44556,3.91846.66834,2.16809.36963,4.33838.73828,6.52441,1.09961,1.41943.23462,2.84912.46435,4.27625.69543q3.1452.50922,6.31091,1.00867,2.22473.34936,4.4646.69165,3.13677.48194,6.29687.95276,2.26758.33765,4.54639.6698,3.18859.46417,6.4043.91577c1.50952.21265,3.01831.42566,4.53589.63452q3.33324.459,6.69848.90308c1.44995.19287,2.89527.38781,4.35254.57727,2.44141.31738,4.90149.6261,7.3634.934,1.27478.1593,2.5409.32263,3.82117.47949q4.96069.60755,9.97986,1.18774c.44531.05164.88416.10621,1.3302.1576q5.70155.65643,11.477,1.2782c1.16113.12524,2.33643.244,3.502.36718,2.69373.28491,5.39038.56836,8.10743.84229,1.4823.14941,2.97778.29272,4.467.439,2.42993.23853,4.86218.47583,7.31067.70581,1.60864.15113,3.22766.29724,4.84436.44458q3.53136.32154,7.08459.63318,2.5113.21863,5.03821.4303,3.53723.2981,7.09936.58447,2.5373.204,5.08594.40259,3.60956.28015,7.2478.54688c1.68445.12426,3.36768.249,5.06043.36938q3.7672.26788,7.56836.52c1.61645.10864,3.22766.21973,4.85168.32495,2.78638.18042,5.59278.35156,8.40137.52173,1.38428.08374,2.75928.17187,4.14893.25317q5.87439.34387,11.81445.65723c.29736.01562.59033.03345.88806.04907q6.39167.33472,12.86145.63355c1.3374.062,2.6897.11718,4.032.177,2.98291.13306,5.969.26453,8.976.38635,1.6687.06763,3.351.12879,5.02722.193q4.062.15564,8.146.30091c1.80347.06262,3.61743.12048,5.42945.17908q3.95049.12816,7.92444.24536,2.80517.0813,5.62609.15564,3.94484.10529,7.91578.19848,2.84728.06684,5.70629.12805,4.0298.08515,8.09009.15625c1.873.03357,3.74463.06788,5.62647.09742q4.23011.06628,8.49682.116c1.78809.02222,3.57007.04724,5.36585.06592,3.14209.03247,6.3053.0553,9.47131.07691,1.50708.01025,3.0044.02514,4.517.03283q7.03784.03607,14.15027.038,7.0686,0,13.99511-.17005C1333.6311,1680.02515,1334.65259,1668.70605,1340.11108,1661Z"/><path d="M1723.28711,1453.05737c-.0669-.80957-.16626-1.59765-.28406-2.37268-.015-.09948-.02771-.20056-.0437-.29944-.118-.73217-.2616-1.44677-.42358-2.148-.02869-.124-.05713-.24829-.08716-.37133q-.25159-1.032-.56384-2.01953c-.03565-.11219-.07349-.22266-.11023-.334-.22058-.66858-.45765-1.32471-.71912-1.962-.02563-.06238-.054-.12281-.08-.18494q-.39972-.95563-.85778-1.865c-.022-.0437-.042-.08887-.06421-.13245-.31079-.60815-.64527-1.19714-.99366-1.7738-.05419-.0896-.10693-.18042-.1621-.26929q-.51453-.83092-1.08082-1.61658-.10107-.14062-.20361-.27966-.57569-.78186-1.19714-1.52173c-.02027-.024-.04138-.04724-.06165-.07116,2.64331,13.83923-1.79529,32.6156-34.02124,67.16418-37.18591,39.866-108.29968,84.73657-224.99365,105.179,5.36279-.44312,10.66589-.77344,15.85474-1.01294-5.18885.2395-10.492.56982-15.85474,1.01294q-18.41308,3.22558-38.35547,5.60437c-30.7008,6.87817-59.87146,20.391-78.87305,47.21667-5.45849,7.70605-6.48,19.02515-2.00586,27.00012,75.87183-1.78113,139.49415-17.9508,191.76124-41.14416q2.248-.99756,4.468-2.01221c11.84021-5.41113,23.0846-11.18042,33.74414-17.21875q1.9986-1.132,3.96985-2.27673a421.04536,421.04536,0,0,0,46.67749-31.41846q9.72675-7.5456,18.50318-15.24451,2.9262-2.55981,5.74816-5.12744,1.411-1.2832,2.79615-2.56763,8.31006-7.70507,15.69092-15.39477,6.1527-6.39222,11.66894-12.69971,2.20716-2.5188,4.31348-5.01538,2.10643-2.49609,4.11242-4.96606,3.00935-3.70386,5.79432-7.33814,1.857-2.42139,3.61474-4.806,1.75818-2.384,3.41748-4.72742.82983-1.17132,1.63513-2.33154a254.73167,254.73167,0,0,0,13.68042-21.89062q.56379-1.02027,1.10389-2.02368a134.7815,134.7815,0,0,0,10.52124-24.25709q.21349-.71246.40429-1.40014A33.58644,33.58644,0,0,0,1723.28711,1453.05737Z"/><path d="M1489.5177,1601.68579c-20.93933-10.7561-189.85095-45.35254-199.18445-55.01916C1281,1537,1212,1364.42651,1191.479,1358.33667L1162.66675,1543l242.646,74.34607c22.2472-6.67712,46.04163-9.17175,67.8816-10.18005-21.84,1.0083-45.6344,3.50293-67.8816,10.18005L1459.66675,1634S1510.457,1612.442,1489.5177,1601.68579Z"/><path d="M610.5885,1441.73633c-4.65423,10.61462-9.07989,20.44263-13.098,28.8457,30.00952,51.14014,93.84051,97.14014,102.425,101.64014s25.9201,25.29394,11.96423,27.5c-53.50067,8.45727-171.78918,17.30725-270.03436,18.58374,1.188,7.56567-3.102,15.09155-8.45142,18.11059,96.63306,2.398,259.33313-3.11816,313.20172-18.78918,14.10938-4.10461,31.36041-18.62634,49.90582-39.34973Z"/><path class="cls-2" d="M1576.93262,1648.67065c-8.38513-10.71423-52.333-26.09338-103.73853-41.50463-46.91675,2.166-102.86084,11.16735-133.083,53.834-6.0979,8.60889-6.65832,21.72583-.20422,29.65259,59.7179,1.09277,115.15466.06726,144.692-2.80066C1560.217,1680.50989,1598.42407,1676.132,1576.93262,1648.67065Z"/><path class="cls-4" d="M1340.11108,1661c30.22217-42.66663,86.16626-51.668,133.083-53.834-80.35-24.08875-178.92065-48.25586-188.38647-54.80909-15.52161-10.74572-69.28882-173.34485-93.32862-194.02026-24.03979-20.67529-291.26037-20.9668-287.15014,4.17895,4.11035,25.14576,149.24634,290.13489,214.91479,309.23853,38.83545,11.29749,134.23364,17.31689,220.66321,18.89844C1333.45276,1682.72583,1334.01318,1669.60889,1340.11108,1661Z"/><path d="M1336.89526,1667.29077c-99.27014-5.802-195.43359-16.09814-213.54882-21.40185-40.98682-12-97.67969-80-141.57959-137.65137,46.42285,75.41089,102.94018,153.46948,137.4768,163.5166,38.83545,11.29749,134.23364,17.31689,220.66321,18.89844C1334.884,1684.48376,1334.11621,1675.17627,1336.89526,1667.29077Z"/><path class="cls-3" d="M1576.93262,1648.67065c15.587,26.10547-114.70142,25.94532-240.03736,18.62012-2.77905,7.8855-2.01123,17.193,3.0116,23.36182,59.7179,1.09277,115.15466.06726,144.692-2.80066C1560.217,1680.50989,1598.42407,1676.132,1576.93262,1648.67065Z"/></g><g id="Horn"><path class="cls-4" d="M735.51957,432.94584c109.42978,112.24006,217.588,184.26754,241.5782,160.878L580.81764,187.3668C556.82742,210.75635,626.08979,320.70579,735.51957,432.94584Z"/><ellipse cx="778.95771" cy="390.59531" rx="33.83605" ry="158.30437" transform="translate(-51.45591 654.70329) rotate(-44.27366)"/><path class="cls-5" d="M912.47288,740.81714c-7.211,44.34094-66.40529,62.77581-77.90593,116.78868,26.22167,9.03507,63.23269,11.75095,91.53646.79732C931.83834,838.72352,921.855,750.88629,912.47288,740.81714Z"/><path class="cls-5" d="M885.78975,510.63074"/><path class="cls-5" d="M898.387,619.30255c-6.15157,45.60078-48.27378,74.69154-63.28628,106.58344s-6.97849,115.70245-.53372,131.71983c11.50064-54.01287,70.69489-72.44774,77.90593-116.78868S898.387,619.30255,898.387,619.30255Z"/><path class="cls-5" d="M885.78975,510.63074c-5.91,46.76609-35.27495,46.47388-50.18247,90.22685s-6.14492,111.7128-.50661,125.0284c15.0125-31.8919,57.13471-60.98266,63.28628-106.58344S885.78975,510.63074,885.78975,510.63074Z"/><path class="cls-5" d="M874.09885,409.77722c-6.68854,47.70226-28.65561,51.10514-38.04035,79.72076s-13.41883,75.71556-.45122,111.35961c14.90752-43.753,44.2725-43.46076,50.18247-90.22685S883.09167,425.80079,874.09885,409.77722Z"/><path class="cls-5" d="M862.7163,311.58378c-2.59044,34.65128-19.61832,48.97881-26.22382,70.81137s-9.50177,71.74154-.434,107.10283c9.38474-28.61562,31.35181-32.0185,38.04035-79.72076S862.7163,311.58378,862.7163,311.58378Z"/><path class="cls-5" d="M853.706,233.85516c-3.16438,35.04611-10.4371,46.04026-16.86994,63.741s-7.50054,63.35458-.3436,84.79895c6.6055-21.83256,23.63338-36.16009,26.22382-70.81137S860.30531,250.3959,853.706,233.85516Z"/><path class="cls-5" d="M844.98026,158.581c-.14186,16.77853-1.65873,27.57963-7.79335,52.43188s-10.525,60.30062-.35083,86.58337c6.43284-17.70078,13.70556-28.69493,16.86994-63.741S849.62721,167.10246,844.98026,158.581Z"/><path class="cls-5" d="M837.65539,95.39177c1.40909,3.71563,1.7511,26.96133-.1486,36.67388-1.78946,9.149-7.083,34.47681-.31988,78.94718,6.13462-24.85225,7.65149-35.65335,7.79335-52.43188S842.05178,108.342,837.65539,95.39177Z"/><path class="cls-5" d="M837.65539,95.39177c-2.17161,11.58334-1.5715,31.17052-.1486,36.67388C839.40649,122.3531,839.06448,99.1074,837.65539,95.39177Z"/><path class="cls-10" d="M907.18046,863.58484a101.49212,101.49212,0,0,0,18.923-5.1817c1.51062-5.18371,1.93067-15.09643,1.55835-27.07116C926.06412,838.84882,909.48429,862.25837,907.18046,863.58484Z"/><path class="cls-10" d="M885.78975,510.63074"/><path class="cls-10" d="M913.96218,720.49478a131.04429,131.04429,0,0,1-1.4893,20.32236c-7.211,44.34094-66.40529,62.77581-77.90593,116.78868-1.44048-3.58006-2.96035-10.54688-4.28453-19.56376C831.93912,816.03632,900.23523,768.32823,913.96218,720.49478Z"/><path class="cls-10" d="M830.69382,706.81451c1.38392,8.96264,2.99354,15.73376,4.40685,19.07148,15.0125-31.8919,57.13471-60.98266,63.28628-106.58344a148.43476,148.43476,0,0,0,1.23215-18.445C884.43912,661.16132,838.07351,681.0927,830.69382,706.81451Z"/><path class="cls-10" d="M830.281,581.15825a126.86333,126.86333,0,0,0,5.3263,19.69934c14.90752-43.753,44.2725-43.46076,50.18247-90.22685q1.03272-8.172,1.49671-15.96857C875.68912,532.16132,831.62283,566.40517,830.281,581.15825Z"/><path class="cls-10" d="M875.50366,392.82993a155.99927,155.99927,0,0,1-1.40481,16.94729c-6.68854,47.70226-28.65561,51.10514-38.04035,79.72076-1.2755-4.974-2.31428-10.23589-3.13931-15.667C835.68912,452.28632,857.19319,456.74853,875.50366,392.82993Z"/><path class="cls-10" d="M863.37282,297.59548q-.12393,6.7534-.65652,13.9883c-2.59044,34.65128-19.61832,48.97881-26.22382,70.81137a85.90466,85.90466,0,0,1-3.25969-14.84806C837.93912,337.53632,853.43151,339.52963,863.37282,297.59548Z"/><path class="cls-10" d="M854.45964,219.32828c-.06961,4.73954-.30878,9.60021-.75362,14.52688-3.16438,35.04611-10.4371,46.04026-16.86994,63.741a82.38324,82.38324,0,0,1-3.91913-13.74476C833.84322,273.078,846.73016,263.41191,854.45964,219.32828Z"/><path class="cls-10" d="M844.58274,144.65336c.29009,5.23193.43048,10.02988.39752,13.92759-.14186,16.77853-1.65873,27.57963-7.79335,52.43188-.85989-5.65409-1.52487-10.99873-2.02693-16.04C838.50162,171.53632,839.16385,187.3954,844.58274,144.65336Z"/><path class="cls-10" d="M836.38792,121.83032"/><path class="cls-10" d="M836.38792,121.83032a59.5624,59.5624,0,0,0,1.11887,10.23533c1.8997-9.71255,1.55769-32.95825.1486-36.67388C837.85579,109.24465,836.25338,115.166,836.38792,121.83032Z"/><path d="M977.53223,196.99274c-68.06348-69.81134-139.863-103.15949-139.863-103.15949L662.1,265.00659l9.984,10.24042c18.49414-5.09888,74.48871,33.66186,131.10083,91.72778s93.94068,115.02509,88.37476,133.3841l9.98389,10.24041L1077.11279,339.426S1045.59558,266.80408,977.53223,196.99274Z"/><path d="M829.556,341.26385c-44.98584-46.14111-89.75128-85.47662-128.54828-114.19085L662.1,265.00659l9.984,10.24042c18.49414-5.09888,74.48871,33.66186,131.10083,91.72778s93.94068,115.02509,88.37476,133.3841l9.98389,10.24041,38.90783-37.93359C912.72986,433.15326,874.54187,387.405,829.556,341.26385Z"/><path class="cls-8" d="M916.60117,256.39817c-68.0634-69.81134-139.863-103.15945-139.863-103.15945L732.50852,196.361s71.79958,33.34811,139.863,103.15945,99.58057,142.43327,99.58057,142.43327l44.22967-43.12225S984.66457,326.20952,916.60117,256.39817Z"/><path class="cls-4" d="M822.39589,348.24474C712.96611,236.00468,604.8079,163.9772,580.81764,187.3668l87.62993,89.88035c13.38024-13.04523,73.70419,27.12725,134.73722,89.72768s99.6633,123.92341,86.28306,136.96864l87.62992,89.88036C1001.088,570.43423,931.82567,460.48479,822.39589,348.24474Z"/></g><g id="Face"><path class="cls-11" d="M673.4291,1000.57351c-12.68771,12.68771-30.17464,57.33182-4.82794,68.19469s27.76067-1.207,43.45148-3.01746,30.77814,6.03492,45.262,4.22445,32.58862-59.1423,13.88034-69.40168S697.56881,976.43379,673.4291,1000.57351Z"/><path class="cls-5" d="M710.42205,991.37748c-15.7834,4.85643-11.20088,24.26857,0,28.9356s14.93451,8.40066,22.40176-10.26747S722.55634,987.64385,710.42205,991.37748Z"/><path class="cls-5" d="M692.33854,1007.09308c-2.42284.71293-4.22445,5.55028-1.81048,6.35494s7.64424,1.60932,6.83959-1.40815S696.16066,1005.96841,692.33854,1007.09308Z"/><path class="cls-5" d="M698.57463,1017.069c-1.99162,1.37882-1.00582,2.61513,0,3.82212s3.01747,1.60931,3.621,0-.20116-2.61514-.80466-3.82212S701.18977,1015.2585,698.57463,1017.069Z"/><path class="cls-11" d="M941.46687,1014.34958c-6.3139,11.48139,5.22549,55.63257,22.12807,55.63257,22.28006,0,21.83265-8.65739,41.28319-8.65739,11.2939,0,22.004,11.37131,40.7052,6.59191,21.46177-5.4849,18.06405-48.50937-.53823-62.89182-13.91667-10.75975-31.03482-10.9242-51.37136-11.124C968.5385,993.654,947.5018,1003.37548,941.46687,1014.34958Z"/><path class="cls-5" d="M984.84162,998.814c-12.24445,8.689-9.92327,14.957-4.05952,20.74865s15.43872,7.8882,19.39548,4.3523c3.60846-3.22465,9.47221-10.6671,7.21693-19.2372S988.0763,996.51856,984.84162,998.814Z"/><path class="cls-5" d="M1014.69067,1008.8282c-3.56442.66833-5.23027,6.03493-2.61513,8.4489s7.8454,1.60932,8.04657-1.60931S1017.9093,1008.22471,1014.69067,1008.8282Z"/><path class="cls-5" d="M1007.89669,1019.69108c-1.84938,1.02363-2.36838,4.41345,0,4.62069s4.17885.81074,4.17885-.99974S1009.35043,1018.88642,1007.89669,1019.69108Z"/><path class="cls-12" d="M766.39009,1134.3833c53.25-20.66807,154.02586-16.96568,191.02129-8.1804a10.433,10.433,0,0,1,7.88946,11.69888c-12.05727,81.18833-137.28113,184.68467-204.77968,9.96247A10.42028,10.42028,0,0,1,766.39009,1134.3833Z"/><path class="cls-13" d="M935.85566,1200.58525c-35.73051,43.54111-96.27867,66.84065-144.495,4.56839C807.11051,1198.39521,898.03677,1186.68216,935.85566,1200.58525Z"/><ellipse class="cls-14" cx="685.39214" cy="1149.39418" rx="24.05881" ry="12.39418"/><ellipse class="cls-14" cx="1035.64605" cy="1144.14418" rx="21.57051" ry="11.56085"/></g><g id="Heart_Small" data-name="Heart Small"><path class="cls-15" d="M1359.825,1076.32354c-2.35129-1.86806-7.96169-4.86179-15.76557.29232v-8.52472c0-5.99624-14.12638-10.85718-31.55219-10.85718-17.42575,0-31.55218,4.86094-31.55218,10.85718v52.07633c0,5.99625,14.12643,10.85719,31.55218,10.85719,17.42581,0,31.55219-4.86094,31.55219-10.85719v-3.27837a21.1305,21.1305,0,0,0,6.93766,1.27434,14.74906,14.74906,0,0,0,12.304-6.49694C1370.139,1101.87539,1368.28737,1083.04806,1359.825,1076.32354Zm-1.78978,31.66575c-2.962,4.24259-7.65419,4.90838-13.97579,1.99748v-25.09036c3.58094-3.54908,8.11994-6.44419,11.76983-3.54449C1361.70754,1086.0228,1362.94448,1100.95968,1358.03526,1107.98929Z"/><ellipse class="cls-16" cx="1312.5073" cy="1070.98043" rx="22.38268" ry="5.33594"/><path class="cls-8" d="M1328.83129,1074.09691c-.13275.04272-.26566.0854-.40116.12717C1328.56568,1074.18231,1328.69849,1074.13963,1328.83129,1074.09691Z"/><path class="cls-8" d="M1329.5714,1073.84877c-.13176.04625-.26591.09161-.40077.13681C1329.30554,1073.94038,1329.43954,1073.895,1329.5714,1073.84877Z"/><path class="cls-8" d="M1330.68285,1073.43011q-.3942.15885-.81143.31035Q1330.28829,1073.58884,1330.68285,1073.43011Z"/><path class="cls-8" d="M1326.92751,1074.65025c-.129.0336-.26056.06608-.39156.09884C1326.667,1074.71633,1326.79856,1074.68385,1326.92751,1074.65025Z"/><path class="cls-8" d="M1328.02691,1074.34426q-.2912.08568-.59.16822Q1327.73614,1074.43,1328.02691,1074.34426Z"/><path class="cls-8" d="M1334.16309,1071.57358c-.09509.07-.19418.13911-.29473.20788C1333.969,1071.71263,1334.068,1071.64353,1334.16309,1071.57358Z"/><path class="cls-8" d="M1333.7147,1071.88472c-.103.068-.20728.13575-.31553.20267C1333.50752,1072.02047,1333.61166,1071.95276,1333.7147,1071.88472Z"/><path class="cls-8" d="M1331.23908,1073.19748c-.12945.05623-.2586.11251-.39221.1675C1330.98058,1073.31,1331.10953,1073.25371,1331.23908,1073.19748Z"/><path class="cls-8" d="M1333.25651,1072.17279q-.35008.21025-.73375.41272Q1332.90715,1072.38323,1333.25651,1072.17279Z"/><path class="cls-8" d="M1334.88743,1070.98267c-.18572.17-.39.337-.60685.50154C1334.49752,1071.31962,1334.70171,1071.15274,1334.88743,1070.98267Z"/><path class="cls-8" d="M1331.84933,1072.92168q-.184.08711-.37435.17254Q1331.66548,1073.00887,1331.84933,1072.92168Z"/><path class="cls-8" d="M1332.43127,1072.63462c-.11985.06211-.2444.123-.369.184C1332.187,1072.75766,1332.31137,1072.69673,1332.43127,1072.63462Z"/><path class="cls-8" d="M1326.08116,1074.86036q-.19755.047-.39771.09279Q1325.88385,1074.90753,1326.08116,1074.86036Z"/><path class="cls-8" d="M1318.67782,1076.03816q-.18.01647-.361.03226C1318.43772,1076.06011,1318.55777,1076.04914,1318.67782,1076.03816Z"/><path class="cls-8" d="M1317.53049,1076.13291c-.08928.00655-.17782.01389-.26746.02011C1317.35272,1076.1468,1317.44116,1076.13941,1317.53049,1076.13291Z"/><path class="cls-8" d="M1316.20135,1076.21826c-.08219.00436-.16542.00772-.24791.01176C1316.03593,1076.22593,1316.11911,1076.22262,1316.20135,1076.21826Z"/><path class="cls-8" d="M1313.95917,1076.29985c-.11144.0023-.22254.005-.33443.00678C1313.73663,1076.30483,1313.84773,1076.30215,1313.95917,1076.29985Z"/><path class="cls-8" d="M1325.173,1075.06577c-.1199.02581-.23865.05219-.35995.07739C1324.93444,1075.118,1325.05309,1075.09158,1325.173,1075.06577Z"/><path class="cls-8" d="M1315.10775,1076.267c-.118.00443-.2365.00823-.355.012C1314.87125,1076.27526,1314.9897,1076.27146,1315.10775,1076.267Z"/><path class="cls-8" d="M1323.96539,1075.31088c-.10564.01988-.21364.03847-.32023.05785C1323.7518,1075.34935,1323.85975,1075.33076,1323.96539,1075.31088Z"/><path class="cls-8" d="M1323.03131,1075.47692c-.12581.02128-.25281.04184-.37986.06239C1322.7785,1075.51876,1322.90545,1075.4982,1323.03131,1075.47692Z"/><path class="cls-8" d="M1319.72239,1075.93411c-.11089.012-.22294.02313-.33453.03466C1319.49945,1075.95724,1319.6115,1075.94615,1319.72239,1075.93411Z"/><path class="cls-8" d="M1322.0443,1075.63372c-.11915.01792-.2379.036-.358.0532C1321.8065,1075.66973,1321.92515,1075.65164,1322.0443,1075.63372Z"/><path class="cls-8" d="M1320.84826,1075.80066c-.04867.00622-.09639.01311-.14516.01921C1320.75192,1075.81377,1320.79959,1075.80688,1320.84826,1075.80066Z"/><path class="cls-8" d="M1298.93359,1074.86042q.19749.047.39747.09268Q1299.1308,1074.90749,1298.93359,1074.86042Z"/><path class="cls-8" d="M1293.77512,1073.19737c.12965.05623.25881.11256.39261.16761C1294.034,1073.30993,1293.90472,1073.2536,1293.77512,1073.19737Z"/><path class="cls-8" d="M1295.44366,1073.84888c.1316.0462.26551.09156.40021.13664C1295.70922,1073.94038,1295.57516,1073.89508,1295.44366,1073.84888Z"/><path class="cls-8" d="M1294.3318,1073.43011q.39392.15867.81053.31007Q1294.72607,1073.58873,1294.3318,1073.43011Z"/><path class="cls-8" d="M1298.08739,1074.65036c.12871.03354.26.06591.39071.09856C1298.3474,1074.71627,1298.21605,1074.6839,1298.08739,1074.65036Z"/><path class="cls-8" d="M1296.18336,1074.09691c.13281.04272.26561.08545.40122.12717C1296.449,1074.18236,1296.31612,1074.13969,1296.18336,1074.09691Z"/><path class="cls-8" d="M1296.98739,1074.34415q.291.08559.58939.16811Q1297.27793,1074.42978,1296.98739,1074.34415Z"/><path class="cls-8" d="M1290.85157,1071.57358c.09509.07.19408.139.29472.20788C1291.04575,1071.71269,1290.94661,1071.64353,1290.85157,1071.57358Z"/><path class="cls-8" d="M1293.16492,1072.92151q.18443.0872.37505.17282Q1293.34924,1073.00881,1293.16492,1072.92151Z"/><path class="cls-8" d="M1291.29985,1071.88461c.10314.06815.20749.136.316.203C1291.50739,1072.02058,1291.403,1071.95276,1291.29985,1071.88461Z"/><path class="cls-8" d="M1292.58338,1072.63462c.12.06222.2445.12315.36925.18419C1292.82793,1072.75777,1292.70333,1072.69684,1292.58338,1072.63462Z"/><path class="cls-8" d="M1291.757,1072.17212q.35055.21059.7348.41339Q1292.10709,1072.38291,1291.757,1072.17212Z"/><path class="cls-8" d="M1305.29241,1075.93411c.11069.012.22249.02318.33389.03461C1305.515,1075.95724,1305.403,1075.94615,1305.29241,1075.93411Z"/><path class="cls-8" d="M1307.48456,1076.13291c.08914.00661.17742.01389.26691.02011C1307.662,1076.1468,1307.57365,1076.13946,1307.48456,1076.13291Z"/><path class="cls-8" d="M1306.337,1076.03816c.1199.011.2398.0219.36045.03226Q1306.51666,1076.05488,1306.337,1076.03816Z"/><path class="cls-8" d="M1308.81336,1076.21826c.082.00436.16511.00772.2475.01176C1308.97847,1076.22593,1308.89539,1076.22262,1308.81336,1076.21826Z"/><path class="cls-8" d="M1311.05558,1076.29985c.11139.0023.22239.005.33414.00678C1311.278,1076.30483,1311.16692,1076.30215,1311.05558,1076.29985Z"/><path class="cls-8" d="M1309.90691,1076.267q.177.00656.35479.012C1310.1433,1076.27526,1310.02486,1076.27146,1309.90691,1076.267Z"/><path class="cls-17" d="M1312.50728,1060.80207c-13.20133,0-23.90314,2.74646-23.90314,7.28907a4.47431,4.47431,0,0,0,2.13018,3.39329c-.21789-.16531-.42318-.33309-.60965-.504,3.3998-3.117,12.13659-5.33594,22.38261-5.33594s18.98286,2.2189,22.3827,5.33594a4.001,4.001,0,0,0,1.52053-2.88929C1336.41051,1063.54853,1325.70866,1060.80207,1312.50728,1060.80207Z"/><path class="cls-8" d="M1301.98325,1075.47692q.18893.03192.38.06239C1302.2361,1075.51876,1302.1091,1075.4982,1301.98325,1075.47692Z"/><path class="cls-8" d="M1299.84277,1075.066c.11935.02571.23744.052.35819.07706C1300.08026,1075.118,1299.96207,1075.0917,1299.84277,1075.066Z"/><path class="cls-8" d="M1301.04926,1075.31088c.10565.01988.21359.03847.32013.05785C1301.26285,1075.34935,1301.15491,1075.33076,1301.04926,1075.31088Z"/><path class="cls-8" d="M1302.9705,1075.63378c.119.01786.23755.0359.3575.05314C1303.20805,1075.66968,1303.08945,1075.65164,1302.9705,1075.63378Z"/><path class="cls-8" d="M1304.16775,1075.80083c.04762.0061.09433.01288.1422.01893C1304.26213,1075.81371,1304.21537,1075.80693,1304.16775,1075.80083Z"/><path class="cls-17" d="M1290.30122,1056.01063a1.60566,1.60566,0,0,1-1.06714-2.80585c3.61046-3.20815,3.79907-8.31493.44845-12.14178-3.27356-3.73993-4.532-11.88641.85479-16.65944a1.60587,1.60587,0,0,1,2.12981,2.404c-3.8488,3.4102-2.90754,9.46809-.56807,12.14,4.49347,5.13278,4.179,12.29411-.73159,16.65766A1.59959,1.59959,0,0,1,1290.30122,1056.01063Z"/><path class="cls-17" d="M1304.5979,1056.01063a1.60565,1.60565,0,0,1-1.06714-2.80585c3.61045-3.20815,3.79906-8.31493.44845-12.14178-3.27356-3.73948-4.532-11.88641.85434-16.659a1.60553,1.60553,0,1,1,2.12981,2.40309c-3.8488,3.41065-2.9071,9.46854-.56762,12.14043,4.49347,5.13278,4.179,12.29411-.73159,16.65766A1.59961,1.59961,0,0,1,1304.5979,1056.01063Z"/><path class="cls-17" d="M1318.89457,1056.01063a1.60566,1.60566,0,0,1-1.06714-2.80585c3.61046-3.20815,3.79907-8.31493.44845-12.14178-3.27356-3.73948-4.532-11.88641.85434-16.659a1.60553,1.60553,0,0,1,2.12981,2.40309c-3.84879,3.41065-2.90709,9.46854-.56762,12.14043,4.49347,5.13278,4.179,12.29411-.73159,16.65766A1.59959,1.59959,0,0,1,1318.89457,1056.01063Z"/><path class="cls-17" d="M1333.19125,1056.01063a1.60565,1.60565,0,0,1-1.06714-2.80585c3.61045-3.20815,3.79906-8.31493.44845-12.14178-3.27356-3.73948-4.532-11.88641.85434-16.659a1.60553,1.60553,0,0,1,2.12981,2.40309c-3.8488,3.41065-2.9071,9.46854-.56762,12.14043,4.49347,5.13278,4.179,12.29411-.73159,16.65766A1.59961,1.59961,0,0,1,1333.19125,1056.01063Z"/></g><g id="Heart_Medium" data-name="Heart Medium"><path class="cls-15" d="M1473.89149,979.185c-3.11558-2.47527-10.54963-6.44211-20.89016.38734V968.27664c0-7.94531-18.71815-14.38631-41.80821-14.38631-23.09,0-41.8082,6.441-41.8082,14.38631v69.00372c0,7.94531,18.71822,14.38631,41.8082,14.38631,23.09006,0,41.80821-6.441,41.80821-14.38631v-4.344a27.99935,27.99935,0,0,0,9.19275,1.68857,19.54328,19.54328,0,0,0,16.30335-8.60877C1487.55795,1013.04245,1485.10449,988.0953,1473.89149,979.185Zm-2.37154,41.95869c-3.92476,5.62165-10.14218,6.50385-18.51862,2.64676v-33.246c4.74493-4.70271,10.75933-8.53887,15.5956-4.69663C1476.38591,992.037,1478.02491,1011.82907,1471.52,1021.14366Z"/><ellipse class="cls-16" cx="1411.19315" cy="972.10509" rx="29.65816" ry="7.07039"/><path class="cls-8" d="M1432.82324,976.23457c-.1759.05662-.352.11316-.53156.16852C1432.4713,976.34773,1432.64727,976.29119,1432.82324,976.23457Z"/><path class="cls-8" d="M1433.80392,975.90578c-.17458.06129-.35234.1214-.531.18128C1433.45164,976.02718,1433.62921,975.96707,1433.80392,975.90578Z"/><path class="cls-8" d="M1435.27666,975.351q-.52236.21046-1.07519.41123Q1434.75385,975.56136,1435.27666,975.351Z"/><path class="cls-8" d="M1430.30064,976.96778c-.17087.04452-.34525.08756-.51884.131C1429.95545,977.05534,1430.12977,977.0123,1430.30064,976.96778Z"/><path class="cls-8" d="M1431.7574,976.56233q-.38584.11353-.78177.22291Q1431.37211,976.67594,1431.7574,976.56233Z"/><path class="cls-8" d="M1439.88814,972.89105c-.126.09268-.2573.18432-.39053.27544C1439.6309,973.0753,1439.76207,972.98373,1439.88814,972.89105Z"/><path class="cls-8" d="M1439.294,973.30332c-.13653.09008-.27466.17987-.41809.26854C1439.01947,973.48319,1439.15747,973.39348,1439.294,973.30332Z"/><path class="cls-8" d="M1436.01369,975.0428c-.17154.0745-.34267.14907-.5197.22194C1435.67115,975.19187,1435.842,975.1173,1436.01369,975.0428Z"/><path class="cls-8" d="M1438.68688,973.685q-.46389.2786-.97226.54688Q1438.22395,973.96388,1438.68688,973.685Z"/><path class="cls-8" d="M1440.84793,972.10806c-.24609.22528-.51678.44655-.8041.66456C1440.33128,972.55454,1440.60184,972.33341,1440.84793,972.10806Z"/><path class="cls-8" d="M1436.8223,974.67734q-.24378.11542-.496.22862Q1436.57869,974.79287,1436.8223,974.67734Z"/><path class="cls-8" d="M1437.5934,974.297c-.15881.08229-.32384.163-.48888.24376C1437.26969,974.46,1437.43453,974.37927,1437.5934,974.297Z"/><path class="cls-8" d="M1429.17918,977.24619q-.26177.06232-.527.123Q1428.91775,977.3087,1429.17918,977.24619Z"/><path class="cls-8" d="M1419.36939,978.80683c-.159.01455-.31828.02909-.47828.04274C1419.05124,978.83592,1419.21031,978.82138,1419.36939,978.80683Z"/><path class="cls-8" d="M1417.84913,978.93238c-.11831.00869-.23563.01841-.3544.02664C1417.61357,978.95079,1417.73075,978.941,1417.84913,978.93238Z"/><path class="cls-8" d="M1416.08794,979.04547c-.1089.00579-.21919.01024-.32848.01558C1415.86875,979.05563,1415.979,979.05126,1416.08794,979.04547Z"/><path class="cls-8" d="M1413.117,979.15358c-.14767.003-.29488.00661-.44314.009C1412.82207,979.16019,1412.96928,979.15663,1413.117,979.15358Z"/><path class="cls-8" d="M1427.97588,977.51837c-.15888.0342-.31622.06915-.47695.10254C1427.65972,977.58752,1427.81694,977.55257,1427.97588,977.51837Z"/><path class="cls-8" d="M1414.63887,979.1101q-.23454.00879-.47046.01595Q1414.404,979.11849,1414.63887,979.1101Z"/><path class="cls-8" d="M1426.37568,977.84315c-.14.02635-.28308.051-.42432.07666C1426.09267,977.89413,1426.2357,977.8695,1426.37568,977.84315Z"/><path class="cls-8" d="M1425.138,978.06317c-.1667.02819-.335.05543-.50333.08266C1424.803,978.1186,1424.97122,978.09136,1425.138,978.06317Z"/><path class="cls-8" d="M1420.75351,978.669c-.147.016-.29541.03065-.44328.04593C1420.4581,978.69961,1420.60656,978.68492,1420.75351,978.669Z"/><path class="cls-8" d="M1423.83014,978.27094c-.15787.02374-.31522.04771-.47429.07049C1423.51505,978.31865,1423.67227,978.29468,1423.83014,978.27094Z"/><path class="cls-8" d="M1422.24533,978.49214c-.06449.00823-.12772.01736-.19234.02545C1422.11767,978.5095,1422.18084,978.50037,1422.24533,978.49214Z"/><path class="cls-8" d="M1393.20731,977.24626q.26167.06222.52666.12281Q1393.46862,977.30864,1393.20731,977.24626Z"/><path class="cls-8" d="M1386.37208,975.04265c.1718.0745.34293.14915.52023.22209C1386.71515,975.1918,1386.54381,975.11715,1386.37208,975.04265Z"/><path class="cls-8" d="M1388.583,975.90593c.17438.06122.35181.12132.5303.18105C1388.93485,976.02718,1388.75722,975.96715,1388.583,975.90593Z"/><path class="cls-8" d="M1387.10971,975.351q.522.21025,1.074.41086Q1387.63213,975.56122,1387.10971,975.351Z"/><path class="cls-8" d="M1392.08606,976.96793c.17054.04444.34445.08733.51771.13059C1392.43058,977.05526,1392.25653,977.01237,1392.08606,976.96793Z"/><path class="cls-8" d="M1389.56312,976.23457c.176.05662.35195.11324.53163.16852C1389.91513,976.34781,1389.739,976.29127,1389.56312,976.23457Z"/><path class="cls-8" d="M1390.6285,976.56218q.38554.11343.781.22276Q1391.01348,976.67564,1390.6285,976.56218Z"/><path class="cls-8" d="M1382.49823,972.89105c.126.09268.25717.18425.39052.27544C1382.75553,973.07537,1382.62416,972.98373,1382.49823,972.89105Z"/><path class="cls-8" d="M1385.56354,974.67712q.24437.11553.497.229Q1385.80778,974.7928,1385.56354,974.67712Z"/><path class="cls-8" d="M1383.09223,973.30317c.13667.09031.27493.18017.41869.269C1383.36722,973.48334,1383.2289,973.39348,1383.09223,973.30317Z"/><path class="cls-8" d="M1384.793,974.297c.15894.08244.324.16317.48927.24405C1385.117,974.46015,1384.95191,974.37942,1384.793,974.297Z"/><path class="cls-8" d="M1383.698,973.68413q.46447.279.97365.54777Q1384.16185,973.96343,1383.698,973.68413Z"/><path class="cls-8" d="M1401.63306,978.669c.14668.016.29481.03072.44242.04586C1401.92794,978.69961,1401.77967,978.68492,1401.63306,978.669Z"/><path class="cls-8" d="M1404.53777,978.93238c.11811.00876.23509.01841.35367.02664C1404.77286,978.95079,1404.65581,978.94107,1404.53777,978.93238Z"/><path class="cls-8" d="M1403.01725,978.80683c.15887.01462.31774.029.47761.04274Q1403.25525,978.829,1403.01725,978.80683Z"/><path class="cls-8" d="M1406.29849,979.04547c.1087.00579.21879.01024.328.01558C1406.51728,979.05563,1406.40719,979.05126,1406.29849,979.04547Z"/><path class="cls-8" d="M1409.26955,979.15358c.1476.003.29468.00661.44274.009C1409.56423,979.16019,1409.41708,979.15663,1409.26955,979.15358Z"/><path class="cls-8" d="M1407.7475,979.1101q.23452.00869.47012.01595Q1407.9823,979.11849,1407.7475,979.1101Z"/><path class="cls-17" d="M1411.19312,958.61826c-17.49242,0-31.67284,3.6392-31.67284,9.65838,0,1.60376,1.01488,3.125,2.82259,4.49628-.28871-.21905-.56073-.44136-.80782-.66783,4.5049-4.13023,16.08159-7.07039,29.65807-7.07039,13.57654,0,25.15322,2.94016,29.65819,7.07039a5.3015,5.3015,0,0,0,2.01477-3.82845C1442.86608,962.25746,1428.6856,958.61826,1411.19312,958.61826Z"/><path class="cls-8" d="M1397.24826,978.06317q.25033.04228.50346.08266C1397.5833,978.1186,1397.415,978.09136,1397.24826,978.06317Z"/><path class="cls-8" d="M1394.412,977.51866c.15815.03406.31463.06894.47463.10211C1394.72671,977.58752,1394.57009,977.55272,1394.412,977.51866Z"/><path class="cls-8" d="M1396.01068,977.84315c.14.02635.283.051.42419.07666C1396.2937,977.89413,1396.15066,977.8695,1396.01068,977.84315Z"/><path class="cls-8" d="M1398.55642,978.271c.15768.02367.31476.04756.4737.07042C1398.87118,978.31857,1398.714,978.29468,1398.55642,978.271Z"/><path class="cls-8" d="M1400.14283,978.49236c.06309.00809.125.01706.18843.02508C1400.2679,978.50942,1400.20592,978.50045,1400.14283,978.49236Z"/><path class="cls-17" d="M1381.769,952.26936a2.12756,2.12756,0,0,1-1.414-3.71788c4.784-4.251,5.034-11.0177.59422-16.08846-4.33763-4.95559-6.00512-15.75009,1.13264-22.07459a2.12785,2.12785,0,0,1,2.8221,3.1854c-5.09984,4.51869-3.85264,12.5457-.75272,16.08609,5.95407,6.80117,5.53735,16.29029-.96939,22.07221A2.11951,2.11951,0,0,1,1381.769,952.26936Z"/><path class="cls-17" d="M1400.7128,952.26936a2.12756,2.12756,0,0,1-1.414-3.71788c4.784-4.251,5.034-11.0177.59422-16.08846-4.33762-4.955-6.00512-15.75009,1.132-22.074a2.12741,2.12741,0,0,1,2.8221,3.18421c-5.09985,4.51928-3.852,12.54629-.75213,16.08668,5.95407,6.80117,5.53735,16.29029-.96939,22.07221A2.11951,2.11951,0,0,1,1400.7128,952.26936Z"/><path class="cls-17" d="M1419.6566,952.26936a2.12756,2.12756,0,0,1-1.414-3.71788c4.784-4.251,5.034-11.0177.59422-16.08846-4.33763-4.955-6.00513-15.75009,1.132-22.074a2.12741,2.12741,0,1,1,2.8221,3.18421c-5.09984,4.51928-3.852,12.54629-.75212,16.08668,5.95407,6.80117,5.53734,16.29029-.9694,22.07221A2.11949,2.11949,0,0,1,1419.6566,952.26936Z"/><path class="cls-17" d="M1438.60041,952.26936a2.12756,2.12756,0,0,1-1.414-3.71788c4.784-4.251,5.034-11.0177.59422-16.08846-4.33763-4.955-6.00513-15.75009,1.132-22.074a2.12741,2.12741,0,1,1,2.8221,3.18421c-5.09984,4.51928-3.852,12.54629-.75212,16.08668,5.95407,6.80117,5.53734,16.29029-.96939,22.07221A2.11951,2.11951,0,0,1,1438.60041,952.26936Z"/></g><g id="Heart_Large" data-name="Heart Large"><path class="cls-15" d="M1390.17656,816.49755c-4.67628-3.71524-15.83435-9.66921-31.35484.58137V800.12481c0-11.92543-28.09479-21.593-62.75155-21.593-34.65665,0-62.75155,9.66753-62.75155,21.593V903.69515c0,11.92543,28.0949,21.593,62.75155,21.593,34.65676,0,62.75155-9.66754,62.75155-21.593v-6.52009a42.0252,42.0252,0,0,0,13.79775,2.53444,29.33328,29.33328,0,0,0,24.47033-12.92123C1410.68908,867.31554,1407.00659,829.8714,1390.17656,816.49755ZM1386.617,879.475c-5.89083,8.43773-15.22279,9.76187-27.79531,3.97262V833.54743c7.12185-7.05847,16.14909-12.81631,23.408-7.04934C1393.92053,835.78762,1396.38057,865.49434,1386.617,879.475Z"/><ellipse class="cls-16" cx="1296.07021" cy="805.87107" rx="44.51508" ry="10.61221"/><path class="cls-8" d="M1328.53565,812.06918c-.264.085-.52835.16985-.79784.25293C1328.0074,812.239,1328.27153,812.15416,1328.53565,812.06918Z"/><path class="cls-8" d="M1330.00758,811.57568c-.262.092-.52884.18221-.797.27209C1329.47884,811.75789,1329.74535,811.66768,1330.00758,811.57568Z"/><path class="cls-8" d="M1332.21807,810.743q-.784.31592-1.61379.61724Q1331.43336,811.05874,1332.21807,810.743Z"/><path class="cls-8" d="M1324.74937,813.16967c-.25646.06683-.5182.13143-.77874.19658C1324.23127,813.3011,1324.49291,813.2365,1324.74937,813.16967Z"/><path class="cls-8" d="M1326.93588,812.56112q-.57913.1704-1.17338.33457Q1326.3576,812.73164,1326.93588,812.56112Z"/><path class="cls-8" d="M1339.13962,807.05075c-.18912.13911-.38619.27666-.58615.41343C1338.75353,807.3273,1338.9504,807.18986,1339.13962,807.05075Z"/><path class="cls-8" d="M1338.24786,807.66955c-.20493.13521-.41225.27-.62753.40307C1337.83581,807.93952,1338.04293,807.80487,1338.24786,807.66955Z"/><path class="cls-8" d="M1333.32431,810.28039c-.25746.11182-.51432.22376-.78.33313C1332.81019,810.50415,1333.06665,810.39221,1333.32431,810.28039Z"/><path class="cls-8" d="M1337.33661,808.24246q-.69627.41815-1.4593.82083Q1336.64177,808.661,1337.33661,808.24246Z"/><path class="cls-8" d="M1340.58021,805.87553c-.36937.33813-.77566.67025-1.20691.99747C1339.80475,806.54567,1340.21084,806.21377,1340.58021,805.87553Z"/><path class="cls-8" d="M1334.538,809.73187q-.3659.17325-.74453.34315Q1334.17235,809.90528,1334.538,809.73187Z"/><path class="cls-8" d="M1335.69536,809.161c-.23836.12351-.48607.24469-.73378.36586C1335.20949,809.40566,1335.4569,809.28448,1335.69536,809.161Z"/><path class="cls-8" d="M1323.06614,813.58755q-.39291.09355-.791.18455Q1322.67374,813.68138,1323.06614,813.58755Z"/><path class="cls-8" d="M1308.34223,815.93c-.23865.02183-.47771.04366-.71786.06415C1307.86472,815.97364,1308.10348,815.95181,1308.34223,815.93Z"/><path class="cls-8" d="M1306.06042,816.11843c-.17758.013-.35366.02762-.53193.04C1305.70686,816.146,1305.88274,816.13135,1306.06042,816.11843Z"/><path class="cls-8" d="M1303.417,816.28816c-.16345.00869-.329.01537-.493.02339C1303.088,816.30342,1303.25344,816.29685,1303.417,816.28816Z"/><path class="cls-8" d="M1298.95772,816.45043c-.22165.00457-.4426.00992-.66514.01348C1298.51512,816.46035,1298.73607,816.455,1298.95772,816.45043Z"/><path class="cls-8" d="M1321.26005,813.99607c-.23846.05135-.47463.1038-.71587.15392C1320.78552,814.09987,1321.02149,814.04742,1321.26005,813.99607Z"/><path class="cls-8" d="M1301.242,816.38517c-.23468.0088-.47035.01637-.70612.02394C1300.77167,816.40154,1301.00724,816.394,1301.242,816.38517Z"/><path class="cls-8" d="M1318.85826,814.48356c-.21011.03954-.42489.07651-.63688.115C1318.43347,814.56007,1318.64815,814.5231,1318.85826,814.48356Z"/><path class="cls-8" d="M1317.00053,814.81378c-.25019.04233-.50278.0832-.75546.12408C1316.49775,814.897,1316.75024,814.85611,1317.00053,814.81378Z"/><path class="cls-8" d="M1310.41971,815.723c-.22055.02394-.44339.046-.66533.06894C1309.97632,815.769,1310.19916,815.747,1310.41971,815.723Z"/><path class="cls-8" d="M1315.03756,815.12563c-.237.03564-.47314.07162-.71189.10581C1314.56462,815.19725,1314.80059,815.16127,1315.03756,815.12563Z"/><path class="cls-8" d="M1312.65885,815.45764c-.0968.01236-.1917.02606-.2887.0382C1312.46725,815.4837,1312.56205,815.47,1312.65885,815.45764Z"/><path class="cls-8" d="M1269.07457,813.58766q.39276.09339.79048.18433Q1269.46678,813.68127,1269.07457,813.58766Z"/><path class="cls-8" d="M1258.81531,810.28017c.25786.11182.51472.22386.78083.33335C1259.33023,810.504,1259.07307,810.392,1258.81531,810.28017Z"/><path class="cls-8" d="M1262.13372,811.5759c.26174.09189.528.1821.796.27176C1262.66187,811.75789,1262.39526,811.66779,1262.13372,811.5759Z"/><path class="cls-8" d="M1259.92244,810.743q.78342.31559,1.612.61669Q1260.70656,811.05852,1259.92244,810.743Z"/><path class="cls-8" d="M1267.39164,813.1699c.256.06671.517.13108.777.196C1267.90874,813.301,1267.6475,813.23661,1267.39164,813.1699Z"/><path class="cls-8" d="M1263.60486,812.06918c.26413.085.52825.17.79794.25293C1264.13321,812.23914,1263.86889,812.15427,1263.60486,812.06918Z"/><path class="cls-8" d="M1265.20393,812.5609q.57869.17024,1.1722.33435Q1265.78177,812.7312,1265.20393,812.5609Z"/><path class="cls-8" d="M1253.00089,807.05075c.18912.13911.386.27655.58615.41343C1253.38708,807.32741,1253.18991,807.18986,1253.00089,807.05075Z"/><path class="cls-8" d="M1257.60173,809.73154q.36679.17342.74591.3437Q1257.96832,809.90517,1257.60173,809.73154Z"/><path class="cls-8" d="M1253.89245,807.66933c.20513.13554.41265.27042.62843.40373C1254.3052,807.93975,1254.09758,807.80487,1253.89245,807.66933Z"/><path class="cls-8" d="M1256.44515,809.161c.23856.12374.48627.24491.73438.36631C1256.93152,809.40588,1256.68371,809.28471,1256.44515,809.161Z"/><path class="cls-8" d="M1254.80171,808.24113q.69717.41882,1.46139.82216Q1255.49789,808.66035,1254.80171,808.24113Z"/><path class="cls-8" d="M1281.7211,815.723c.22015.02394.44249.04611.664.06883C1282.16369,815.769,1281.94115,815.747,1281.7211,815.723Z"/><path class="cls-8" d="M1286.08089,816.11843c.17727.01314.35286.02762.53083.04C1286.43375,816.146,1286.25807,816.13146,1286.08089,816.11843Z"/><path class="cls-8" d="M1283.79868,815.93c.23845.02194.47691.04355.71686.06415Q1284.15591,815.96323,1283.79868,815.93Z"/><path class="cls-8" d="M1288.72362,816.28816c.16315.00869.32839.01537.49224.02339C1289.052,816.30342,1288.88677,816.29685,1288.72362,816.28816Z"/><path class="cls-8" d="M1293.183,816.45043c.22155.00457.4423.00992.66454.01348C1293.62529,816.46035,1293.40444,816.455,1293.183,816.45043Z"/><path class="cls-8" d="M1290.89849,816.38517q.352.013.70563.02394C1291.36865,816.40154,1291.13307,816.394,1290.89849,816.38517Z"/><path class="cls-17" d="M1296.07016,785.62818c-26.255,0-47.539,5.46221-47.539,14.49663,0,2.40714,1.52326,4.69043,4.23653,6.74864-.43334-.32878-.84162-.66246-1.21248-1.00238,6.76158-6.19922,24.13747-10.61221,44.51493-10.61221,20.37755,0,37.75345,4.413,44.51513,10.61221,1.95024-1.788,3.024-3.72369,3.024-5.74626C1343.60933,791.09039,1322.3253,785.62818,1296.07016,785.62818Z"/><path class="cls-8" d="M1275.13978,814.81378c.25049.04233.50278.0832.75566.12408C1275.64266,814.897,1275.39007,814.85611,1275.13978,814.81378Z"/><path class="cls-8" d="M1270.88275,813.99652c.23737.05112.47224.10347.71239.15325C1271.35509,814.09987,1271.12,814.04764,1270.88275,813.99652Z"/><path class="cls-8" d="M1273.28225,814.48356c.21011.03954.42479.07651.63669.115C1273.707,814.56007,1273.49236,814.5231,1273.28225,814.48356Z"/><path class="cls-8" d="M1277.10325,815.12574c.23667.03553.47244.0714.711.1057C1277.57569,815.19714,1277.33982,815.16127,1277.10325,815.12574Z"/><path class="cls-8" d="M1279.48435,815.458c.0947.01214.18762.02561.28283.03764C1279.67207,815.48359,1279.57905,815.47012,1279.48435,815.458Z"/><path class="cls-17" d="M1251.90636,776.09887a3.19334,3.19334,0,0,1-2.12235-5.58031c7.18054-6.38043,7.55565-16.5369.89189-24.14779-6.51051-7.438-9.01332-23.63992,1.7-33.1326a3.19378,3.19378,0,0,1,4.2358,4.78109c-7.65456,6.78226-5.78257,18.83032-1.12979,24.14422,8.9367,10.20815,8.31122,24.45073-1.455,33.129A3.18128,3.18128,0,0,1,1251.90636,776.09887Z"/><path class="cls-17" d="M1280.33985,776.09887a3.19335,3.19335,0,0,1-2.12236-5.58031c7.18054-6.38043,7.55565-16.5369.89189-24.14779-6.51051-7.43715-9.01332-23.63992,1.69913-33.13171a3.19311,3.19311,0,0,1,4.2358,4.77931c-7.65455,6.78315-5.78168,18.83121-1.12889,24.14511,8.93669,10.20815,8.31121,24.45073-1.455,33.129A3.18126,3.18126,0,0,1,1280.33985,776.09887Z"/><path class="cls-17" d="M1308.77333,776.09887a3.19334,3.19334,0,0,1-2.12235-5.58031c7.18054-6.38043,7.55565-16.5369.89188-24.14779-6.51051-7.43715-9.01332-23.63992,1.69913-33.13171a3.19311,3.19311,0,1,1,4.2358,4.77931c-7.65455,6.78315-5.78168,18.83121-1.12889,24.14511,8.93669,10.20815,8.31122,24.45073-1.455,33.129A3.18126,3.18126,0,0,1,1308.77333,776.09887Z"/><path class="cls-17" d="M1337.20681,776.09887a3.19334,3.19334,0,0,1-2.12235-5.58031c7.18054-6.38043,7.55565-16.5369.89189-24.14779-6.51052-7.43715-9.01332-23.63992,1.69913-33.13171a3.19311,3.19311,0,1,1,4.23579,4.77931c-7.65455,6.78315-5.78167,18.83121-1.12889,24.14511,8.9367,10.20815,8.31122,24.45073-1.455,33.129A3.18124,3.18124,0,0,1,1337.20681,776.09887Z"/></g></svg>