<svg id="root_icon" xmlns="http://www.w3.org/2000/svg" viewBox="0 0 2049 2049"><defs><style>.cls-1{fill:#fff;}</style></defs><rect id="root_icon_background" width="2049" height="2049"/><path id="root_icon_c" class="cls-1" d="M267.08347,1053.45566q0-50.65817,16.10066-87.63732,16.05156-37.01189,44.21136-61.13015,28.17615-24.151,65.548-35.801a269.10946,269.10946,0,0,1,80.04514-11.65007,417.87084,417.87084,0,0,1,54.29064,3.59974A347.85109,347.85109,0,0,1,584.777,874.12312l-15.28253,57.13771c-17.70418-6.47954-33.93574-10.60288-48.662-12.50092a362.06408,362.06408,0,0,0-44.63679-2.81434,190.70842,190.70842,0,0,0-54.68333,7.65763,117.98108,117.98108,0,0,0-44.63679,24.151q-18.89863,16.49337-30.17237,42.60785c-7.494,17.40965-11.25737,38.4845-11.25737,63.09363q0,35.44108,10.472,60.73745,10.40652,25.32909,29.35425,41.82244c12.56637,10.99557,27.75073,19.1768,45.42218,24.54369q26.55627,8.05033,58.7085,8.05033a415.97854,415.97854,0,0,0,49.48008-2.81434c15.80613-1.89805,33.08489-6.02139,51.869-12.50092l9.65385,55.50146a291.39765,291.39765,0,0,1-57.105,14.92256,417.00528,417.00528,0,0,1-62.73366,4.38514q-45.06222,0-82.43407-12.43547-37.40457-12.46819-64.33718-36.58646-26.949-24.151-41.82245-60.73744Q267.09983,1101.72491,267.08347,1053.45566Z"/><path id="root_icon_d" class="cls-1" d="M908.0664,693.15433,974.82523,681.897v546.89881c-14.46441,4.31968-32.98671,8.57392-55.50146,12.89361q-33.77211,6.38136-78.80159,6.41409-40.25166,0-73.20564-13.679a157.06006,157.06006,0,0,1-56.28686-39.0081q-23.31649-25.32909-36.19376-61.52284Q661.975,1097.7652,661.975,1052.67027q0-43.39325,10.86467-79.1943,10.84831-35.83379,31.7759-61.52284a149.07055,149.07055,0,0,1,50.26547-40.25165q29.30517-14.43169,67.15153-14.46441,29.74695,0,52.26169,7.26493c15.02074,4.84328,26.27811,9.88292,33.77211,15.24981Zm0,251.78551q-11.241-10.5047-32.954-19.7004a113.17,113.17,0,0,0-45.06221-9.29387c-17.67145,0-32.82309,3.53429-45.42218,10.472a88.037,88.037,0,0,0-30.95777,28.53613q-12.0755,18.16231-17.70418,43.45868a248.94994,248.94994,0,0,0-5.62869,54.25792q0,65.188,30.56507,100.53094,30.53235,35.44109,79.61973,35.40836,24.93637,0,42.21514-2.42165c11.51917-1.63624,19.9622-3.207,25.32908-4.84328Z"/><path id="root_icon_solidus" class="cls-1" d="M1557.91779,1372h-68.36235l224.362-694.88087h66.75883Z"/></svg>