<svg id="gnarwhal_download" xmlns="http://www.w3.org/2000/svg" viewBox="0 0 2049 2049"><defs><style>.cls-1{fill:#fff;}</style></defs><rect id="gnarwhal_download_background" width="2049" height="2049"/><path id="gnarwhal_download_arrow" class="cls-1" d="M1938.42576,1813.71781l-76.0178,76.01778V1693.7962a16.35918,16.35918,0,0,0-16.35918-16.35918h-11.24934a16.35917,16.35917,0,0,0-16.35918,16.35918v196.14108l-76.21949-76.21948a16.35918,16.35918,0,0,0-23.13537,0l-7.95449,7.95449a16.35918,16.35918,0,0,0,0,23.13536l98.1025,98.10251L1840.32326,1974l31.08986-31.08983,98.10249-98.10251a16.35918,16.35918,0,0,0,0-23.13536l-7.95448-7.95449A16.35917,16.35917,0,0,0,1938.42576,1813.71781Z" transform="translate(0 -1)"/></svg>