<svg xmlns="http://www.w3.org/2000/svg" xmlns:xlink="http://www.w3.org/1999/xlink" viewBox="0 0 2048 2048"><defs><style>.cls-1{fill:#000b1e;}.cls-2{fill:#e1e1e1;}.cls-3{fill:url(#radial-gradient);}.cls-4{fill:#afafaf;}.cls-5{fill:#1e1e1e;}.cls-6{fill:#0f0f0f;}.cls-7{fill:#fff;}.cls-8{fill:#ffa3e3;}.cls-9{fill:#eb71c7;}.cls-10{fill:#7fed1f;}.cls-11,.cls-12,.cls-13{fill:none;stroke-linecap:round;stroke-miterlimit:10;}.cls-11{stroke:#eb71c7;stroke-width:5px;}.cls-12{stroke:#000;}.cls-12,.cls-13{stroke-width:7px;}.cls-13{stroke:#646464;}</style><radialGradient id="radial-gradient" cx="1255.16809" cy="794.21722" r="793.52487" gradientUnits="userSpaceOnUse"><stop offset="0" stop-color="#afbee1" stop-opacity="0.5"/><stop offset="1" stop-color="#afbee1" stop-opacity="0"/></radialGradient></defs><g id="Sky"><rect class="cls-1" width="2048" height="2048"/><rect class="cls-2" x="404.62142" y="541.59937" width="20.99895" height="20.99895"/><rect class="cls-2" x="296.50052" y="371.89568" width="20.99895" height="20.99895"/><rect class="cls-2" x="50.50052" y="177.8331" width="20.99895" height="20.99895"/><rect class="cls-2" x="261.96808" y="218.03029" width="20.99895" height="20.99895"/><rect class="cls-2" x="1898.43807" y="53.39387" width="20.99895" height="20.99895"/><rect class="cls-2" x="512.85413" y="74.39282" width="20.99895" height="20.99895"/><rect class="cls-2" x="1392.50052" y="63.89335" width="20.99895" height="20.99895"/><rect class="cls-2" x="71.49948" y="510.63074" width="20.99895" height="20.99895"/><rect class="cls-2" x="552.50052" y="390.0414" width="20.99895" height="20.99895"/><rect class="cls-2" x="667.22282" y="562.59832" width="20.99895" height="20.99895"/><rect class="cls-2" x="229.22282" y="944.59832" width="20.99895" height="20.99895"/><rect class="cls-2" x="197.22282" y="700.68642" width="20.99895" height="20.99895"/><rect class="cls-2" x="50.50052" y="1577.935" width="20.99895" height="20.99895"/><rect class="cls-2" x="186.72334" y="1706.71489" width="20.99895" height="20.99895"/><rect class="cls-2" x="404.62142" y="1892.21331" width="20.99895" height="20.99895"/><rect class="cls-2" x="122.62142" y="1235.18137" width="20.99895" height="20.99895"/><rect class="cls-2" x="383.62247" y="1322.21331" width="20.99895" height="20.99895"/><rect class="cls-2" x="478.85814" y="1738.21331" width="20.99895" height="20.99895"/><rect class="cls-2" x="844.98498" y="1717.21436" width="20.99895" height="20.99895"/><rect class="cls-2" x="816.05645" y="1871.21436" width="20.99895" height="20.99895"/><rect class="cls-2" x="1188.05645" y="1738.21331" width="20.99895" height="20.99895"/><rect class="cls-2" x="1338.05645" y="1871.21436" width="20.99895" height="20.99895"/><rect class="cls-2" x="1763.12001" y="1902.71279" width="20.99895" height="20.99895"/><rect class="cls-2" x="1921.12001" y="1677.67069" width="20.99895" height="20.99895"/><rect class="cls-2" x="1631.75997" y="188.33257" width="20.99895" height="20.99895"/><rect class="cls-2" x="1931.61948" y="494.81793" width="20.99895" height="20.99895"/><rect class="cls-2" x="1877.43912" y="239.02924" width="20.99895" height="20.99895"/><rect class="cls-2" x="1454.00105" y="1235.18137" width="20.99895" height="20.99895"/><rect class="cls-2" x="1525.50052" y="1069.08981" width="20.99895" height="20.99895"/><rect class="cls-2" x="1856.44017" y="769.51819" width="20.99895" height="20.99895"/><rect class="cls-2" x="1112.847" y="167.33362" width="20.99895" height="20.99895"/><rect class="cls-2" x="757.69305" y="111.33085" width="20.99895" height="20.99895"/><rect class="cls-2" x="1198.55592" y="824.75227" width="20.99895" height="20.99895"/><rect class="cls-2" x="1013.50052" y="544.81287" width="20.99895" height="20.99895"/><rect class="cls-2" x="1788.26445" y="1153.34843" width="20.99895" height="20.99895"/><rect class="cls-2" x="1680.42658" y="1634" width="20.99895" height="20.99895"/><rect class="cls-2" x="1069.50052" y="361.3962" width="20.99895" height="20.99895"/><path class="cls-3" d="M2048,239.35425A871.0179,871.0179,0,0,0,1807.26172,0H849.98486C616.35114,155.163,462.33618,420.66431,462.33618,722.14734c0,478.43713,387.84986,866.28711,866.28711,866.28711,299.6936,0,563.83521-152.18933,719.37671-383.494Z"/><circle class="cls-2" cx="1328.62328" cy="722.14736" r="464.38136"/><path class="cls-4" d="M969.71986,447.28871S948.75488,554.443,952.482,587.52111s11.66913,61.49726,8.39695,75.9398-3.73807,44.2594,8.84092,40.0664,16.772-31.68041,24.69208-24.69208a260.932,260.932,0,0,0,27.48742,20.965c11.64721,7.9201,26.55563-12.579,34.00985,6.98832s11.64721,53.57716,0,58.70194-21.43087-6.05655-34.47574,20.0332,4.65888,72.67858,29.351,69.41736,39.60051-33.07807,38.20284-51.7136,3.72711-31.68041,23.76031-32.1463,34.00985,13.04487,30.74863,28.88508-13.97665,54.50894-23.76031,57.77016-42.86173,33.07807-27.48741,42.39584,37.27107,17.23787,48.45239,3.26122,6.05655-30.28275,19.10142-34.00986,39.13463,34.47574,51.71361,28.88508,49.85006-14.90842,58.70194-32.61218-5.59066-25.62386-4.193-40.0664,25.158-20.965,31.68041-35.87341,4.193-22.82853-9.78365-16.30609-9.31777-10.24954-5.12477-24.2262-12.579-29.351-7.45422-45.65706,54.50894-15.8402,65.69026-20.0332,6.52244-54.50894,16.3061-65.22437,28.41919-9.78366,46.12294-2.79533,19.10143,47.9865,32.1463,42.39584,32.61219-6.05655,41.93-25.62386-16.772-58.70193-37.27107-66.622-25.158-1.86355-50.31595,4.193-32.1463-12.579-25.62386-25.62386,60.56549-27.9533,70.815-37.27107,45.65706-13.04487,35.40752,13.51076,21.89675,61.49727,43.32762,71.28092,27.9533,20.965,47.9865,16.3061c-17.70376,11.18132-42.86173,36.80518-46.123,53.11127s-2.79533,83.85991,39.13463,93.17768c-8.85188,13.97665-22.82853,27.02152-34.00986,38.20284s24.2262,34.47574,27.48742,48.91828-7.9201,41.46407.46589,59.63371,37.737,20.965,47.05472.93178,17.23787-27.9533-3.7271-46.58884-19.10143-53.57716-11.18133-72.21269,24.69209-42.39585,40.99818-26.08975,34.00985,30.28274,27.9533,55.44071-14.44254,58.236-12.11309,69.41737,31.68041,10.24954,30.74863,20.965-24.2262,23.29442-30.74863,32.1463-13.04488,24.69208,3.26122,26.08974,33.07807-20.965,39.60051-32.14629,22.36264-12.579,23.7603-25.62386,4.65889-35.40752,19.56732-48.4524,6.52243-57.77015,0-75.47391-19.10143-46.123-22.36265-59.63371-29.351-36.3393-33.07807-54.97483,17.70376-27.48742,6.05655-46.58884-13.51076-6.05655-30.74863,1.39767-31.21453,3.7271-29.81686-22.36265,17.70376-42.86173,3.72711-61.49726-32.61219-61.96316-61.03138-72.2127-53.11128-9.78366-70.815,9.78366-10.71544-9.31777-6.52244-21.89676-17.70376-54.50894-31.21452-67.08792-57.30427-51.24772-103.89311-51.24772-56.83838-7.45422-68.0197-4.193-25.62386,7.9201-41.93,25.158-11.18132,18.16965-39.60051,29.81686-1.86355-46.84215,3.26122-55.80032,28.41919-6.16283,43.32762-15.4806,75.47392-1.39767,78.73514-11.18132-82.46225-11.64721-94.57534-8.85188-34.00986,2.32944-16.3061-8.85188c-20.0332-1.86356-84.86182,11.24067-169.58337,82.92813C991.15072,407.6882,969.71986,447.28871,969.71986,447.28871Z"/><path class="cls-4" d="M1721.19781,673.71046c.4819,14.457,9.31776,55.9066,25.158,59.16782s24.69208-19.10142,27.02152-43.32762-12.579-62.89493-26.08975-61.49726S1719.80014,631.7805,1721.19781,673.71046Z"/></g><g id="Body"><path class="cls-5" d="M1680.42658,1441.83523c-12.5-8.17391-61-56.67391-68-81.17391s-22-15-23.5,0-9.5,67.76018,23,125.38009C1644.92658,1474.16132,1680.42658,1441.83523,1680.42658,1441.83523Z"/><path class="cls-6" d="M1596.89138,1452.2584a193.40906,193.40906,0,0,0,15.0352,33.783c33-11.88009,68.5-44.20618,68.5-44.20618-3.47886-2.27487-28.03986,3.11869-35.42491-4.01651C1632.37294,1440.29192,1617.5,1450.625,1596.89138,1452.2584Z"/><path class="cls-5" d="M961.51038,1308.38894c-15.52161,45.37085-149.24634,290.13489-214.91474,309.23841-65.66839,19.10364-293.06866,23.11645-365.35516,16.0979-75.61814-7.342-113.82523-11.72-92.33374-39.18128S565.51,1508.9761,581.03168,1498.23025c15.5216-10.74572,73.39758-170.88965,93.32873-194.02026Z"/><path class="cls-6" d="M288.90674,1594.544c-21.49149,27.46131,16.7156,31.83924,92.33374,39.18128,72.2865,7.01855,299.68677,3.00574,365.35516-16.0979,65.6684-19.10352,199.39313-263.86756,214.91474-309.23841l-287.15-4.17895c-15.34606,17.8095-53.1869,116.84441-76.86991,166.372C627.5,1521.7222,691.331,1567.7222,699.9155,1572.2222s25.92006,25.2939,11.96421,27.5C607.5,1616.2222,256.5,1634.2222,288.90674,1594.544Z"/><path class="cls-5" d="M523.3536,1159.78829c0,310.83046,163.972,528.38194,800.75658,528.38194,283.95537,0,402.08339-199.962,399.177-235.1128-2.60492-31.50455-44.55395-36.786-65.66841-22.98394-135.68236,88.69242-403.55489,79.4673-403.55489-285.40883,0-361.77323-271.03143-389.23456-356.99734-389.23456C637.97482,755.4301,523.3536,906.26844,523.3536,1159.78829Z"/><path class="cls-6" d="M1723.28711,1453.05737a29.8057,29.8057,0,0,0-6.93433-17.23095c2.64722,13.84021-1.78637,32.61731-34.01953,67.17358-68.74292,73.69739-253.41418,164.5072-627.6936,86.45068,5.89477-5.27819,8.98437-12.11718,6.0271-19.784-9-23.33338-156.33789-207.151-156.33789-207.151-.98809,7.79589,52.02018,126.08606,84.06761,191.44791a12.0013,12.0013,0,0,1-13.73229,16.91681q-4.60633-1.17348-9.24841-2.38034C530.83142,1455.5,531,1073.24951,533.24634,1040.683c-6.6427,36.637-9.89276,76.41541-9.89276,119.10535,0,310.83032,163.972,528.38184,800.75653,528.38184C1608.06555,1688.17017,1726.1936,1488.20825,1723.28711,1453.05737Z"/><path class="cls-6" d="M1191.47893,1358.3367C1212,1364.42657,1281,1537,1290.33333,1546.66667s178.245,44.263,199.18439,55.01915S1459.66667,1634,1459.66667,1634l-297-91Z"/><path class="cls-5" d="M904.32889,1362.51559c4.11023,25.14573,149.24638,290.135,214.91479,309.2385s293.06865,23.11645,365.35514,16.09787c75.61816-7.34208,113.82524-11.72,92.33376-39.18131s-276.60329-85.56792-292.12492-96.31366-69.28893-173.34492-93.32873-194.02029S900.21866,1337.36987,904.32889,1362.51559Z"/><path class="cls-6" d="M1576.93258,1648.67065c21.49148,27.46134-16.7156,31.83923-92.33376,39.18131-72.28649,7.01858-299.68673,3.00567-365.35514-16.09787-34.53671-10.047-91.054-88.10557-137.47676-163.51654,43.89975,57.65131,100.59279,125.65131,141.5796,137.65131S1604.86516,1695.45245,1576.93258,1648.67065Z"/><path class="cls-5" d="M1711.92658,1441.83523c35.91667,10.07609,118.41667,8.24276,140,2.32609,20.71257-5.678,28.5,10.5,24.5,18s-71.5,111-236,65.5C1646.92658,1490.16132,1711.92658,1441.83523,1711.92658,1441.83523Z"/><path class="cls-6" d="M1872.69355,1447.47806c4.66358,4.30442,5.85158,10.711,3.733,14.68326-3.9358,7.37963-69.34964,107.70243-228.15428,67.57666a7.96068,7.96068,0,0,1-5.50182-10.52848c5.49935-14.74811,18.14363-30.43113,31.13754-43.79434C1658.83333,1499.33333,1655.93644,1510.324,1659,1515c2.375,3.625,40.83333,18.5,94.83333,10.16667S1850.125,1494.625,1873.5,1461.5C1877.071,1456.43947,1875.05376,1452.28945,1872.69355,1447.47806Z"/></g><g id="Horn"><path class="cls-7" d="M912.47288,740.81714c-7.211,44.34094-66.40529,62.77581-77.90593,116.78868,26.22167,9.03507,63.23269,11.75095,91.53646.79732C931.83834,838.72352,921.855,750.88629,912.47288,740.81714Z"/><path class="cls-7" d="M885.78975,510.63074"/><path class="cls-7" d="M898.387,619.30255c-6.15157,45.60078-48.27378,74.69154-63.28628,106.58344s-6.97849,115.70245-.53372,131.71983c11.50064-54.01287,70.69489-72.44774,77.90593-116.78868S898.387,619.30255,898.387,619.30255Z"/><path class="cls-7" d="M885.78975,510.63074c-5.91,46.76609-35.27495,46.47388-50.18247,90.22685s-6.14492,111.7128-.50661,125.0284c15.0125-31.8919,57.13471-60.98266,63.28628-106.58344S885.78975,510.63074,885.78975,510.63074Z"/><path class="cls-7" d="M874.09885,409.77722c-6.68854,47.70226-28.65561,51.10514-38.04035,79.72076s-13.41883,75.71556-.45122,111.35961c14.90752-43.753,44.2725-43.46076,50.18247-90.22685S883.09167,425.80079,874.09885,409.77722Z"/><path class="cls-7" d="M862.7163,311.58378c-2.59044,34.65128-19.61832,48.97881-26.22382,70.81137s-9.50177,71.74154-.434,107.10283c9.38474-28.61562,31.35181-32.0185,38.04035-79.72076S862.7163,311.58378,862.7163,311.58378Z"/><path class="cls-7" d="M853.706,233.85516c-3.16438,35.04611-10.4371,46.04026-16.86994,63.741s-7.50054,63.35458-.3436,84.79895c6.6055-21.83256,23.63338-36.16009,26.22382-70.81137S860.30531,250.3959,853.706,233.85516Z"/><path class="cls-7" d="M844.98026,158.581c-.14186,16.77853-1.65873,27.57963-7.79335,52.43188s-10.525,60.30062-.35083,86.58337c6.43284-17.70078,13.70556-28.69493,16.86994-63.741S849.62721,167.10246,844.98026,158.581Z"/><path class="cls-7" d="M837.65539,95.39177c1.40909,3.71563,1.7511,26.96133-.1486,36.67388-1.78946,9.149-7.083,34.47681-.31988,78.94718,6.13462-24.85225,7.65149-35.65335,7.79335-52.43188S842.05178,108.342,837.65539,95.39177Z"/><path class="cls-7" d="M837.65539,95.39177c-2.17161,11.58334-1.5715,31.17052-.1486,36.67388C839.40649,122.3531,839.06448,99.1074,837.65539,95.39177Z"/><path class="cls-2" d="M907.18046,863.58484a101.49212,101.49212,0,0,0,18.923-5.1817c1.51062-5.18371,1.93067-15.09643,1.55835-27.07116C926.06412,838.84882,909.48429,862.25837,907.18046,863.58484Z"/><path class="cls-2" d="M885.78975,510.63074"/><path class="cls-2" d="M913.96218,720.49478a131.04429,131.04429,0,0,1-1.4893,20.32236c-7.211,44.34094-66.40529,62.77581-77.90593,116.78868-1.44048-3.58006-2.96035-10.54688-4.28453-19.56376C831.93912,816.03632,900.23523,768.32823,913.96218,720.49478Z"/><path class="cls-2" d="M830.69382,706.81451c1.38392,8.96264,2.99354,15.73376,4.40685,19.07148,15.0125-31.8919,57.13471-60.98266,63.28628-106.58344a148.43476,148.43476,0,0,0,1.23215-18.445C884.43912,661.16132,838.07351,681.0927,830.69382,706.81451Z"/><path class="cls-2" d="M830.281,581.15825a126.86333,126.86333,0,0,0,5.3263,19.69934c14.90752-43.753,44.2725-43.46076,50.18247-90.22685q1.03272-8.172,1.49671-15.96857C875.68912,532.16132,831.62283,566.40517,830.281,581.15825Z"/><path class="cls-2" d="M875.50366,392.82993a155.99927,155.99927,0,0,1-1.40481,16.94729c-6.68854,47.70226-28.65561,51.10514-38.04035,79.72076-1.2755-4.974-2.31428-10.23589-3.13931-15.667C835.68912,452.28632,857.19319,456.74853,875.50366,392.82993Z"/><path class="cls-2" d="M863.37282,297.59548q-.12393,6.7534-.65652,13.9883c-2.59044,34.65128-19.61832,48.97881-26.22382,70.81137a85.90466,85.90466,0,0,1-3.25969-14.84806C837.93912,337.53632,853.43151,339.52963,863.37282,297.59548Z"/><path class="cls-2" d="M854.45964,219.32828c-.06961,4.73954-.30878,9.60021-.75362,14.52688-3.16438,35.04611-10.4371,46.04026-16.86994,63.741a82.38324,82.38324,0,0,1-3.91913-13.74476C833.84322,273.078,846.73016,263.41191,854.45964,219.32828Z"/><path class="cls-2" d="M844.58274,144.65336c.29009,5.23193.43048,10.02988.39752,13.92759-.14186,16.77853-1.65873,27.57963-7.79335,52.43188-.85989-5.65409-1.52487-10.99873-2.02693-16.04C838.50162,171.53632,839.16385,187.3954,844.58274,144.65336Z"/><path class="cls-2" d="M836.38792,121.83032"/><path class="cls-2" d="M836.38792,121.83032a59.5624,59.5624,0,0,0,1.11887,10.23533c1.8997-9.71255,1.55769-32.95825.1486-36.67388C837.85579,109.24465,836.25338,115.166,836.38792,121.83032Z"/></g><g id="Hotdog"><path class="cls-8" d="M987.98779,284.19586c-18.29614-38.556-51.04248-28.34961-74.09973-9.072-39.9928,33.43689-80.65527,36.31371-115.21545-31.19769-18.13456-35.42485-90.868-17.18238-80.087,39.44122,8.915,46.8233,46.26245,108.34137,114.80774,112.99835,5.61218-6.14416,37.1687-6.03,42.104-2.14514C963.19385,381.15155,1004.31458,318.60144,987.98779,284.19586Z"/><path class="cls-9" d="M987.98779,284.19586c3.22118,42.9702-52.06458,84.58975-112.4037,93.4721-7.71306,1.13542-13.94253-.20963-21.70909-.20963-5.74058,0-12.79186,1.66-18.03236,1.11834-77.508-8.01052-101.50308-72.02468-106.99578-96.34968-3.59814-15.93457-2.09436-28.064,2.53931-43.19775-10.45343,9.57147-16.57758,24.50085-12.8006,44.33813,8.915,46.8233,46.26245,108.34137,114.80774,112.99835,5.61218-6.14416,37.1687-6.03,42.104-2.14514C963.19385,381.15155,1004.31458,318.60144,987.98779,284.19586Z"/></g><g id="Face"><path class="cls-10" d="M666.194,1002.98509c-3.00675,51.97584,57.33334,99.63007,128.66667,64.57019C792.194,995.21473,719.58233,982.05042,666.194,1002.98509Z"/><path class="cls-10" d="M1056.65151,1011.78109c-.886,52.0552-64.61872,95.06673-133.13242,54.77389C931.58457,994.616,1004.977,986.91506,1056.65151,1011.78109Z"/><path class="cls-8" d="M889.33594,1196.48951c-10.171,1.61395-21.3042-7.86871-28.13962-25.81008-3.44633,17.98878-13.6845,25.72408-24.27981,25.24692.66043,27.13359,6.81123,39.585,24.15675,39.24838S888.01746,1220.61265,889.33594,1196.48951Z"/><line class="cls-11" x1="862.04304" y1="1175.67645" x2="862.04304" y2="1210.83333"/><path class="cls-12" d="M790.70582,1175.548c14.845,31.46374,59.92348,34.97723,70.002-5.76017,16.47407,36.98632,52.60761,42.498,67.08152-.17494"/><path class="cls-8" d="M837.32767,1133.19558c-3.585,11.28562,24.36785,33.78378,24.36785,33.78378s29.09726-23.55348,27.482-33.06994S839.96141,1124.90455,837.32767,1133.19558Z"/><path class="cls-13" d="M757.86679,1131.85805c-75.7641-12.02846-259.47009-17.18454-279.36679-15.60528"/><path class="cls-13" d="M747.66667,1148.05011c-84.63874-6.36881-288.41417,1.37051-310.35552,4.27275"/><path class="cls-13" d="M757.78012,1163.903c-76.47841-1.26083-259.34512,19.50959-278.922,23.88069"/><path class="cls-13" d="M968.16872,1135.00006c75.7641-12.02845,259.4701-17.18454,279.36679-15.60527"/><path class="cls-13" d="M978.36885,1151.19213c84.63873-6.36881,288.41416,1.3705,310.35551,4.27275"/><path class="cls-13" d="M968.25539,1167.045c76.47841-1.26084,259.34512,19.50958,278.922,23.88068"/></g><g id="Ears"><polygon class="cls-5" points="972.969 842.009 1144.606 699.444 1135.726 922.834 972.969 842.009"/><polygon class="cls-8" points="997.574 854.228 1114.6 761.069 1108.743 909.434 997.574 854.228"/><path class="cls-9" d="M1018.90686,864.82206l-21.33237-10.5936,117.02558-93.15928-.66479,16.8389S1028.945,845.41191,1018.90686,864.82206Z"/><polyline class="cls-6" points="1144.606 699.444 1162.202 876.899 1135.726 922.834"/><polygon class="cls-5" points="600.08 912.63 642.761 699.444 768.193 839.592 600.08 912.63"/><polygon class="cls-8" points="622.634 902.831 654.372 746.081 748.137 848.305 622.634 902.831"/><path class="cls-9" d="M646.71081,892.37066l-24.07632,10.46017L654.37181,746.081l12.851,14.01027S644.62184,862.99132,646.71081,892.37066Z"/><polygon class="cls-6" points="642.761 699.444 770.55 809.5 768.193 839.592 642.761 699.444"/></g></svg>