<svg xmlns="http://www.w3.org/2000/svg" viewBox="0 0 2048 2048"><defs><style>.cls-1{fill:#7ce0f7;}.cls-2{fill:#f5f5f5;}.cls-3{fill:#e1e1e1;}.cls-28,.cls-4,.cls-5{fill:none;stroke-linecap:round;stroke-width:5px;}.cls-4{stroke:#fff;stroke-miterlimit:10;}.cls-5{stroke:#afafaf;}.cls-28,.cls-5{stroke-linejoin:round;}.cls-6{fill:#ffbee3;}.cls-7{fill:#f2a4d1;}.cls-8{fill:#ffdbdb;}.cls-9{fill:#fff;}.cls-10{fill:#ffeddb;}.cls-11{fill:#ffffdb;}.cls-12{fill:#edffdb;}.cls-13{fill:#dbffdb;}.cls-14{fill:#dbffed;}.cls-15{fill:#dbffff;}.cls-16{fill:#dbedff;}.cls-17{fill:#dbdbff;}.cls-18{fill:#f2c2c2;}.cls-19{fill:#eed8bf;}.cls-20{fill:#e6e6b8;}.cls-21{fill:#d4ebbc;}.cls-22{fill:#c2f2c2;}.cls-23{fill:#c2f2db;}.cls-24{fill:#c2f2f2;}.cls-25{fill:#c4def5;}.cls-26{fill:#c8c8fa;}.cls-27{fill:#231f20;}.cls-28{stroke:#231f20;}.cls-29{fill:#da70ab;}.cls-30{fill:#ff8fd0;}.cls-31{fill:#95f0b1;}.cls-32{fill:#f2d983;}.cls-33{fill:#97adf7;}.cls-34{fill:#ffb082;}</style></defs><g id="Background"><rect class="cls-1" width="2048" height="2048"/></g><g id="Body"><path class="cls-2" d="M961.51038,1308.38894c-15.52161,45.37085-149.24634,290.13489-214.91474,309.23841-65.66839,19.10364-293.06866,23.11645-365.35516,16.0979-75.61814-7.342-113.82523-11.72-92.33374-39.18128S565.51,1508.9761,581.03168,1498.23025c15.5216-10.74572,73.39758-170.88965,93.32873-194.02026Z"/><path class="cls-3" d="M288.90674,1594.544c-21.49149,27.46131,16.7156,31.83924,92.33374,39.18128,72.2865,7.01855,299.68677,3.00574,365.35516-16.0979,65.6684-19.10352,199.39313-263.86756,214.91474-309.23841l-287.15-4.17895c-15.34606,17.8095-53.1869,116.84441-76.86991,166.372C627.5,1521.7222,691.331,1567.7222,699.9155,1572.2222s25.92006,25.2939,11.96421,27.5C607.5,1616.2222,256.5,1634.2222,288.90674,1594.544Z"/><path class="cls-2" d="M523.3536,1159.78829c0,310.83046,163.972,528.38194,800.75658,528.38194,283.95537,0,402.08339-199.962,399.177-235.1128-2.60492-31.50455-44.55395-36.786-65.66841-22.98394-135.68236,88.69242-403.55489,79.4673-403.55489-285.40883,0-361.77323-271.03143-389.23456-356.99734-389.23456C637.97482,755.4301,523.3536,906.26844,523.3536,1159.78829Z"/><path class="cls-3" d="M1723.28711,1453.05737a29.8057,29.8057,0,0,0-6.93433-17.23095c2.64722,13.84021-1.78637,32.61731-34.01953,67.17358-68.74292,73.69739-253.41418,164.5072-627.6936,86.45068,5.89477-5.27819,8.98437-12.11718,6.0271-19.784-9-23.33338-156.33789-207.151-156.33789-207.151-.98809,7.79589,52.02018,126.08606,84.06761,191.44791a12.0013,12.0013,0,0,1-13.73229,16.91681q-4.60633-1.17348-9.24841-2.38034C530.83142,1455.5,531,1073.24951,533.24634,1040.683c-6.6427,36.637-9.89276,76.41541-9.89276,119.10535,0,310.83032,163.972,528.38184,800.75653,528.38184C1608.06555,1688.17017,1726.1936,1488.20825,1723.28711,1453.05737Z"/><path class="cls-3" d="M1191.47893,1358.3367C1212,1364.42657,1281,1537,1290.33333,1546.66667s178.245,44.263,199.18439,55.01915S1459.66667,1634,1459.66667,1634l-297-91Z"/><path class="cls-2" d="M904.32889,1362.51559c4.11023,25.14573,149.24638,290.135,214.91479,309.2385s293.06865,23.11645,365.35514,16.09787c75.61816-7.34208,113.82524-11.72,92.33376-39.18131s-276.60329-85.56792-292.12492-96.31366-69.28893-173.34492-93.32873-194.02029S900.21866,1337.36987,904.32889,1362.51559Z"/><path class="cls-3" d="M1576.93258,1648.67065c21.49148,27.46134-16.7156,31.83923-92.33376,39.18131-72.28649,7.01858-299.68673,3.00567-365.35514-16.09787-34.53671-10.047-91.054-88.10557-137.47676-163.51654,43.89975,57.65131,100.59279,125.65131,141.5796,137.65131S1604.86516,1695.45245,1576.93258,1648.67065Z"/><path class="cls-4" d="M1282.3196,1137"/><path class="cls-4" d="M961.51038,1132.58333"/></g><g id="Bunny"><path class="cls-5" d="M757.86679,1131.85805c-75.7641-12.02846-259.47009-17.18454-279.36679-15.60528"/><path class="cls-5" d="M747.66667,1148.05011c-84.63874-6.36881-288.41417,1.37051-310.35552,4.27275"/><path class="cls-5" d="M757.78012,1163.903c-76.47841-1.26083-259.34512,19.50959-278.922,23.88069"/><path class="cls-5" d="M950.71309,1131.85805c75.7641-12.02846,259.4701-17.18454,279.36679-15.60528"/><path class="cls-5" d="M960.91322,1148.05011c84.63873-6.36881,288.41416,1.37051,310.35551,4.27275"/><path class="cls-5" d="M950.79976,1163.903c76.47841-1.26083,259.34512,19.50959,278.922,23.88069"/><path class="cls-2" d="M1703.83655,1472.99719c.72332,34.82424,57.03959,37.6974,51.69818,3.60921,21.375,30.46379,51.65688.8368,32.16353-27.471,31.4587,6.87448,41.78248-40.53481,6.01718-47.56514,30.7225-20.58434,8.9432-57.08947-20.53549-44.65091,11.87273-32.30641-33.30713-49.81522-46.63192-15.40284-2.65244-33.32951-54.1279-22.6499-48.34531,9.21477-28.54431-22.32447-53.71343,15.31275-27.83625,40.188-24.29774,1.201-24.62168,42.76677-10.62709,45.62814S1703.83655,1472.99719,1703.83655,1472.99719Z"/><path class="cls-3" d="M1807.643,1370.84306c2.90548,9.66856-.48644,21.72154-13.92753,30.72719,35.7653,7.03033,25.44152,54.43962-6.01718,47.56514,19.49335,28.30781-10.7885,57.9348-32.16353,27.471,5.34141,34.08819-50.97486,31.215-51.69818-3.60921,15.27417,26.85588,44.06318,27.9298,47.53431-7.66134,19.63813,13.94074,38.703,19.60293,27.789-21.78676,28.72688-.63785,38.80514-22.24132,4.3081-42.09628C1797.69807,1392.47173,1805.83516,1384.20544,1807.643,1370.84306Z"/><path class="cls-2" d="M1000.04512,822.05051C998.99176,770.3006,1107.849,449.6762,1183.44428,379.92633s-3.02381,355.69024-84.66673,467.53208C1040.31719,847.45841,1026.80264,840.732,1000.04512,822.05051Z"/><path class="cls-6" d="M1181.5,439.85258c-19,0-137.36621,290.54157-161.36621,393.5,0,0,1.65,1.44153,4.37671,3.57074,12.285,5.69306,26.13012,8.79444,48.96142,9.97211v-.00006C1138.5,710.34734,1200.5,439.85258,1181.5,439.85258Z"/><path class="cls-7" d="M1029.473,839.04346c-1.69273-.66259-3.34122-1.36879-4.96254-2.12014-2.72669-2.12921-4.37671-3.57074-4.37671-3.57074,24-102.95843,142.36621-393.5,161.36621-393.5,4.56175,0,4.45432,15.59249.75682,41.18.31006-16.50805,1.392-30.80778-2.63182-32.24252C1169.45833,445.16508,1048.44609,742.23434,1029.473,839.04346Z"/><path class="cls-2" d="M686.1578,527C651.09462,513.79765,365,660.33333,385,694.33333S569.77116,678,614.35265,648.2235L653.8226,844.92635c57.46475,10.74319,71.98525,6.61491,101.72015-6.83126C755.54275,838.09509,745.25,549.25,686.1578,527Z"/><path class="cls-3" d="M699.375,582.125S678,599.75,610.75,641,426.375,709.25,385,694.33333c20,34,184.77116-16.33333,229.35265-46.10983l1.48658,7.40854C624.93748,650.5,696.56248,588.5,699.375,582.125Z"/><path class="cls-6" d="M681.54651,849.37982c22.64746,2.83289,36.611,1.93524,50.01819-1.91931l-.00012-.00214c-1.72492-19.83337-20.95566-226.54214-36.99039-259.761-7.13342,6.52234-37.73044,32.49014-58.19852,46.10916C638.5,659.24982,674.85614,829.66815,681.54651,849.37982Z"/><path class="cls-7" d="M694.56769,587.70325c-6.39,5.84149-31.5271,27.21655-51.40613,41.40851q-1.60053,1.14267-3.15369,2.222c-.15161.10516-.30011.20654-.45086.31067-1.08142.74695-2.14734,1.47406-3.18134,2.16211.03.35937.06842.75427.11243,1.173.02447.23438.05469.49317.08337.74518.02008.17542.03882.34509.06092.52887.04223.35376.08959.72913.13909,1.11365.01026.0794.02033.158.03089.23858.05847.44812.12134.91443.18915,1.40174v.00006h0c5.2586,37.78564,38.21673,191.69806,44.555,210.37225q3.701.4629,7.10327.794c-6.05365-27.95069-40.02008-184.97888-44.69373-217.03876C662.523,617.3667,684.86682,597.53534,694.56769,587.70325Z"/></g><g id="Horn"><path class="cls-8" d="M912.47288,740.81714c-7.211,44.34094-66.40529,62.77581-77.90593,116.78868,26.22167,9.03507,63.23269,11.75095,91.53646.79732C931.83834,838.72352,921.855,750.88629,912.47288,740.81714Z"/><path class="cls-9" d="M885.78975,510.63074"/><path class="cls-10" d="M898.387,619.30255c-6.15157,45.60078-48.27378,74.69154-63.28628,106.58344s-6.97849,115.70245-.53372,131.71983c11.50064-54.01287,70.69489-72.44774,77.90593-116.78868S898.387,619.30255,898.387,619.30255Z"/><path class="cls-11" d="M885.78975,510.63074c-5.91,46.76609-35.27495,46.47388-50.18247,90.22685s-6.14492,111.7128-.50661,125.0284c15.0125-31.8919,57.13471-60.98266,63.28628-106.58344S885.78975,510.63074,885.78975,510.63074Z"/><path class="cls-12" d="M874.09885,409.77722c-6.68854,47.70226-28.65561,51.10514-38.04035,79.72076s-13.41883,75.71556-.45122,111.35961c14.90752-43.753,44.2725-43.46076,50.18247-90.22685S883.09167,425.80079,874.09885,409.77722Z"/><path class="cls-13" d="M862.7163,311.58378c-2.59044,34.65128-19.61832,48.97881-26.22382,70.81137s-9.50177,71.74154-.434,107.10283c9.38474-28.61562,31.35181-32.0185,38.04035-79.72076S862.7163,311.58378,862.7163,311.58378Z"/><path class="cls-14" d="M853.706,233.85516c-3.16438,35.04611-10.4371,46.04026-16.86994,63.741s-7.50054,63.35458-.3436,84.79895c6.6055-21.83256,23.63338-36.16009,26.22382-70.81137S860.30531,250.3959,853.706,233.85516Z"/><path class="cls-15" d="M844.98026,158.581c-.14186,16.77853-1.65873,27.57963-7.79335,52.43188s-10.525,60.30062-.35083,86.58337c6.43284-17.70078,13.70556-28.69493,16.86994-63.741S849.62721,167.10246,844.98026,158.581Z"/><path class="cls-16" d="M837.65539,95.39177c1.40909,3.71563,1.7511,26.96133-.1486,36.67388-1.78946,9.149-7.083,34.47681-.31988,78.94718,6.13462-24.85225,7.65149-35.65335,7.79335-52.43188S842.05178,108.342,837.65539,95.39177Z"/><path class="cls-17" d="M837.65539,95.39177c-2.17161,11.58334-1.5715,31.17052-.1486,36.67388C839.40649,122.3531,839.06448,99.1074,837.65539,95.39177Z"/><path class="cls-18" d="M907.18046,863.58484a101.49212,101.49212,0,0,0,18.923-5.1817c1.51062-5.18371,1.93067-15.09643,1.55835-27.07116C926.06412,838.84882,909.48429,862.25837,907.18046,863.58484Z"/><path class="cls-3" d="M885.78975,510.63074"/><path class="cls-19" d="M913.96218,720.49478a131.04429,131.04429,0,0,1-1.4893,20.32236c-7.211,44.34094-66.40529,62.77581-77.90593,116.78868-1.44048-3.58006-2.96035-10.54688-4.28453-19.56376C831.93912,816.03632,900.23523,768.32823,913.96218,720.49478Z"/><path class="cls-20" d="M830.69382,706.81451c1.38392,8.96264,2.99354,15.73376,4.40685,19.07148,15.0125-31.8919,57.13471-60.98266,63.28628-106.58344a148.43476,148.43476,0,0,0,1.23215-18.445C884.43912,661.16132,838.07351,681.0927,830.69382,706.81451Z"/><path class="cls-21" d="M830.281,581.15825a126.86333,126.86333,0,0,0,5.3263,19.69934c14.90752-43.753,44.2725-43.46076,50.18247-90.22685q1.03272-8.172,1.49671-15.96857C875.68912,532.16132,831.62283,566.40517,830.281,581.15825Z"/><path class="cls-22" d="M875.50366,392.82993a155.99927,155.99927,0,0,1-1.40481,16.94729c-6.68854,47.70226-28.65561,51.10514-38.04035,79.72076-1.2755-4.974-2.31428-10.23589-3.13931-15.667C835.68912,452.28632,857.19319,456.74853,875.50366,392.82993Z"/><path class="cls-23" d="M863.37282,297.59548q-.12393,6.7534-.65652,13.9883c-2.59044,34.65128-19.61832,48.97881-26.22382,70.81137a85.90466,85.90466,0,0,1-3.25969-14.84806C837.93912,337.53632,853.43151,339.52963,863.37282,297.59548Z"/><path class="cls-24" d="M854.45964,219.32828c-.06961,4.73954-.30878,9.60021-.75362,14.52688-3.16438,35.04611-10.4371,46.04026-16.86994,63.741a82.38324,82.38324,0,0,1-3.91913-13.74476C833.84322,273.078,846.73016,263.41191,854.45964,219.32828Z"/><path class="cls-25" d="M844.58274,144.65336c.29009,5.23193.43048,10.02988.39752,13.92759-.14186,16.77853-1.65873,27.57963-7.79335,52.43188-.85989-5.65409-1.52487-10.99873-2.02693-16.04C838.50162,171.53632,839.16385,187.3954,844.58274,144.65336Z"/><path class="cls-3" d="M836.38792,121.83032"/><path class="cls-26" d="M836.38792,121.83032a59.5624,59.5624,0,0,0,1.11887,10.23533c1.8997-9.71255,1.55769-32.95825.1486-36.67388C837.85579,109.24465,836.25338,115.166,836.38792,121.83032Z"/></g><g id="Face"><path class="cls-27" d="M673.4291,1000.57351c-12.68771,12.68771-30.17464,57.33182-4.82794,68.19469s27.76067-1.207,43.45148-3.01746,30.77814,6.03492,45.262,4.22445,32.58862-59.1423,13.88034-69.40168S697.56881,976.43379,673.4291,1000.57351Z"/><path class="cls-9" d="M710.42205,991.37748c-15.7834,4.85643-11.20088,24.26857,0,28.9356s14.93451,8.40066,22.40176-10.26747S722.55634,987.64385,710.42205,991.37748Z"/><path class="cls-9" d="M692.33854,1007.09308c-2.42284.71293-4.22445,5.55028-1.81048,6.35494s7.64424,1.60932,6.83959-1.40815S696.16066,1005.96841,692.33854,1007.09308Z"/><path class="cls-9" d="M698.57463,1017.069c-1.99162,1.37882-1.00582,2.61513,0,3.82212s3.01747,1.60931,3.621,0-.20116-2.61514-.80466-3.82212S701.18977,1015.2585,698.57463,1017.069Z"/><path class="cls-27" d="M941.46687,1014.34958c-6.3139,11.48139,5.22549,55.63257,22.12807,55.63257,22.28006,0,21.83265-8.65739,41.28319-8.65739,11.2939,0,22.004,11.37131,40.7052,6.59191,21.46177-5.4849,18.06405-48.50937-.53823-62.89182-13.91667-10.75975-31.03482-10.9242-51.37136-11.124C968.5385,993.654,947.5018,1003.37548,941.46687,1014.34958Z"/><path class="cls-9" d="M984.84162,998.814c-12.24445,8.689-9.92327,14.957-4.05952,20.74865s15.43872,7.8882,19.39548,4.3523c3.60846-3.22465,9.47221-10.6671,7.21693-19.2372S988.0763,996.51856,984.84162,998.814Z"/><path class="cls-9" d="M1014.69067,1008.8282c-3.56442.66833-5.23027,6.03493-2.61513,8.4489s7.8454,1.60932,8.04657-1.60931S1017.9093,1008.22471,1014.69067,1008.8282Z"/><path class="cls-9" d="M1007.89669,1019.69108c-1.84938,1.02363-2.36838,4.41345,0,4.62069s4.17885.81074,4.17885-.99974S1009.35043,1018.88642,1007.89669,1019.69108Z"/><path class="cls-28" d="M795.18246,1179.581c11.82772,33.63508,59.83234,26.05905,59.83234-28.88418,0,44.77768,37.74635,68.43312,60.66256,33.31957"/><path class="cls-29" d="M855.0148,1150.69678c-19.54417,0-50.09336-18.83422-40.89733-31.99207,4.5443-6.50207,24.09113.59145,41.31244,1.06977,17.62844.48963,35.66042-6.36278,39.34856-1.92559C902.06957,1126.62079,873.54111,1150.69678,855.0148,1150.69678Z"/></g><g id="Heart_Small" data-name="Heart Small"><path class="cls-2" d="M1317.43915,1044.4167c-16.41115,0-27.43587,26.31247-27.43587,50.6458,0,15.16667,12.93266,27.312,27.43587,27.312s27.43588-12.14534,27.43588-27.312C1344.875,1070.72917,1333.8503,1044.4167,1317.43915,1044.4167Z"/><path class="cls-3" d="M1339.43745,1111.17136a27.81207,27.81207,0,0,1-21.9983,11.20315c-14.50321,0-27.43587-12.14534-27.43587-27.312C1296.5,1115.97527,1318.25,1126.66667,1339.43745,1111.17136Z"/><path class="cls-30" d="M1344.81885,1092.2c-.08277-2.36865-.26782-4.74365-.54834-7.1029l-4.333-5.40955-7.0625,12.5625-8.3125-8.85449L1315.25,1094.375l-7.75-11.5-8.852,8.95874-3.46045-11.02124s-.00024.00012-4.438,3.13013c-.355,2.67932-.583,5.38574-.68286,8.08349l3.37085-2.46362L1297.375,1102l8.9375-8.125,8.9375,10.5,9.75-10.4375,9.3125,9,6.4375-14.625S1340.75049,1088.31287,1344.81885,1092.2Z"/><polygon class="cls-31" points="1301.083 1070.875 1304.458 1066.938 1305.458 1071.75 1302.333 1076.125 1301.083 1070.875"/><polygon class="cls-31" points="1329.314 1072.563 1330.189 1066.938 1333.564 1071.531 1332.503 1076.938 1329.314 1072.563"/></g><g id="Heart_Medium" data-name="Heart Medium"><path class="cls-2" d="M1383.18914,935.3014c-22.18422,0-37.08719,35.56859-37.08719,68.46183,0,20.502,17.48207,36.91975,37.08719,36.91975s37.08719-16.4178,37.08719-36.91975C1420.27633,970.87,1405.37335,935.3014,1383.18914,935.3014Z"/><path class="cls-32" d="M1420.20038,999.8937c-.11188-3.20189-.362-6.41236-.74123-9.60154l-5.85726-7.3125-9.54693,16.9817-11.23665-11.9693-12.58842,14.84182-10.47627-15.54544-11.966,12.11023-4.67776-14.89827s-.00033.00017-5.99917,4.23124c-.47985,3.62184-.7881,7.28032-.92308,10.92708l4.55664-3.33027,5.32262,16.81273,12.08151-10.98319,12.08151,14.19366,13.17983-14.10917,12.58842,12.166,8.70207-19.76974S1414.70087,994.63923,1420.20038,999.8937Z"/><polygon class="cls-33" points="1361.08 971.067 1365.642 965.744 1366.994 972.25 1362.769 978.164 1361.08 971.067"/><polygon class="cls-33" points="1399.241 973.348 1400.424 965.744 1404.987 971.954 1403.552 979.262 1399.241 973.348"/><path class="cls-3" d="M1412.93079,1025.53882A37.59574,37.59574,0,0,1,1383.194,1040.683c-19.60512,0-37.08719-16.4178-37.08719-36.91975C1354.88893,1032.03263,1384.29008,1046.485,1412.93079,1025.53882Z"/></g><g id="Heart_Large" data-name="Heart Large"><path class="cls-2" d="M1293.18914,800.36236c-30.97442,0-51.78249,49.66217-51.78249,95.58892,0,28.62558,24.40911,51.54872,51.78249,51.54872s51.78249-22.92314,51.78249-51.54872C1344.97163,850.02453,1324.16355,800.36236,1293.18914,800.36236Z"/><path class="cls-31" d="M1344.86559,890.54851c-.1562-4.4706-.50548-8.95318-1.03493-13.406l-8.17813-10.21L1322.32277,890.643l-15.689-16.712-17.57642,20.72271L1274.43,872.94859l-16.70737,16.90873-6.53125-20.8015s-.00046.00023-8.37626,5.90781c-.67,5.057-1.10037,10.16505-1.28884,15.25679l6.36215-4.64984,7.43164,23.47455L1272.18868,893.71l16.86865,19.8177,18.40216-19.69974,17.57641,16.98661,12.15015-27.60324S1337.187,883.212,1344.86559,890.54851Z"/><polygon class="cls-34" points="1262.319 850.3 1268.689 842.868 1270.577 851.951 1264.678 860.209 1262.319 850.3"/><polygon class="cls-34" points="1315.602 853.485 1317.253 842.868 1323.623 851.538 1321.621 861.742 1315.602 853.485"/><path class="cls-3" d="M1334.70873,926.35516c-9.65267,12.84623-25.04957,21.14484-41.51959,21.14484-27.37338,0-51.78249-22.92314-51.78249-51.54872C1253.66856,935.42206,1294.71953,955.601,1334.70873,926.35516Z"/></g></svg>