<svg xmlns="http://www.w3.org/2000/svg" viewBox="0 0 2048 2048"><defs><style>.cls-1{fill:#eb5252;}.cls-2{fill:#eb884b;}.cls-3{fill:#ebdb4b;}.cls-4{fill:#50eb9d;}.cls-5{fill:#4ec3eb;}.cls-6{fill:#eb75dd;}.cls-7{fill:#525252;}.cls-8{fill:#333;}.cls-9{fill:#6be3ff;}.cls-10{fill:#6b6b6b;}.cls-11{fill:#ff99f3;}.cls-12{fill:#fff;}.cls-13{fill:#54c6de;}.cls-14{fill:#e1e1e1;}.cls-15{fill:#ee4c66;}.cls-16{fill:#e1324b;}.cls-17{fill:#141213;}.cls-18{fill:#530e20;}.cls-19{fill:#da70ab;}.cls-20{fill:#ee758b;}</style></defs><g id="Background"><rect width="2048" height="2048"/></g><g id="Pride"><rect class="cls-1" y="435.69116" width="2048" height="132.34481"/><rect class="cls-2" y="568.03597" width="2048" height="132.34481"/><rect class="cls-3" y="700.38077" width="2048" height="132.34481"/><rect class="cls-4" y="832.72558" width="2048" height="132.34481"/><rect class="cls-5" y="965.07039" width="2048" height="132.34481"/><rect class="cls-6" y="1097.41519" width="2048" height="132.34481"/></g><g id="BLM"><g id="layer1"><path id="path4176" d="M1292.75521,964.77945c-.16-.16-.29093-59.66294-.29093-132.22878V700.61283h511.45917V965.07039H1548.48481c-140.49125,0-255.56956-.13094-255.72958-.29094Zm117.8858-31.217c.6846-.68459.75192-29.21875.0719-30.4893-.43831-.819-1.17261-.84409-24.65653-.84409h-24.20476V718.48363l-1.1194-.42561c-1.54844-.58872-30.97151-.56474-32.07559.02609-.831.44478-.84411,2.11464-.84411,107.80451V933.24138l.9819.39466c1.59006.63914,81.20543.56748,81.84656-.07367Zm48.03657.25095,1.36374-.27273v-215.37l-.9819-.26315c-1.66415-.446-30.72916-.309-31.93779.15053l-1.1194.42561V933.24146l.98188.39466c1.10215.443,29.56861.60223,31.69345.17724Zm93.01681-.6a5.98432,5.98432,0,0,0,.4186-2.40018c.005-1.7931.85437-8.86987,1.99024-16.58317.35348-2.40018.63814-4.95312.63263-5.67317a54.50988,54.50988,0,0,1,.63056-5.455c.59738-3.86637,1.77024-13.2548,2.15347-17.23774.2043-2.12334.99585-8.42837,1.61621-12.87376.25122-1.80015.64765-4.94223.88093-6.98236s.70934-6.06594,1.05789-8.94619.83732-7.20059,1.08619-9.60077.64468-5.30645.87958-6.45834a22.57684,22.57684,0,0,0,.42707-3.64994c0-.85556.28785-3.5461.63967-5.979s.93508-6.78,1.29614-9.66023.87785-6.906,1.14835-8.9462.65226-5.28043.84828-7.20058c.42107-4.12424,1.095-9.59635,1.96161-15.92856.34493-2.52019.73517-5.56409.86719-6.76416.39712-3.60969,1.472-12.7444,2.18245-18.54693.36733-3.00022.85514-7.22241,1.08407-9.38258s.60977-5.10584.84636-6.546c.56351-3.43044,1.27358-9.37626,1.78844-14.97584a38.35638,38.35638,0,0,1,.62479-4.8434,41.86862,41.86862,0,0,0,.65784-5.05916c.32381-3.41728.31322-4.87931-.03833-5.30287-.3895-.46933-3.59906-.58353-16.25139-.57818-8.67131.00377-15.98125.151-16.24431.32731-.691.46317-1.05353,2.22121-1.776,8.61219-.64872,5.73837-1.31448,11.493-2.52435,21.81995-.36556,3.12027-.85581,7.53879-1.08945,9.819s-.62142,5.61863-.86174,7.41878c-.83124,6.22663-1.41626,11.14347-1.76547,14.83756-.19285,2.04016-.562,5.18221-.82032,6.98235s-.77874,6.0223-1.15649,9.38258-.97445,8.1001-1.326,10.533a64.47992,64.47992,0,0,0-.64986,6.546,22.44207,22.44207,0,0,1-.46475,4.08633c-.24973,1.0801-.63535,3.9276-.85689,6.32778s-.68373,6.72052-1.027,9.60077c-1.11058,9.31669-2.01512,17.356-2.45508,21.81991-.23657,2.40019-.62477,5.18737-.86263,6.19373a22.56807,22.56807,0,0,0-.44774,4.14579,42.73644,42.73644,0,0,1-.646,5.80723,41.09089,41.09089,0,0,0-.63937,5.50451,28.62492,28.62492,0,0,1-.46373,4.364c-.25033,1.29287-.627,4.282-.837,6.64251a25.174,25.174,0,0,1-.64312,4.55307c-.69637.69638-1.18275-1.0736-1.593-5.79718a47.14676,47.14676,0,0,0-.66753-5.52887,36.56331,36.56331,0,0,1-.60284-4.8272c-.39505-4.59252-.88012-8.57493-1.98743-16.3167a65.14418,65.14418,0,0,1-.64338-6.546,22.21044,22.21044,0,0,0-.45053-4.03032c-.24192-1.04932-.63225-3.89681-.86741-6.32779s-.70777-6.77652-1.05024-9.65677c-.82646-6.95048-1.85268-16.05067-2.38681-21.16533-.23811-2.28018-.63032-5.61864-.87155-7.41878-1.10154-8.22-1.48052-11.38587-1.77613-14.83756-.17472-2.04016-.55231-5.4768-.83909-7.637-.89078-6.71009-1.77821-13.88666-1.94271-15.71036-.25423-2.81867-1.14922-10.21046-1.66443-13.74656-.26228-1.80015-.6413-5.04042-.84225-7.20059s-.64724-6.28413-.99175-9.16438-.93338-8.08429-1.30861-11.56457-.68806-6.36285-.6952-6.40572a6.62339,6.62339,0,0,0-.69872-.76369c-.59823-.59827-2.708-.68579-16.5297-.68579-12.14894,0-15.94682.1272-16.28507.5455-.43381.53645-.02069,8.05264.52163,9.49169a44.97532,44.97532,0,0,1,.67542,5.01856c.23578,2.40018.73642,6.81874,1.11253,9.819,1.44915,11.55976,3.18017,26.0849,3.69072,30.96921.2124,2.03185.5852,4.87934.82848,6.32778.48484,2.88672,1.322,9.63233,1.7892,14.41626.16408,1.68014.53784,4.82219.8306,6.98236s.82208,6.28414,1.17627,9.16439.856,6.70962,1.11507,8.50977.63662,4.844.83891,6.7642c.35841,3.40147,1.152,10.10493,2.40242,20.29254.33878,2.7602.81253,6.88417,1.05276,9.16438s.6294,5.324.86478,6.76417c.49019,2.999,1.35564,9.97653,1.59675,12.87376.17685,2.12514,1.22188,10.4437,1.9736,15.71036.25694,1.80014.62609,4.844.82034,6.76416.45255,4.47333,1.18953,10.23691,1.98341,15.51118a56.28129,56.28129,0,0,1,.62688,6.11248,15.20335,15.20335,0,0,0,.43937,3.47213,40.82788,40.82788,0,0,1,.72479,5.8496c.22276,3.37533.46375,4.50343,1.0975,5.13714.77732.77731,1.99785.807,28.52995.69349,24.07582-.103,27.77224-.20461,28.13155-.77316Zm114.98168-15.05575V902.44721l-24.43832-.21819-24.43833-.21819-.11211-30.00242-.11212-30.00238H1637.463c12.87464,0,20.18549-.1593,20.732-.45174.80984-.43342.8441-1.07125.8441-15.71036,0-8.39223-.04908-15.3028-.10908-15.35688s-9.33893-.20133-20.61984-.32731l-20.51073-.229v-60.223l24.55287-.11274,24.55287-.11273-.11451-15.81582-.1145-15.81582-39.93045-.12408c-21.96179-.06824-40.56872-.01009-41.34876.12889l-1.41831.25295V825.84705c0,102.24087.039,107.74892.76369,107.9394.42.11035,19.027.1739,41.34876.1411l40.58507-.05965V918.15754Zm75.06055,15.51342a76.24765,76.24765,0,0,0,10.03715-1.77436,51.68348,51.68348,0,0,0,12.65387-5.35664,35.62191,35.62191,0,0,0,14.17144-17.5468,66.79234,66.79234,0,0,0,2.48505-8.50978c.65754-2.79823.77039-5.52029.778-18.76515.00758-13.67636-.08753-15.90134-.81423-18.98335-1.6858-7.14959-4.27881-13.95382-6.81855-17.89235a20.71981,20.71981,0,0,1-1.13864-1.9638c-.82935-1.844-6.03265-8.14529-9.92831-12.02328-4.11084-4.09217-12.78258-11.10582-13.73139-11.10582a.65823.65823,0,0,1-.56659-.32731,35.92614,35.92614,0,0,0-4.002-2.90265c-7.76749-5.187-17.5241-14.16735-21.10326-19.42412a16.82111,16.82111,0,0,0-1.98782-2.58431.85.85,0,0,1-.3273-.73251,2.07838,2.07838,0,0,0-.5455-1.1704,25.8936,25.8936,0,0,1-2.71036-5.37038c-1.461-3.47486-1.69661-5.48088-1.85861-15.82417-.15865-10.13137-.1232-10.7047.82342-13.31018.99123-2.72845,4.41594-6.86519,5.68853-6.8712a5.78679,5.78679,0,0,0,1.87547-.74441c1.05543-.59795,2.50152-.74548,7.4608-.761,3.885-.01262,6.37732.15954,6.76417.46606a5.31637,5.31637,0,0,0,1.70358.749c1.47738.357,4.20541,2.67595,5.4171,4.60484,1.43185,2.27944,2.43806,7.34677,2.43806,12.27826,0,3.48541.126,4.3121.69029,4.52864,1.10266.42314,31.75673.29247,32.43716-.13825.5131-.32481.56713-1.87008.32423-9.26677-.31491-9.59011-1.27839-15.40045-3.35339-20.22337a36.57676,36.57676,0,0,0-8.18285-12.59256c-2.06187-2.14119-9.39051-7.26355-10.39213-7.26355a7.06113,7.06113,0,0,1-1.99629-.72844c-3.23984-1.62352-2.42015-1.378-10.1816-3.04906a88.604,88.604,0,0,0-21.62573-1.13044c-6.44233.48195-10.92659,1.10631-13.27566,1.84849-7.50741,2.37193-9.22635,3.11849-13.55308,5.88628a48.88168,48.88168,0,0,0-8.728,8.08312,41.13956,41.13956,0,0,0-3.69513,5.94109,9.5282,9.5282,0,0,1-.5953,1.63c-3.35012,7.73839-3.9607,12.1053-3.97544,28.43186-.01135,13.02232.24332,17.01266,1.35291,21.16534a74.50105,74.50105,0,0,0,2.41835,7.85516c.57991,1.14165,2.10871,4.74367,2.10871,4.96837a79.72471,79.72471,0,0,0,5.31392,8.59575c.64245.82043,1.93555,2.47355,2.87355,3.67366a80.52334,80.52334,0,0,0,10.57768,10.33347c1.32012,1.03072,2.62946,2.07307,2.90966,2.31628s1.816,1.32593,3.413,2.406c4.07485,2.756,11.61037,8.12228,12.70221,9.04569.50289.4253,1.82193,1.52457,2.93125,2.44283a81.347,81.347,0,0,1,12.79362,13.82261c1.7331,2.52027,4.5261,7.93718,4.5261,8.77816a1.76918,1.76918,0,0,0,.3952,1.06263c.81034.85009,1.52237,6.75231,1.682,13.94293.29121,13.11665-1.50328,17.71311-8.14752,20.86863-1.77774.84428-2.71486.9497-8.33084.93712-6.29068-.01413-6.34244-.02233-8.82549-1.40668-2.4921-1.3894-4.26649-2.84935-4.26649-3.51043a1.65628,1.65628,0,0,0-.49989-.849c-1.33232-1.33231-2.11853-5.11943-2.11853-10.20492a39.58115,39.58115,0,0,0-.26487-5.799c-.235-.61235-2.1009-.69029-16.52971-.69029-13.78928,0-16.346.09776-16.798.64253-.3962.47737-.47106,2.58035-.29132,8.18247.40039,12.47867,1.24137,16.30874,5.43508,24.75331a25.82949,25.82949,0,0,0,5.75615,7.90655,48.26279,48.26279,0,0,0,5.67317,5.063c2.50787,1.632,7.512,4.07431,8.34789,4.07431a1.71971,1.71971,0,0,1,1.05651.41137c.7225.71692,8.18054,2.39033,13.50654,3.03051a137.02811,137.02811,0,0,0,19.638.07051Z"/><path id="path4178" d="M1293.79764,535.47592l.10345-101.0952,27.29944-.11336c17.67344-.07339,28.52984.04186,30.78885.32689,1.91918.24215,4.50543.53263,5.74725.64553a68.11326,68.11326,0,0,1,15.59969,4.36507,36.61523,36.61523,0,0,1,14.08074,11.76129c2.82256,4.25189,3.884,6.77758,6.05966,14.41921.38806,1.363.56657,7.56465.68084,23.65319.14622,20.58518.1101,21.97552-.64506,24.83634a26.98594,26.98594,0,0,1-4.35176,9.18371c-1.34212,1.75679-4.7653,5.11759-5.22425,5.12905a1.96227,1.96227,0,0,0-.8306.559c-1.06241,1.06243-5.71683,3.57755-8.12749,4.39186-2.96686,1.00221-4.29367,1.5741-4.40132,1.897-.12776.38327.67816.8315,5.82774,3.24121,9.04492,4.23253,14.80766,10.495,17.19864,18.6902.95894,3.28674,1.00883,43.0501.0579,46.18458a14.81749,14.81749,0,0,0-.62445,3.0415,18.46239,18.46239,0,0,1-1.06232,3.89992c-.57707,1.5805-1.15946,3.2431-1.29422,3.69468a35.3957,35.3957,0,0,1-3.94422,6.56828c-1.60783,2.14765-6.73651,7.15289-7.82613,7.63778a18.67733,18.67733,0,0,0-2.08435,1.18835,20.04134,20.04134,0,0,1-2.05259,1.186,55.10548,55.10548,0,0,1-16.626,5.07943c-1.74756.23575-16.34811.48134-33.76593.56908l-30.687.15458.10346-101.0952Zm54.9076,72.1836c6.80782-1.23694,9.96882-3.83171,11.72761-9.62682.84715-2.7913.84983-34.73005.00356-37.98051-1.17251-4.50156-3.81212-7.32653-8.53838-9.138-2.23631-.85712-22.648-1.35468-24.08233-.58706l-.86765.46431v28.22919c0,21.40869.119,28.34822.49262,28.72181.71668.71668,17.21815.6523,21.26483-.08293Zm3.07888-87.4377c3.838-1.59963,6.26863-3.48909,7.44451-5.787,1.64869-3.2218,1.79215-5.01293,1.79215-22.37636,0-18.33284-.1732-20.0479-2.31648-22.93866-1.286-1.73454-3.86416-4.13516-4.45707-4.15018a6.04012,6.04012,0,0,1-1.64207-.70287c-1.04907-.58985-2.89238-.71693-12.43967-.85761-6.16446-.09083-11.66028-.05167-12.21291.087l-1.0048.25219v28.29752c0,26.50623.04547,28.32579.71841,28.744.48855.30367,4.199.3937,11.59713.2814C1348.21968,520.9354,1350.43222,520.78528,1351.78412,520.22182Z"/><path id="path4180" d="M1411.20579,535.47078l.10346-101.09006H1427.73l17.44715-.00048V607.83385h50.08257v28.58267h-84.15732Z"/><path id="path4182" d="M1529.81229,434.52736s14.0224-.29849,29.48868-.2446l28.12049.098,1.40978,10.46967c.36163,3.21477.64382,5.4238,2.33319,18.26659.32672,2.48363.76717,5.99356.97883,7.79984s.56727,4.39255.79027,5.74726c.38421,2.33427.89964,6.28227,1.66149,12.72606.18686,1.5805.53776,4.16675.77984,5.74725s.72412,5.04392,1.07126,7.69651.91478,6.99382,1.26145,9.64717.89892,6.41045,1.22724,8.3491a44.16578,44.16578,0,0,1,.607,5.13148,18.29277,18.29277,0,0,0,.40138,3.30149c.21525.93215.58111,3.426.81308,5.542s.694,5.87924,1.02676,8.36286.78252,5.99356.99943,7.79985c.46485,3.87053,1.13611,8.722,1.76084,12.72606.2466,1.58048.51558,3.61255.59773,4.51569s.41781,3.58177.74591,5.95252.88669,6.52723,1.24136,9.23666.84092,6.21934,1.08053,7.79984.58154,4.16676.75986,5.74724c.49308,4.37136,1.23433,9.98191,1.68129,12.72607.37977,2.3315.69266,4.8359,1.61573,12.9313.21883,1.91917.56883,4.22835.77778,5.13147a48.72449,48.72449,0,0,1,.66673,5.2341l.28682,3.44775H1580.648l-7.0653-43.13739h-29.58335c-1.08962,1.54369-.88107,3.33241-1.11312,4.89825-.26,1.80628-.6723,4.30016-.9163,5.542s-.58012,3.45861-.747,4.92622c-.28607,2.51568-.63473,4.664-1.6989,10.46821-.24837,1.35472-.60214,3.75624-.7861,5.33674-.44812,3.84958-1.462,10.54886-1.79886,11.61008l-34.04839.35592Zm40.08595,129.83808c.58415-.37042.38643-5.66208-.36253-9.70294-.20923-1.12892-.567-3.99231-.79486-6.363s-.70041-6.712-1.04994-9.64716c-2.33061-19.57166-2.88569-24.387-3.43073-29.76256-.24037-2.37073-.61362-5.41883-.82937-6.77354-.48962-3.07372-1.2918-9.69285-1.66674-13.75236-.72438-7.84313-2.34108-19.08591-2.89177-20.10958-.25479-.47363-.38129-.38188-.5659.41052-.27988,1.2013-.95215,6.89166-1.43,12.10448-.18628,2.03206-.54233,5.08016-.79117,6.77355-.62771,4.27111-1.29944,9.78968-1.724,14.16287-.19728,2.03206-.552,4.68972-.78835,5.9059a25.75908,25.75908,0,0,0-.42965,4.02111,54.49725,54.49725,0,0,1-.59233,5.79385c-.57922,3.896-1.62894,12.4159-2.08409,16.91532-.21532,2.12856-.43751,4.03411-2.05842,17.65226-.36278,3.04809-.80073,6.74276-.97321,8.21037a11.53458,11.53458,0,0,0,.01875,3.592l.3323.92365,10.78626-.00594a103.09174,103.09174,0,0,0,11.32584-.34846h0Z"/><path id="path4184" d="M1664.24131,639.02c-8.29493-.9742-17.4079-2.86793-21.8327-7.22947a3.7948,3.7948,0,0,0-1.5885-.97692,28.01941,28.01941,0,0,1-3.34912-2.97626c-8.33581-6.00541-9.6154-14.07257-10.97555-22.699-.55652-3.5992-.63755-12.46394-.63755-69.76445,0-57.87014-.23878-68.15679.33251-71.61583.47025-3.4866,1.84357-5.52307,2.52519-7.20932a61.48321,61.48321,0,0,1,4.27567-8.37781,35.64305,35.64305,0,0,1,12.77672-10.81759c.90316-.41907,2.16508-1.02841,2.80426-1.35411a5.39018,5.39018,0,0,1,1.73076-.59217,7.13645,7.13645,0,0,0,1.9167-.58189c6.07424-2.62186,19.1401-3.94429,31.14915-3.1527,3.70427.24417,7.52016.63015,8.47976.85772s2.52982.60887,3.48943.84733c.95956.23847,2.39125.59339,3.18152.78871,5.91515,1.462,14.01743,6.04447,17.78832,10.06061a37.973,37.973,0,0,1,8.19116,14.57975c1.68452,5.87613,1.97134,8.29478,1.84991,15.59968l-.11941,7.18431h-32.70531a18.69214,18.69214,0,0,1-.17734-4.20347c-.01293-9.20236-2.97356-14.37632-10.79072-16.54256a25.06616,25.06616,0,0,0-16.27052,1.28744,14.56145,14.56145,0,0,0-5.61406,5.706c-1.50483,3.16889-1.56175,5.64116-1.56175,67.83561,0,70.03328-.183,66.33922,3.48942,70.45109a13.79373,13.79373,0,0,0,6.71762,4.05174c2.95079.81681,10.70093.91268,13.20718.1634,7.9165-2.36673,10.65226-6.3365,10.66508-15.47568a23.33032,23.33032,0,0,1,.33512-5.00453c.25753-.40567,3.839-.49469,16.51705-.41052l16.18852.10713-.00029,7.80016c-.00029,7.70155-.24862,9.86851-1.71917,14.98391a35.01167,35.01167,0,0,1-20.8593,22.81015c-.67734.27662-1.69339.70383-2.25784.94934-2.00425.87177-8.89284,2.35569-13.54711,2.91827a216.81973,216.81973,0,0,1-23.60477.00237v-.0001Z"/><path id="path4186" d="M1743.36785,535.47078l.10344-101.09006h32.84145l.10453,42.386c.05753,23.3123.2126,42.386.34472,42.386.49815,0,1.7784-1.89231,2.03231-3.00391a11.36406,11.36406,0,0,1,.83875-2.25784,5.09862,5.09862,0,0,0,.57708-1.79545,1.22437,1.22437,0,0,1,.413-.9479,1.22508,1.22508,0,0,0,.41308-.94788,5.09486,5.09486,0,0,1,.57708-1.79546,11.44021,11.44021,0,0,0,.85008-2.35577,3.067,3.067,0,0,1,.65446-1.48869,1.20706,1.20706,0,0,0,.38147-.92838,5.41094,5.41094,0,0,1,.61579-1.87,5.36649,5.36649,0,0,0,.61325-1.85861,3.25348,3.25348,0,0,1,.55606-1.49252,6.21877,6.21877,0,0,0,.78005-1.836,29.75261,29.75261,0,0,1,1.12065-3.28415c.49316-1.24181.98994-2.62731,1.10392-3.07888a15.45974,15.45974,0,0,1,.76735-2.05259c.308-.67735,1.13886-2.89415,1.84625-4.92622s1.4314-3.97782,1.60892-4.32391a10.42319,10.42319,0,0,0,.61181-1.94526,3.25523,3.25523,0,0,1,.668-1.55019,1.11352,1.11352,0,0,0,.37893-.86633,7.90542,7.90542,0,0,1,.65-2.131c.35749-.82437.9117-2.1055,1.23154-2.847a7.06292,7.06292,0,0,0,.58154-2.06387,3.40827,3.40827,0,0,1,.5277-1.52551,18.05886,18.05886,0,0,0,1.2641-3.0676c.69-2.11552,1.00645-2.98922,2.49075-6.87618.32332-.8467,1.1738-3.202,1.88992-5.23411s1.44552-4.06412,1.62083-4.51569c1.01666-2.6184,1.80335-4.68636,2.26439-5.95251.28777-.79025.80548-2.17575,1.15048-3.07889s.73024-1.96737.85617-2.36494l35.04139-.23737c-.48689,1.24182-2.64144,7.82615-3.438,10.19689s-1.711,4.89256-2.03213,5.604a6.54986,6.54986,0,0,0-.58379,1.92573,1.13654,1.13654,0,0,1-.4105.88585,1.0541,1.0541,0,0,0-.41051.81854,6.31653,6.31653,0,0,1-.4723,1.72047c-.53484,1.30868-2.34,6.31875-3.81828,10.59757-.54606,1.5805-1.38988,3.88966-1.87515,5.13147s-.97745,2.62731-1.09374,3.07888a17.35016,17.35016,0,0,1-.7864,2.11463,7.64073,7.64073,0,0,0-.575,1.6214c0,.4394-2.51773,7.40109-3.6967,10.22158a22.473,22.473,0,0,0-.83669,2.46311c-.177.67735-.72575,2.24758-1.21938,3.4894a29.69485,29.69485,0,0,0-1.12151,3.28414,6.21974,6.21974,0,0,1-.78,1.83605,3.29394,3.29394,0,0,0-.556,1.52551,6.9586,6.9586,0,0,1-.59276,2.06388c-.326.74146-1.17329,3.01071-1.88286,5.04278s-1.45884,4.01543-1.66511,4.40749a3.22752,3.22752,0,0,0-.375,1.1022,6.63053,6.63053,0,0,1-.47231,1.545c-.53483,1.30868-2.34,6.31874-3.81828,10.59757-.54606,1.5805-1.40045,3.88966-1.89864,5.13147-1.20436,3.002-1.10888,3.75946-.3479,5.46475a27.00947,27.00947,0,0,1,.5092,3.77191c.11625.45156.61242,1.83706,1.10258,3.07887s1.04392,2.81206,1.23071,3.4894.74345,2.24758,1.23709,3.48941a28.923,28.923,0,0,1,1.11684,3.28413,4.86372,4.86372,0,0,0,.52028,1.43682,22.77285,22.77285,0,0,1,1.18842,3.07888c.48813,1.46761,1.05143,3.03784,1.25179,3.4894,7.15162,23.07423,17.3264,44.82177,24.23714,67.73546a23.96239,23.96239,0,0,0,2.08706,5.31621,2.63162,2.63162,0,0,1,.38125,1.3541c0,.7001-.92746.73893-17.65226.73893-15.23568,0-17.65225-.08246-17.65225-.60185a8.22931,8.22931,0,0,0-.57379-2.17513l-31.204-82.01489c-.13316,0-.24207,19.0275-.24207,42.28335l-.00054,42.50852H1743.264l.10406-101.31522Z"/><path id="path4188" d="M1293.58886,1128.66926l.10346-101.09031H1344.186l28.27086,136.79011,30.43345-136.79061,50.49345.0005.10346,101.09031.103,101.09023-34.07462.00044-.00594-65.58088c-.00357-39.5729-.15724-65.819-.38695-66.18211-.30475-.48183-.46722-.37422-.81474.53991L1389.423,1229.76h-34.05451L1326.878,1094.6728l-.13938,135.0872h-33.25352l.10411-101.09074Z"/><path id="path4190" d="M1465.492,1202.66512s.56112-4.59779.78382-5.95247c.55556-3.37976,1.26976-8.79031,1.67985-12.726.1882-1.80624.53813-4.11546.77763-5.13147a18.81047,18.81047,0,0,0,.44548-3.454,44.29929,44.29929,0,0,1,.60663-5.13147c.67177-3.969,1.44909-9.60153,1.87442-13.58252.15681-1.46757.50236-4.14623.76789-5.95248.93665-6.37138,1.33951-9.30109,1.70977-12.43385.2058-1.74122.65372-5.29027.99538-7.88682s.80681-6.38354,1.03368-8.41564.597-4.46919.82254-5.4159a17.06122,17.06122,0,0,0,.41009-3.26049,47.5021,47.5021,0,0,1,.59582-5.25762c.3277-2.045.8889-5.9351,1.24708-8.64446.35817-2.70944.84851-6.21939,1.08962-7.79985s.58407-4.25912.76214-5.95248c.17806-1.69342.523-4.372.76657-5.95248s.71878-4.99808,1.056-7.59456c.33728-2.59654.81659-6.19882,1.06515-8.00514.24855-1.80624.61794-4.66962.82087-6.363s.65528-5.2033,1.00521-7.79985.81478-6.29115,1.033-8.21035.58165-4.6902.80757-6.15777c.42129-2.6111.4922-5.4826,1.41933-7.89,20.37214-.66076,33.34145-.31876,56.64157-.23114.53393,3.434,1.08712,6.95451,1.4524,10.379.18939,1.80624.54979,4.62342.8008,6.26037s.66069,4.31553.91033,5.95248.60337,4.36173.7861,6.05515c.41561,3.85217,1.14346,9.29936,1.673,12.52082.2227,1.35468.57538,4.03335.78382,5.95248.35515,3.27034.75837,6.35335,2.28192,17.447.34109,2.48366.80261,6.27066,1.02557,8.41564a36.7276,36.7276,0,0,0,.80573,5.09013,10.90838,10.90838,0,0,1,.40032,2.85571,53.41561,53.41561,0,0,0,.58585,5.58339c.55211,3.69236,1.12655,7.84409,2.51585,18.18336.32614,2.42717.86829,6.399,1.20475,8.82614s.69943,5.24436.8066,6.26038.4618,3.78707.78806,6.15776c.32628,2.37077.899,6.61961,1.27282,9.44194s.95667,7.16356,1.29534,9.64715c.33867,2.48365.69874,5.25464.80019,6.15776.28276,2.51762,1.31268,10.31218,1.81714,13.75233.2483,1.69335.62169,4.7096.82973,6.70274a43.61574,43.61574,0,0,0,.797,5.13147,13.87708,13.87708,0,0,1,.421,3.06563,55.06009,55.06009,0,0,0,.5996,5.542l2.19879,16.91579h-33.7945l-6.54323-42.26785s-15.94871-.40717-29.5102-.39856l-7.41623,42.66641-33.49368-.07024Zm62.94269-49.46741a48.87668,48.87668,0,0,0-.49128-6.56827c-.43588-2.14382-1.0715-7.72693-1.69486-14.88695a30.88636,30.88636,0,0,0-.60733-4.60264,33.62845,33.62845,0,0,1-.6283-4.81793c-.21329-2.43579-.56838-5.72192-.78909-7.30238-.84784-6.07131-1.37523-10.392-1.67869-13.75233-.2928-3.24275-.58066-5.592-1.65983-13.54711-.22973-1.69335-.60174-4.83386-.82671-6.97877-1.558-14.8543-2.2716-19.414-3.00078-19.174-.24981.08219-.559,1.52044-.68716,3.19605-.22373,2.92587-.52212,5.31619-1.84082,14.74632-.33152,2.37077-.60543,5.14176-.60869,6.15777a19.18806,19.18806,0,0,1-.39222,3.51951c-.21244.9197-.59079,3.59836-.84076,5.95248-.71344,6.71874-2.17185,19.4704-3.51788,30.7587-.33653,2.82233-.76393,6.70172-.94975,8.62086-.18583,1.9192-.54248,4.87491-.79255,6.56827-1.159,7.84836-1.88086,15.3653-1.55664,16.2102.21273.55431,1.65465.6205,11.44036.52506l11.197-.10927-.07392-4.51568Z"/><path id="path4192" d="M1613.69109,1143.63268c0-66.44-.1126-86.23928-.49262-86.61929-.36481-.36481-4.30586-.49262-15.18916-.49262h-14.69654v-29.15029l46.90167.10442,46.90211.10442v29.14688h-29.9684l-.10344,86.51661-.10416,86.517h-33.25l.00055-86.127Z"/><path id="path4194" d="M1725.1451,1143.63268c0-66.44-.1126-86.23928-.49262-86.61929-.36481-.36481-4.30586-.49262-15.18916-.49262h-14.69654v-29.15029l46.90167.10442,46.90168.10442.108,14.26551c.05931,7.84605.05931,14.30591,0,14.3553s-6.85071.18791-15.09184.30789l-14.62847.21811-.56257,173.03365h-33.25v-86.127Z"/><path id="path4196" d="M1806.11894,1128.66926l.10344-101.09009h83.74569l.11471,13.54711c.06314,7.4509.01339,13.96276-.11043,14.47073l-.22513.92369h-24.74641c-18.69988,0-24.8668.12034-25.239.49261-.37353.37351-.49261,7.26756-.49261,28.51654,0,27.28634.02089,28.03515.794,28.44891.51669.27654,7.90061.425,21.14171.425h20.34761V1143.14h-20.08867c-12.059,0-20.50959.16-21.14167.40036l-1.053.40037v28.067c0,26.62022.03855,28.10184.74714,28.74319.67343.60942,3.174.68661,25.34946.78205l24.60231.10594.108,14.06022.10833,14.06066h-84.16862l.10312-101.09045Z"/><path id="path4198" d="M1907.07742,1128.66926l.10348-101.09009,27.50472-.1134c18.30444-.07545,28.67194.03795,30.99412.33911,1.9192.24888,4.78252.62035,6.363.82549a40.24334,40.24334,0,0,1,8.545,1.95571,6.23114,6.23114,0,0,0,1.68162.48248c1.00508,0,7.2039,3.09481,10.25447,5.11966a42.43723,42.43723,0,0,1,8.6659,8.838c2.64535,3.96752,4.38816,8.46836,5.72235,14.77862.98734,4.6697.96265,51.57533-.029,54.97333a30.66364,30.66364,0,0,1-2.26534,5.78332c-.19326.33867-.52115,1.00522-.72861,1.48111-.65264,1.49719-4.91474,5.80686-7.46306,7.54634-2.91994,1.99314-6.75668,4.10815-7.45879,4.11162a4.86309,4.86309,0,0,0-1.55758.55236,11.87875,11.87875,0,0,1-2.15519.82629c-.60588.15207-1.10161.44512-1.10161.6512,0,.45316,2.2069,2.07272,2.82436,2.07272.77987,0,7.33561,3.59272,9.57647,5.24813,2.4048,1.77655,6.74257,6.2889,7.34323,7.63888.2118.476.84381,1.67952,1.4045,2.6746a8.09185,8.09185,0,0,1,1.01941,2.51559,7.92185,7.92185,0,0,0,.61579,2.18011c.53107,1.271.61579,6.30382.61579,36.58627l-.00043,35.113h-32.84142l-.024-32.534c-.01318-17.89342-.18827-33.36488-.38849-34.38089-.73281-3.71937-.96207-4.35036-2.34195-6.44763-1.56142-2.37316-3.96028-4.02647-7.508-5.17463-1.97757-.64-3.60836-.71565-13.13654-.60935l-10.87873.12137-.10464,39.51236-.10514,39.51287h-33.24953l.10391-101.09052Zm59.52094-8.65692c2.7544-1.34215,5.20736-3.58106,6.14487-5.60859,1.71645-3.71213,1.76258-4.37752,1.76258-25.45214,0-20.69229-.00948-20.84153-1.55316-25.24685-.44555-1.27134-4.594-5.54-5.38832-5.54451a5.62366,5.62366,0,0,1-1.67945-.70269c-1.06091-.60312-2.84094-.72115-12.84877-.85207-8.64678-.113-11.76954-.02549-12.21292.34236-.51109.42412-.59566,4.96522-.59566,31.9719,0,24.62889.11166,31.59151.51311,32.00151.39877.40724,3.07461.49225,12.00763.38139l11.49453-.14258Z"/></g></g><g id="Body"><path class="cls-7" d="M1680.42658,1441.83523c-12.5-8.17391-61-56.67391-68-81.17391s-22-15-23.5,0-9.5,67.76018,23,125.38009C1644.92658,1474.16132,1680.42658,1441.83523,1680.42658,1441.83523Z"/><path class="cls-8" d="M1596.89138,1452.2584a193.40906,193.40906,0,0,0,15.0352,33.783c33-11.88009,68.5-44.20618,68.5-44.20618-3.47886-2.27487-28.03986,3.11869-35.42491-4.01651C1632.37294,1440.29192,1617.5,1450.625,1596.89138,1452.2584Z"/><path class="cls-7" d="M961.51038,1308.38894c-15.52161,45.37085-149.24634,290.13489-214.91474,309.23841-65.66839,19.10364-293.06866,23.11645-365.35516,16.0979-75.61814-7.342-113.82523-11.72-92.33374-39.18128S565.51,1508.9761,581.03168,1498.23025c15.5216-10.74572,73.39758-170.88965,93.32873-194.02026Z"/><path class="cls-8" d="M288.90674,1594.544c-21.49149,27.46131,16.7156,31.83924,92.33374,39.18128,72.2865,7.01855,299.68677,3.00574,365.35516-16.0979,65.6684-19.10352,199.39313-263.86756,214.91474-309.23841l-287.15-4.17895c-15.34606,17.8095-53.1869,116.84441-76.86991,166.372C627.5,1521.7222,691.331,1567.7222,699.9155,1572.2222s25.92006,25.2939,11.96421,27.5C607.5,1616.2222,256.5,1634.2222,288.90674,1594.544Z"/><path class="cls-7" d="M523.3536,1159.78829c0,310.83046,163.972,528.38194,800.75658,528.38194,283.95537,0,402.08339-199.962,399.177-235.1128-2.60492-31.50455-44.55395-36.786-65.66841-22.98394-135.68236,88.69242-403.55489,79.4673-403.55489-285.40883,0-361.77323-271.03143-389.23456-356.99734-389.23456C637.97482,755.4301,523.3536,906.26844,523.3536,1159.78829Z"/><path class="cls-8" d="M1723.28711,1453.05737a29.8057,29.8057,0,0,0-6.93433-17.23095c2.64722,13.84021-1.78637,32.61731-34.01953,67.17358-68.74292,73.69739-253.41418,164.5072-627.6936,86.45068,5.89477-5.27819,8.98437-12.11718,6.0271-19.784-9-23.33338-156.33789-207.151-156.33789-207.151-.98809,7.79589,52.02018,126.08606,84.06761,191.44791a12.0013,12.0013,0,0,1-13.73229,16.91681q-4.60633-1.17348-9.24841-2.38034C530.83142,1455.5,531,1073.24951,533.24634,1040.683c-6.6427,36.637-9.89276,76.41541-9.89276,119.10535,0,310.83032,163.972,528.38184,800.75653,528.38184C1608.06555,1688.17017,1726.1936,1488.20825,1723.28711,1453.05737Z"/><path class="cls-8" d="M1191.47893,1358.3367C1212,1364.42657,1281,1537,1290.33333,1546.66667s178.245,44.263,199.18439,55.01915S1459.66667,1634,1459.66667,1634l-297-91Z"/><path class="cls-7" d="M1711.92658,1441.83523c35.91667,10.07609,118.41667,8.24276,140,2.32609,20.71257-5.678,28.5,10.5,24.5,18s-71.5,111-236,65.5C1646.92658,1490.16132,1711.92658,1441.83523,1711.92658,1441.83523Z"/><path class="cls-8" d="M1872.69355,1447.47806c4.66358,4.30442,5.85158,10.711,3.733,14.68326-3.9358,7.37963-69.34964,107.70243-228.15428,67.57666a7.96068,7.96068,0,0,1-5.50182-10.52848c5.49935-14.74811,18.14363-30.43113,31.13754-43.79434C1658.83333,1499.33333,1655.93644,1510.324,1659,1515c2.375,3.625,40.83333,18.5,94.83333,10.16667S1850.125,1494.625,1873.5,1461.5C1877.071,1456.43947,1875.05376,1452.28945,1872.69355,1447.47806Z"/><path class="cls-7" d="M904.32889,1362.51559c4.11023,25.14573,149.24638,290.135,214.91479,309.2385s293.06865,23.11645,365.35514,16.09787c75.61816-7.34208,113.82524-11.72,92.33376-39.18131s-276.60329-85.56792-292.12492-96.31366-69.28893-173.34492-93.32873-194.02029S900.21866,1337.36987,904.32889,1362.51559Z"/><path class="cls-8" d="M1576.93258,1648.67065c21.49148,27.46134-16.7156,31.83923-92.33376,39.18131-72.28649,7.01858-299.68673,3.00567-365.35514-16.09787-34.53671-10.047-91.054-88.10557-137.47676-163.51654,43.89975,57.65131,100.59279,125.65131,141.5796,137.65131S1604.86516,1695.45245,1576.93258,1648.67065Z"/></g><g id="Horn"><path class="cls-9" d="M912.47288,740.81714c-7.211,44.34094-66.40529,62.77581-77.90593,116.78868,26.22167,9.03507,63.23269,11.75095,91.53646.79732C931.83834,838.72352,921.855,750.88629,912.47288,740.81714Z"/><path class="cls-10" d="M885.78975,510.63074"/><path class="cls-11" d="M898.387,619.30255c-6.15157,45.60078-48.27378,74.69154-63.28628,106.58344s-6.97849,115.70245-.53372,131.71983c11.50064-54.01287,70.69489-72.44774,77.90593-116.78868S898.387,619.30255,898.387,619.30255Z"/><path class="cls-12" d="M885.78975,510.63074c-5.91,46.76609-35.27495,46.47388-50.18247,90.22685s-6.14492,111.7128-.50661,125.0284c15.0125-31.8919,57.13471-60.98266,63.28628-106.58344S885.78975,510.63074,885.78975,510.63074Z"/><path class="cls-9" d="M874.09885,409.77722c-6.68854,47.70226-28.65561,51.10514-38.04035,79.72076s-13.41883,75.71556-.45122,111.35961c14.90752-43.753,44.2725-43.46076,50.18247-90.22685S883.09167,425.80079,874.09885,409.77722Z"/><path class="cls-11" d="M862.7163,311.58378c-2.59044,34.65128-19.61832,48.97881-26.22382,70.81137s-9.50177,71.74154-.434,107.10283c9.38474-28.61562,31.35181-32.0185,38.04035-79.72076S862.7163,311.58378,862.7163,311.58378Z"/><path class="cls-12" d="M853.706,233.85516c-3.16438,35.04611-10.4371,46.04026-16.86994,63.741s-7.50054,63.35458-.3436,84.79895c6.6055-21.83256,23.63338-36.16009,26.22382-70.81137S860.30531,250.3959,853.706,233.85516Z"/><path class="cls-9" d="M844.98026,158.581c-.14186,16.77853-1.65873,27.57963-7.79335,52.43188s-10.525,60.30062-.35083,86.58337c6.43284-17.70078,13.70556-28.69493,16.86994-63.741S849.62721,167.10246,844.98026,158.581Z"/><path class="cls-11" d="M837.65539,95.39177c1.40909,3.71563,1.7511,26.96133-.1486,36.67388-1.78946,9.149-7.083,34.47681-.31988,78.94718,6.13462-24.85225,7.65149-35.65335,7.79335-52.43188S842.05178,108.342,837.65539,95.39177Z"/><path class="cls-12" d="M837.65539,95.39177c-2.17161,11.58334-1.5715,31.17052-.1486,36.67388C839.40649,122.3531,839.06448,99.1074,837.65539,95.39177Z"/><path class="cls-13" d="M907.18046,863.58484a101.49212,101.49212,0,0,0,18.923-5.1817c1.51062-5.18371,1.93067-15.09643,1.55835-27.07116C926.06412,838.84882,909.48429,862.25837,907.18046,863.58484Z"/><path class="cls-14" d="M885.78975,510.63074"/><path class="cls-6" d="M913.96218,720.49478a131.04429,131.04429,0,0,1-1.4893,20.32236c-7.211,44.34094-66.40529,62.77581-77.90593,116.78868-1.44048-3.58006-2.96035-10.54688-4.28453-19.56376C831.93912,816.03632,900.23523,768.32823,913.96218,720.49478Z"/><path class="cls-14" d="M830.69382,706.81451c1.38392,8.96264,2.99354,15.73376,4.40685,19.07148,15.0125-31.8919,57.13471-60.98266,63.28628-106.58344a148.43476,148.43476,0,0,0,1.23215-18.445C884.43912,661.16132,838.07351,681.0927,830.69382,706.81451Z"/><path class="cls-13" d="M830.281,581.15825a126.86333,126.86333,0,0,0,5.3263,19.69934c14.90752-43.753,44.2725-43.46076,50.18247-90.22685q1.03272-8.172,1.49671-15.96857C875.68912,532.16132,831.62283,566.40517,830.281,581.15825Z"/><path class="cls-6" d="M875.50366,392.82993a155.99927,155.99927,0,0,1-1.40481,16.94729c-6.68854,47.70226-28.65561,51.10514-38.04035,79.72076-1.2755-4.974-2.31428-10.23589-3.13931-15.667C835.68912,452.28632,857.19319,456.74853,875.50366,392.82993Z"/><path class="cls-14" d="M863.37282,297.59548q-.12393,6.7534-.65652,13.9883c-2.59044,34.65128-19.61832,48.97881-26.22382,70.81137a85.90466,85.90466,0,0,1-3.25969-14.84806C837.93912,337.53632,853.43151,339.52963,863.37282,297.59548Z"/><path class="cls-13" d="M854.45964,219.32828c-.06961,4.73954-.30878,9.60021-.75362,14.52688-3.16438,35.04611-10.4371,46.04026-16.86994,63.741a82.38324,82.38324,0,0,1-3.91913-13.74476C833.84322,273.078,846.73016,263.41191,854.45964,219.32828Z"/><path class="cls-6" d="M844.58274,144.65336c.29009,5.23193.43048,10.02988.39752,13.92759-.14186,16.77853-1.65873,27.57963-7.79335,52.43188-.85989-5.65409-1.52487-10.99873-2.02693-16.04C838.50162,171.53632,839.16385,187.3954,844.58274,144.65336Z"/><path class="cls-14" d="M836.38792,121.83032"/><path class="cls-14" d="M836.38792,121.83032a59.5624,59.5624,0,0,0,1.11887,10.23533c1.8997-9.71255,1.55769-32.95825.1486-36.67388C837.85579,109.24465,836.25338,115.166,836.38792,121.83032Z"/></g><g id="Hot_Dog" data-name="Hot Dog"><path class="cls-15" d="M987.98779,284.19586c-18.29614-38.556-51.04248-28.34961-74.09973-9.072-39.9928,33.43689-80.65527,36.31371-115.21545-31.19769-18.13456-35.42485-90.868-17.18238-80.087,39.44122,8.915,46.8233,46.26245,108.34137,114.80774,112.99835,5.61218-6.14416,37.1687-6.03,42.104-2.14514C963.19385,381.15155,1004.31458,318.60144,987.98779,284.19586Z"/><path class="cls-16" d="M987.98779,284.19586c3.22118,42.9702-52.06458,84.58975-112.4037,93.4721-7.71306,1.13542-13.94253-.20963-21.70909-.20963-5.74058,0-12.79186,1.66-18.03236,1.11834-77.508-8.01052-101.50308-72.02468-106.99578-96.34968-3.59814-15.93457-2.09436-28.064,2.53931-43.19775-10.45343,9.57147-16.57758,24.50085-12.8006,44.33813,8.915,46.8233,46.26245,108.34137,114.80774,112.99835,5.61218-6.14416,37.1687-6.03,42.104-2.14514C963.19385,381.15155,1004.31458,318.60144,987.98779,284.19586Z"/></g><g id="Face"><path class="cls-17" d="M673.4291,1000.57351c-12.68771,12.68771-30.17464,57.33182-4.82794,68.19469s27.76067-1.207,43.45148-3.01746,30.77814,6.03492,45.262,4.22445,32.58862-59.1423,13.88034-69.40168S697.56881,976.43379,673.4291,1000.57351Z"/><path class="cls-12" d="M710.42205,991.37748c-15.7834,4.85643-11.20088,24.26857,0,28.9356s14.93451,8.40066,22.40176-10.26747S722.55634,987.64385,710.42205,991.37748Z"/><path class="cls-12" d="M692.33854,1007.09308c-2.42284.71293-4.22445,5.55028-1.81048,6.35494s7.64424,1.60932,6.83959-1.40815S696.16066,1005.96841,692.33854,1007.09308Z"/><path class="cls-12" d="M698.57463,1017.069c-1.99162,1.37882-1.00582,2.61513,0,3.82212s3.01747,1.60931,3.621,0-.20116-2.61514-.80466-3.82212S701.18977,1015.2585,698.57463,1017.069Z"/><path class="cls-17" d="M941.46687,1014.34958c-6.3139,11.48139,5.22549,55.63257,22.12807,55.63257,22.28006,0,21.83265-8.65739,41.28319-8.65739,11.2939,0,22.004,11.37131,40.7052,6.59191,21.46177-5.4849,18.06405-48.50937-.53823-62.89182-13.91667-10.75975-31.03482-10.9242-51.37136-11.124C968.5385,993.654,947.5018,1003.37548,941.46687,1014.34958Z"/><path class="cls-12" d="M984.84162,998.814c-12.24445,8.689-9.92327,14.957-4.05952,20.74865s15.43872,7.8882,19.39548,4.3523c3.60846-3.22465,9.47221-10.6671,7.21693-19.2372S988.0763,996.51856,984.84162,998.814Z"/><path class="cls-12" d="M1014.69067,1008.8282c-3.56442.66833-5.23027,6.03493-2.61513,8.4489s7.8454,1.60932,8.04657-1.60931S1017.9093,1008.22471,1014.69067,1008.8282Z"/><path class="cls-12" d="M1007.89669,1019.69108c-1.84938,1.02363-2.36838,4.41345,0,4.62069s4.17885.81074,4.17885-.99974S1009.35043,1018.88642,1007.89669,1019.69108Z"/><path class="cls-18" d="M766.39009,1134.3833c53.25-20.66807,154.02586-16.96568,191.02129-8.1804a10.433,10.433,0,0,1,7.88946,11.69888c-12.05727,81.18833-137.28113,184.68467-204.77968,9.96247A10.42028,10.42028,0,0,1,766.39009,1134.3833Z"/><path class="cls-19" d="M935.85566,1200.58525c-35.73051,43.54111-96.27867,66.84065-144.495,4.56839C807.11051,1198.39521,898.03677,1186.68216,935.85566,1200.58525Z"/><ellipse class="cls-20" cx="685.39214" cy="1149.39418" rx="24.05881" ry="12.39418"/><ellipse class="cls-20" cx="1035.64605" cy="1144.14418" rx="21.57051" ry="11.56085"/></g></svg>