<svg xmlns="http://www.w3.org/2000/svg" viewBox="0 0 2048 2048"><defs><style>.cls-1{fill:#41d6ff;}.cls-2{fill:#f0faff;}.cls-3{fill:#afe6f5;}.cls-4{fill:#646464;}.cls-5{fill:#323232;}.cls-6{fill:#ffa1eb;}.cls-7{fill:#ffc6fe;}.cls-8{fill:#530e20;}.cls-9{fill:#da70ab;}.cls-10{fill:#ee5d78;}.cls-11{fill:#969696;}.cls-12{fill:#070500;}.cls-13{fill:#1b1600;}</style></defs><g id="Background"><rect class="cls-1" width="2048" height="2048"/></g><g id="Body"><path class="cls-2" d="M1680.42658,1441.83523c-12.5-8.17391-61-56.67391-68-81.17391s-22-15-23.5,0-9.5,67.76018,23,125.38009C1644.92658,1474.16132,1680.42658,1441.83523,1680.42658,1441.83523Z" transform="translate(0.00027 -0.125)"/><path class="cls-3" d="M1596.89138,1452.2584a193.40906,193.40906,0,0,0,15.0352,33.783c33-11.88009,68.5-44.20618,68.5-44.20618-3.47886-2.27487-28.03986,3.11869-35.42491-4.01651C1632.37294,1440.29192,1617.5,1450.625,1596.89138,1452.2584Z" transform="translate(0.00027 -0.125)"/><path class="cls-2" d="M961.51038,1308.38894c-15.52161,45.37085-149.24634,290.13489-214.91474,309.23841-65.66839,19.10364-293.06866,23.11645-365.35516,16.0979-75.61814-7.342-113.82523-11.72-92.33374-39.18128S565.51,1508.9761,581.03168,1498.23025c15.5216-10.74572,73.39758-170.88965,93.32873-194.02026Z" transform="translate(0.00027 -0.125)"/><path class="cls-3" d="M288.90674,1594.544c-21.49149,27.46131,16.7156,31.83924,92.33374,39.18128,72.2865,7.01855,299.68677,3.00574,365.35516-16.0979,65.6684-19.10352,199.39313-263.86756,214.91474-309.23841l-287.15-4.17895c-15.34606,17.8095-53.1869,116.84441-76.86991,166.372C627.5,1521.7222,691.331,1567.7222,699.9155,1572.2222s25.92006,25.2939,11.96421,27.5C607.5,1616.2222,256.5,1634.2222,288.90674,1594.544Z" transform="translate(0.00027 -0.125)"/><path class="cls-2" d="M523.3536,1159.78829c0,310.83046,163.972,528.38194,800.75658,528.38194,283.95537,0,402.08339-199.962,399.177-235.1128-2.60492-31.50455-44.55395-36.786-65.66841-22.98394-135.68236,88.69242-403.55489,79.4673-403.55489-285.40883,0-361.77323-271.03143-389.23456-356.99734-389.23456C637.97482,755.4301,523.3536,906.26844,523.3536,1159.78829Z" transform="translate(0.00027 -0.125)"/><path class="cls-3" d="M1723.28711,1453.05737a29.8057,29.8057,0,0,0-6.93433-17.23095c2.64722,13.84021-1.78637,32.61731-34.01953,67.17358-68.74292,73.69739-253.41418,164.5072-627.6936,86.45068,5.89477-5.27819,8.98437-12.11718,6.0271-19.784-9-23.33338-156.33789-207.151-156.33789-207.151-.98809,7.79589,52.02018,126.08606,84.06761,191.44791a12.0013,12.0013,0,0,1-13.73229,16.91681q-4.60633-1.17348-9.24841-2.38034C530.83142,1455.5,531,1073.24951,533.24634,1040.683c-6.6427,36.637-9.89276,76.41541-9.89276,119.10535,0,310.83032,163.972,528.38184,800.75653,528.38184C1608.06555,1688.17017,1726.1936,1488.20825,1723.28711,1453.05737Z" transform="translate(0.00027 -0.125)"/><path class="cls-3" d="M1191.47893,1358.3367C1212,1364.42657,1281,1537,1290.33333,1546.66667s178.245,44.263,199.18439,55.01915S1459.66667,1634,1459.66667,1634l-297-91Z" transform="translate(0.00027 -0.125)"/><path class="cls-2" d="M904.32889,1362.51559c4.11023,25.14573,149.24638,290.135,214.91479,309.2385s293.06865,23.11645,365.35514,16.09787c75.61816-7.34208,113.82524-11.72,92.33376-39.18131s-276.60329-85.56792-292.12492-96.31366-69.28893-173.34492-93.32873-194.02029S900.21866,1337.36987,904.32889,1362.51559Z" transform="translate(0.00027 -0.125)"/><path class="cls-3" d="M1576.93258,1648.67065c21.49148,27.46134-16.7156,31.83923-92.33376,39.18131-72.28649,7.01858-299.68673,3.00567-365.35514-16.09787-34.53671-10.047-91.054-88.10557-137.47676-163.51654,43.89975,57.65131,100.59279,125.65131,141.5796,137.65131S1604.86516,1695.45245,1576.93258,1648.67065Z" transform="translate(0.00027 -0.125)"/><path class="cls-2" d="M1711.92658,1441.83523c35.91667,10.07609,118.41667,8.24276,140,2.32609,20.71257-5.678,28.5,10.5,24.5,18s-71.5,111-236,65.5C1646.92658,1490.16132,1711.92658,1441.83523,1711.92658,1441.83523Z" transform="translate(0.00027 -0.125)"/><path class="cls-3" d="M1872.69355,1447.47806c4.66358,4.30442,5.85158,10.711,3.733,14.68326-3.9358,7.37963-69.34964,107.70243-228.15428,67.57666a7.96068,7.96068,0,0,1-5.50182-10.52848c5.49935-14.74811,18.14363-30.43113,31.13754-43.79434C1658.83333,1499.33333,1655.93644,1510.324,1659,1515c2.375,3.625,40.83333,18.5,94.83333,10.16667S1850.125,1494.625,1873.5,1461.5C1877.071,1456.43947,1875.05376,1452.28945,1872.69355,1447.47806Z" transform="translate(0.00027 -0.125)"/></g><g id="Horn"><polygon class="cls-4" points="884.106 845.83 947.196 835.746 907.667 534.208 880 450.875 858.555 239.268 832.738 126.533 823.538 77.644 820.225 137.971 825.799 228.81 827.638 450.462 854.915 671.937 835.383 593.346 833.326 832.608 884.106 845.83"/><polygon class="cls-5" points="854.915 671.937 847.75 698.375 835.383 593.346 854.915 671.937"/><polygon class="cls-5" points="884.106 845.83 881 568.875 854.915 444.375 848.291 363.125 848.272 241.875 829.5 129.375 823.538 77.644 832.738 126.533 858.555 239.268 880 450.875 907.667 534.208 947.196 835.746 884.106 845.83"/></g><g id="Hotdog"><path class="cls-2" d="M981.77787,252.50836c-18.29614-38.556-51.04248-28.34961-74.09973-9.072-39.9928,33.43689-80.65527,36.31371-115.21545-31.19769-18.13456-35.42485-90.868-17.18238-80.087,39.44122,8.915,46.8233,46.26245,108.34137,114.80774,112.99835,5.61218-6.14416,37.1687-6.03,42.104-2.14514C956.98393,349.46405,998.10465,286.91394,981.77787,252.50836Z" transform="translate(0.00027 -0.125)"/><path class="cls-3" d="M981.77787,252.50836c3.22118,42.9702-52.06458,84.58975-112.4037,93.4721-7.71306,1.13542-13.94254-.20963-21.70909-.20963-5.74058,0-12.79186,1.66-18.03236,1.11834-77.508-8.01052-101.50308-72.02468-106.99578-96.34968-3.59814-15.93457-2.09436-28.064,2.53931-43.19775-10.45343,9.57147-16.57758,24.50085-12.8006,44.33813a159.20847,159.20847,0,0,0,18.95416,49.85934c2.137,3.64252-.00831,37.76832,2.46027,41.27329,2.02287,2.87213,8.605-24.849,10.85194-22.10614q1.18,1.44042,2.40129,2.85333c2.22905,2.578,3.365,55.371,3.365,55.371s8.32081-43.38383,10.80391-41.26978a116.3804,116.3804,0,0,0,23.14462,15.42682c3.3036,1.66175,2.76656,85.55811,2.76656,85.55811s15.08442-78.37463,19.07625-77.34049a114.44411,114.44411,0,0,0,20.98373,3.37288c5.61218-6.14416,37.1687-6.03,42.104-2.14514,34.99092-5.21454,62.56692-18.30652,82.03742-34.34506,3.666-3.01979,9.46527,55.95781,9.46527,55.95781s6.46585-71.66553,8.9361-74.92219a91.2843,91.2843,0,0,0,6.968-10.60437c1.17924-2.10975,2.59589,30.44323,2.59589,30.44323s4.619-47.56626,5.41789-52.7594C986.04,267.64417,985.0937,259.49584,981.77787,252.50836Z" transform="translate(0.00027 -0.125)"/></g><g id="Face"><path class="cls-4" d="M1230.75012,981.16388h-85.2832v81.99994H1248.959A457.59879,457.59879,0,0,0,1230.75012,981.16388Z" transform="translate(0.00027 -0.125)"/><path class="cls-4" d="M583.89673,1063.16382l4.653-81.8678-39.91449-2.26855A486.64823,486.64823,0,0,0,530.093,1060.106Z" transform="translate(0.00027 -0.125)"/><path class="cls-6" d="M609.52543,950.34579c-45.99717,55.43019-36.45458,131.32609-8.83747,154.6558,53.15982,44.90708,178.26162-13.40626,265.41106-12.15152,76.72709,1.10468,178.672,35.32488,233.90624,16.57026s63.85633-125.787,18.86952-170.85233c-45.74862-45.82847-210.47594-36.82832-260.38353-36.82832S644.94518,907.66222,609.52543,950.34579Z" transform="translate(0.00027 -0.125)"/><polygon class="cls-7" points="653.309 1114.37 767.495 916.234 830.912 906.999 716.725 1105.135 653.309 1114.37"/><polygon class="cls-7" points="762.795 1092.373 864.55 916.587 899 914.49 797.245 1090.277 762.795 1092.373"/><path class="cls-8" d="M766.39009,1156.75644c53.25-20.66807,154.02586-16.96568,191.02129-8.1804a10.433,10.433,0,0,1,7.88946,11.69888c-12.05727,81.18833-137.28113,184.68468-204.77968,9.96248A10.42029,10.42029,0,0,1,766.39009,1156.75644Z" transform="translate(0.00027 -0.125)"/><path class="cls-9" d="M935.85566,1222.9584c-35.73051,43.5411-96.27867,66.84065-144.495,4.56838C807.11051,1220.76835,898.03677,1209.0553,935.85566,1222.9584Z" transform="translate(0.00027 -0.125)"/><ellipse class="cls-10" cx="685.39241" cy="1171.64232" rx="24.05881" ry="12.39418"/><ellipse class="cls-10" cx="1035.64632" cy="1166.39232" rx="21.57051" ry="11.56085"/><path class="cls-11" d="M1166.333,1026.49805h76.41845q-.84246-4.03693-1.73828-8H1166.333a4,4,0,0,0,0,8Z" transform="translate(0.00027 -0.125)"/><path class="cls-11" d="M581.73584,1021.09467c.12891.00274.257-.00031.38312-.0091a4.00019,4.00019,0,0,0-.18317-7.98907l-42.62054-1.0644q-.958,3.95481-1.86567,7.95655Z" transform="translate(0.00027 -0.125)"/><path class="cls-12" d="M935.084,935.37286c45.81934,0,82.51978,2.09729,112.19849,6.41156,48.60828,7.06629,66.10156,18.37458,72.20276,24.48645,9.068,9.08368,15.95581,23.23725,19.39477,39.85358a122.3714,122.3714,0,0,1-.51855,51.54743c-4.90845,21.01379-15.27185,36.08325-27.72205,40.31066-8.509,2.88916-19.9392,4.35413-33.97253,4.35413-27.40881,0-60.32739-5.33142-95.17883-10.976-35.35742-5.72644-71.9187-11.64771-105.14527-12.1261-1.10949-.01587-2.207-.0238-3.32678-.0238-35.69507,0-75.344,8.12841-113.68738,15.98913-36.17975,7.41724-70.35284,14.4231-98.57971,14.4231-20.25415,0-34.406-3.63758-43.264-11.12049-5.676-4.79467-14.14868-21.19384-14.22668-46.72046a117.5743,117.5743,0,0,1,26.91241-75.14154c2.81562-3.393,21.16559-20.887,106.15644-32.11926,60.51623-7.99756,120.31457-8.40271,131.68737-8.40271,6.3772,0,14.312-.13287,23.49988-.28686,12.8418-.215,27.39673-.45887,43.5697-.45887m0-28.00006c-28.23278,0-52.40393.74579-67.06958.74579-51.99731,0-222.48809,6.17053-259.39111,50.64142-47.92328,57.7514-37.981,136.82544-9.2074,161.13208,15.44208,13.0448,36.7193,17.73083,61.33295,17.73083,62.71954,0,147.1651-30.4121,212.26727-30.4121.98438,0,1.94934.00683,2.92481.02087,62.80444.90417,141.828,23.105,200.726,23.105,16.06982,0,30.63953-1.65234,42.975-5.84082,57.54724-19.54,66.53027-131.05426,19.65966-178.00671C1105.08057,912.20844,1006.952,907.3728,935.084,907.3728Z" transform="translate(0.00027 -0.125)"/><path class="cls-13" d="M925.38843,924.39691c45.81921,0,82.51953,2.09729,112.19824,6.41156,48.60815,7.06616,66.10144,18.37445,72.20251,24.48627,9.068,9.08374,15.95594,23.23743,19.395,39.85376a122.37364,122.37364,0,0,1-.51867,51.54742c-4.90845,21.0138-15.27185,36.08313-27.72217,40.31055-8.50879,2.88916-19.93884,4.35413-33.97266,4.35413-27.40893,0-60.32763-5.33143-95.17907-10.976-35.3573-5.72631-71.91834-11.6477-105.14478-12.12622-1.1095-.01574-2.207-.02368-3.32678-.02368-35.69495,0-75.34387,8.12842-113.68726,15.98914-36.17975,7.41711-70.353,14.423-98.57983,14.423-20.25415,0-34.406-3.63757-43.264-11.12036-5.676-4.79468-14.14868-21.19385-14.22668-46.72046a117.574,117.574,0,0,1,26.91241-75.14142c2.81555-3.393,21.16559-20.887,106.15643-32.11926,60.51636-7.99756,120.3147-8.40271,131.6875-8.40271,6.3772,0,14.312-.13287,23.49988-.28687,12.8418-.215,27.39685-.45886,43.56995-.45886m-.00012-28.00006c-28.23267,0-52.40406.74579-67.06971.74579-51.99731,0-222.48822,6.17053-259.39123,50.64142-47.92328,57.75128-37.981,136.82532-9.2074,161.132,15.442,13.0448,36.71936,17.731,61.333,17.731,62.71954,0,147.16516-30.41223,212.26721-30.41223.98425,0,1.94934.00684,2.92481.02088,62.80432.90429,141.82775,23.105,200.7257,23.105,16.06971,0,30.63965-1.65235,42.97522-5.84082,57.54712-19.53992,66.53028-131.05433,19.65955-178.00672-34.22083-34.28058-132.34912-39.11621-204.21716-39.11621Z" transform="translate(0.00027 -0.125)"/></g><g id="Heart_Small" data-name="Heart Small"><path class="cls-2" d="M1336.13252,1101.67311H1320.038l-2.28268-3.95372h31.91132l-3.57746-6.19628h-9.10327l8.04727-13.93831-4.56539,0-8.04721,13.93828h-4.5654l15.95566-27.636-7.15485,0-4.55165,7.88367-8.04728-13.93828-2.28265,3.95374,8.04725,13.93828-2.28268,3.95369-15.95566-27.636-3.57742,6.1963,4.55165,7.88369H1296.463l2.28272,3.9537h16.09452l2.28268,3.95373h-31.91135l3.57746,6.19628h9.10328l-8.04728,13.93828h4.56539l8.04725-13.93828h4.56536l-15.95566,27.636h7.15488l4.55162-7.88369,8.04728,13.93828,2.28265-3.95373-8.04725-13.93827,2.28268-3.95373,15.95566,27.636,3.57742-6.19631-4.55162-7.88369h16.09453Zm-18.69337-10.15h-3.25743l-3.2574-5.642,3.2574-5.642h6.51482l3.25743,5.642-3.25743,5.642Z" transform="translate(0.00027 -0.125)"/></g><g id="Heart_Medium" data-name="Heart Medium"><path class="cls-2" d="M1407.54464,1009.09014h-20.96941l-2.97409-5.15128h41.57705l-4.66105-8.07309h-11.8606l10.48475-18.16014-5.94822,0-10.48466,18.16009h-5.94823l20.78853-36.00681-9.322,0-5.93033,10.27158-10.48474-18.16009-2.974,5.1513,10.4847,18.16009-2.97409,5.15124-20.78852-36.00679-4.661,8.07312,5.93032,10.2716h-20.9695l2.97414,5.15126h20.96945l2.97409,5.15128h-41.57709l4.661,8.0731h11.8606L1347.237,999.30676h5.94823l10.4847-18.16009h5.94818l-20.78852,36.00679h9.322l5.93027-10.2716,10.48475,18.16009,2.97405-5.15129-10.48471-18.16009,2.97409-5.15128,20.78853,36.00683,4.661-8.07314-5.93028-10.2716h20.96945Zm-24.35548-13.22437h-4.24408l-4.244-7.351,4.244-7.35091h8.48812l4.24409,7.35091-4.24409,7.351Z" transform="translate(0.00027 -0.125)"/></g><g id="Heart_Large" data-name="Heart Large"><path class="cls-2" d="M1332.65032,908.28715h-32.253l-4.57445-7.92318h63.94965l-7.16915-12.41723h-18.24278l16.12659-27.9321-9.149.00007-16.12645,27.932h-9.149l31.97482-55.38207-14.33817,0-9.12142,15.79871-16.12659-27.932-4.57438,7.92322,16.12652,27.932-4.57445,7.92312-31.97482-55.382-7.16909,12.41726,9.12143,15.79875h-32.25318l4.57452,7.92315h32.25311l4.57445,7.92318h-63.94972l7.16915,12.41723h18.24278l-16.12659,27.932h9.149l16.12652-27.932h9.1489l-31.97483,55.382h14.33824l9.12135-15.79875,16.12659,27.932,4.57438-7.92318-16.12652-27.932,4.57445-7.92319,31.97482,55.3821,7.16909-12.41729-9.12136-15.79875h32.25311Zm-37.46115-20.34041h-6.52783l-6.52775-11.3065,6.52775-11.30644h13.05559l6.52782,11.30644-6.52782,11.3065Z" transform="translate(0.00027 -0.125)"/></g></svg>