<svg xmlns="http://www.w3.org/2000/svg" viewBox="0 0 2048 2048"><defs><style>.cls-1{fill:#000003;}.cls-2{fill:#fff;}.cls-3{fill:#e1e1e1;}.cls-4{fill:#c8c8c8;}.cls-5{fill:#969696;}</style></defs><g id="Background"><rect class="cls-1" width="2048" height="2048"/></g><g id="Text"><path class="cls-2" d="M661.71411,1688.28418h365.84424v29.23535H661.71411Z"/><path class="cls-2" d="M1386.28589,1615.19434v239.81347c0,18.56934-5.13574,27.26074-19.35938,31.60645-14.22265,4.3457-40.29785,4.74121-80.99121,4.74121-1.58008-7.50684-6.32129-18.96387-10.667-26.0752,19.75391.39453,38.32324.79,52.5459.79,30.4209,0,32.001,0,32.001-11.0625v-53.33593H1130.6687c-9.87695,33.18652-27.65527,65.18847-59.65723,90.47363-3.55566-5.13574-13.0371-15.0127-18.56835-18.96387,56.49609-44.64355,63.60742-107.46191,63.60742-158.82226v-73.87989a342.51811,342.51811,0,0,1-34.37207,28.05078c-4.74024-5.92675-13.43262-14.61816-19.75391-18.56933,54.52148-36.74219,93.63477-87.3125,114.17871-127.61035l33.97656,5.53027c-.39453,3.16113-3.16015,5.13672-8.29687,5.13672l-8.2959,14.22265h101.93066l4.34571-1.58007,20.54394,13.03711a9.78405,9.78405,0,0,1-5.53125,3.16113,436.19045,436.19045,0,0,1-35.95215,53.33594ZM1234.575,1718.70508H1141.7312a315.295,315.295,0,0,1-5.53125,59.26269h98.375Zm14.61817-103.51074a297.75294,297.75294,0,0,0,30.02636-45.03907H1178.47339a512.12675,512.12675,0,0,1-36.74219,45.03907Zm-107.46192,23.70507v56.4961H1234.575v-56.4961Zm218.084,56.4961v-56.4961h-99.55957v56.4961Zm-99.55957,82.57226h99.55957v-59.26269h-99.55957Z"/></g><g id="Body"><path class="cls-3" d="M1558.957,1197.81141c-10.19019-6.66349-49.72811-46.20141-55.43461-66.17418s-17.93473-12.22822-19.15755,0-7.74455,55.23911,18.74994,102.21172C1530.01689,1224.16413,1558.957,1197.81141,1558.957,1197.81141Z"/><path class="cls-4" d="M1490.85788,1206.30854a157.66976,157.66976,0,0,0,12.25692,27.54041c26.90209-9.68482,55.84222-36.03754,55.84222-36.03754-2.836-1.85451-22.85852,2.5424-28.87891-3.27432C1519.783,1196.55329,1507.65833,1204.977,1490.85788,1206.30854Z"/><path class="cls-3" d="M972.88582,1089.024c-12.65345,36.987-121.66784,236.52229-175.2017,252.09576-53.53385,15.57357-238.91394,18.84488-297.843,13.12325-61.645-5.98534-92.792-9.5543-75.27184-31.94116s225.49111-69.75621,238.1446-78.51638c12.65344-8.76008,59.8348-139.31179,76.083-158.16821Z"/><path class="cls-4" d="M424.56931,1322.30186c-17.52018,22.38686,13.62681,25.95582,75.27184,31.94116,58.929,5.72163,244.30912,2.45032,297.843-13.12325C851.218,1325.5463,960.23237,1126.011,972.88582,1089.024l-234.08893-3.40674c-12.51034,14.51857-43.35876,95.2533-62.6655,135.629,24.46419,41.69023,76.50017,79.19012,83.49838,82.85858s21.13042,20.62,9.75341,22.41841C684.29128,1339.97427,398.15085,1354.64814,424.56931,1322.30186Z"/><path class="cls-3" d="M615.69388,967.88255c0,253.39362,133.67244,430.74482,652.7887,430.74482,231.48465,0,327.78437-163.012,325.415-191.66745-2.12357-25.683-36.32105-29.98848-53.53387-18.73685-110.61028,72.30338-328.984,64.78293-328.984-232.66953,0-294.92293-220.94886-317.30982-291.02955-317.30982C709.13481,638.24372,615.69388,761.20939,615.69388,967.88255Z"/><path class="cls-4" d="M1593.89756,1206.95987a24.29811,24.29811,0,0,0-5.653-14.04693c2.15805,11.28275-1.45629,26.59012-27.73323,54.76091-56.04026,60.07921-206.587,134.10872-511.70518,70.47588,4.8055-4.30286,7.32419-9.87811,4.91338-16.12826-7.33694-19.02171-127.449-168.87258-127.449-168.87258-.8055,6.35532,42.40763,102.78723,68.53317,156.07119a9.78363,9.78363,0,0,1-11.19477,13.79083q-3.75516-.95664-7.53944-1.94049c-354.27964-92.11928-354.14221-403.73558-352.311-430.2843-5.41523,29.867-8.06473,62.295-8.06473,97.09646,0,253.39351,133.67246,430.74475,652.78866,430.74475C1499.96723,1398.62733,1596.267,1235.61539,1593.89756,1206.95987Z"/><path class="cls-4" d="M1160.35961,1129.74216c16.72908,4.96456,72.97891,145.649,80.58758,153.5294s145.308,36.08382,162.37808,44.85243-24.335,26.343-24.335,26.343l-242.11883-74.18456Z"/><path class="cls-3" d="M926.27062,1133.14887c3.35072,20.49917,121.66787,236.52234,175.20173,252.09583s238.91393,18.84487,297.843,13.12322c61.64505-5.98537,92.792-9.5543,75.27186-31.94119s-225.49113-69.75624-238.14459-78.51633-56.48537-141.31336-76.083-158.16824S922.91989,1112.64969,926.27062,1133.14887Z"/><path class="cls-4" d="M1474.58717,1366.42673c17.52017,22.38689-13.62681,25.95582-75.27186,31.94119-58.929,5.72165-244.30909,2.45027-297.843-13.12322-28.15484-8.1905-74.2286-71.825-112.0731-133.30113,35.78773,46.99821,82.00474,102.43283,115.4178,112.21541S1497.35822,1404.564,1474.58717,1366.42673Z"/><path class="cls-3" d="M1584.63629,1197.81141c29.2798,8.21418,96.535,6.71962,114.13009,1.89627,16.88519-4.62876,23.23362,8.55975,19.97276,14.67387s-58.28787,90.48885-192.39072,53.39657C1531.64732,1237.20756,1584.63629,1197.81141,1584.63629,1197.81141Z"/><path class="cls-4" d="M1715.69592,1202.41153c3.80181,3.509,4.77029,8.73176,3.04322,11.97-3.20852,6.016-56.53486,87.80062-185.99477,55.08949a6.48967,6.48967,0,0,1-4.48517-8.583c4.48315-12.02288,14.791-24.80791,25.38379-35.7018-12.28911,19.49846-14.6507,28.45824-12.15324,32.27016,1.93614,2.95515,33.28794,15.08147,77.30955,8.288s78.4984-24.898,97.55405-51.902C1719.26449,1209.717,1717.62,1206.33385,1715.69592,1202.41153Z"/></g><g id="Horn"><path class="cls-2" d="M932.90972,626.331c-5.87855,36.14739-54.13458,51.17578-63.51007,95.20788,21.37629,7.36551,51.54823,9.57955,74.62188.65C948.69673,706.14576,940.55818,634.53954,932.90972,626.331Z"/><path class="cls-2" d="M911.15723,438.67964"/><path class="cls-2" d="M921.42666,527.27051c-5.01485,37.17444-39.35351,60.88966-51.59192,86.88842s-5.689,94.32235-.43509,107.38c9.37549-44.0321,57.63152-59.06049,63.51007-95.20788S921.42666,527.27051,921.42666,527.27051Z"/><path class="cls-2" d="M911.15723,438.67964c-4.81789,38.12441-28.75666,37.88619-40.90949,73.55427s-5.00943,91.06994-.413,101.925c12.23841-25.99876,46.57707-49.714,51.59192-86.88842S911.15723,438.67964,911.15723,438.67964Z"/><path class="cls-2" d="M901.62663,356.46234c-5.45259,38.8876-23.36047,41.66167-31.011,64.98955s-10.93924,61.72446-.36784,90.782c12.15283-35.66808,36.0916-35.42986,40.90949-73.55427S908.95771,369.525,901.62663,356.46234Z"/><path class="cls-2" d="M892.34741,276.41359c-2.11176,28.24824-15.99314,39.92825-21.378,57.72648s-7.746,58.48477-.35378,87.31182c7.65058-23.32788,25.55846-26.10195,31.011-64.98955S892.34741,276.41359,892.34741,276.41359Z"/><path class="cls-2" d="M885.0021,213.04806c-2.57965,28.57011-8.50849,37.5327-13.75263,51.96265s-6.11455,51.64759-.28011,69.12936c5.38491-17.79823,19.26629-29.47824,21.378-57.72648S890.38194,226.53232,885.0021,213.04806Z"/><path class="cls-2" d="M877.88873,151.6834c-.11565,13.67811-1.35222,22.48333-6.35326,42.74325s-8.58017,49.158-.286,70.58406c5.24414-14.43,11.173-23.39254,13.75263-51.96265S881.677,158.63027,877.88873,151.6834Z"/><path class="cls-2" d="M871.91739,100.17064c1.14871,3.029,1.42752,21.97928-.12114,29.8971-1.4588,7.45839-5.77417,28.106-.26078,64.35891,5.001-20.25992,6.23761-29.06514,6.35326-42.74325S875.50139,110.72784,871.91739,100.17064Z"/><path class="cls-2" d="M871.91739,100.17064c-1.77033,9.44291-1.28112,25.41067-.12114,29.8971C873.34491,122.14992,873.0661,103.19968,871.91739,100.17064Z"/><path class="cls-3" d="M928.59526,726.41308a82.73788,82.73788,0,0,0,15.42629-4.2242c1.23148-4.22584,1.5739-12.30684,1.27039-22.06882C943.9895,706.24791,930.47337,725.33172,928.59526,726.41308Z"/><path class="cls-3" d="M911.15723,438.67964"/><path class="cls-3" d="M934.12381,609.76393a106.8283,106.8283,0,0,1-1.21409,16.56709c-5.87855,36.14739-54.13458,51.17578-63.51007,95.20788-1.1743-2.91853-2.41333-8.598-3.49282-15.94868C867.2574,687.65082,922.9334,648.75847,934.12381,609.76393Z"/><path class="cls-3" d="M866.24221,598.61157c1.12819,7.30648,2.44038,12.82639,3.59253,15.54736,12.23841-25.99876,46.57707-49.714,51.59192-86.88842a121.00468,121.00468,0,0,0,1.00446-15.03665C910.05618,561.39441,872.25824,577.64276,866.24221,598.61157Z"/><path class="cls-3" d="M865.90566,496.17471a103.42059,103.42059,0,0,0,4.34208,16.0592c12.15283-35.66808,36.0916-35.42986,40.90949-73.55427q.84189-6.66192,1.22014-13.01782C902.92305,456.23169,866.99955,484.14779,865.90566,496.17471Z"/><path class="cls-3" d="M902.77186,342.64666a127.17194,127.17194,0,0,1-1.14523,13.81568c-5.45259,38.8876-23.36047,41.66167-31.011,64.98955-1.03981-4.05489-1.88664-8.34444-2.55922-12.77194C870.31446,391.1164,887.84489,394.75406,902.77186,342.64666Z"/><path class="cls-3" d="M892.88262,265.01011q-.101,5.50549-.53521,11.40348c-2.11176,28.24824-15.99314,39.92825-21.378,57.72648a70.03144,70.03144,0,0,1-2.65734-12.10436C872.14869,297.57049,884.77832,299.19546,892.88262,265.01011Z"/><path class="cls-3" d="M885.61646,201.20553c-.05675,3.86375-.25172,7.82624-.61436,11.84253-2.57965,28.57011-8.50849,37.5327-13.75263,51.96265a67.16128,67.16128,0,0,1-3.19493-11.20494C868.80965,245.02309,879.31528,237.14316,885.61646,201.20553Z"/><path class="cls-3" d="M877.56466,140.32942c.23649,4.26515.35094,8.17651.32407,11.354-.11565,13.67811-1.35222,22.48333-6.35326,42.74325-.701-4.60929-1.24309-8.96633-1.65238-13.07606C872.60725,162.24481,873.1471,175.17337,877.56466,140.32942Z"/><path class="cls-3" d="M870.88412,121.72374"/><path class="cls-3" d="M870.88412,121.72374a48.556,48.556,0,0,0,.91213,8.344c1.54866-7.91782,1.26985-26.86806.12114-29.8971C872.08075,111.46372,870.77445,116.29088,870.88412,121.72374Z"/></g><g id="Hotdog"><path class="cls-3" d="M994.4706,254.08655c-14.91529-31.43145-41.61059-23.111-60.40721-7.39565-32.60272,27.25825-65.75137,29.60348-93.92535-25.43282-14.78356-28.87886-74.07693-14.00733-65.28815,32.15307,7.26763,38.17106,37.71384,88.3215,93.593,92.11794,4.57514-5.00881,30.30048-4.91577,34.32382-1.74875C974.25821,333.12627,1007.78044,282.13449,994.4706,254.08655Z"/><path class="cls-4" d="M994.4706,254.08655c2.62595,35.02994-42.44382,68.95882-91.63318,76.19985-6.2878.92561-11.36616-.17089-17.69757-.17089-4.6798,0-10.42811,1.35321-14.70024.91168-63.18569-6.5303-82.74683-58.7156-87.22456-78.54569-2.93326-12.9901-1.70735-22.87822,2.07008-35.21546-8.52179,7.80281-13.51428,19.97346-10.43524,36.14511,7.26763,38.17106,37.71384,88.3215,93.593,92.11794,4.57514-5.00881,30.30048-4.91577,34.32382-1.74875C974.25821,333.12627,1007.78044,282.13449,994.4706,254.08655Z"/></g><g id="Face"><path d="M738.03766,838.08828c-10.34321,10.34321-24.59881,46.73776-3.93581,55.59333s22.63092-.98395,35.4223-2.45988,25.0908,4.91976,36.89823,3.44383,26.56672-48.21368,11.31546-56.57728S757.71672,818.40923,738.03766,838.08828Z"/><path class="cls-2" d="M768.19487,830.59154c-12.86686,3.959-9.13112,19.7841,0,23.58874s12.17483,6.84834,18.26225-8.3702S778.08692,827.54784,768.19487,830.59154Z"/><path class="cls-2" d="M753.45292,843.40313c-1.97513.58119-3.44383,4.52468-1.47593,5.18065s6.23171,1.31193,5.57574-1.148S756.56877,842.48628,753.45292,843.40313Z"/><path class="cls-2" d="M758.53668,851.53564c-1.62361,1.124-.82,2.13189,0,3.11585s2.45988,1.31193,2.95186,0-.164-2.1319-.656-3.11585S760.66858,850.05971,758.53668,851.53564Z"/><path d="M956.54605,849.31874c-5.14719,9.3598,4.25989,45.3525,18.03914,45.3525,18.163,0,17.7983-7.05763,33.65466-7.05763,9.207,0,17.93795,9.27006,33.18349,5.37382,17.49595-4.47137,14.72608-39.54556-.43877-51.27035-11.34508-8.7715-25.30005-8.90557-41.8787-9.0684C978.61524,832.44742,961.46582,840.37249,956.54605,849.31874Z"/><path class="cls-2" d="M991.90579,836.6539c-9.98186,7.08343-8.08959,12.19319-3.30938,16.91461s12.58588,6.43057,15.81149,3.54806c2.94167-2.62879,7.72189-8.696,5.88334-15.68246S994.54275,834.78263,991.90579,836.6539Z"/><path class="cls-2" d="M1016.23919,844.81763c-2.90578.54484-4.2638,4.91977-2.1319,6.88767s6.39569,1.31194,6.55968-1.31193S1018.86306,844.32566,1016.23919,844.81763Z"/><path class="cls-2" d="M1010.70063,853.67321c-1.50764.83448-1.93074,3.59791,0,3.76686s3.40666.66093,3.40666-.815S1011.88574,853.01724,1010.70063,853.67321Z"/><path d="M813.82085,947.172c43.4102-16.84892,125.56418-13.83068,155.72341-6.66879a8.50516,8.50516,0,0,1,6.43159,9.53711c-9.82926,66.18593-111.91361,150.5577-166.93944,8.12155A8.49476,8.49476,0,0,1,813.82085,947.172Z"/><path class="cls-4" d="M951.97171,1001.14084c-29.12805,35.49536-78.48781,54.48949-117.79448,3.72421C847.01675,999.35548,921.14119,989.80683,951.97171,1001.14084Z"/><ellipse cx="747.79012" cy="959.40911" rx="19.6131" ry="10.10392"/><ellipse cx="1033.32232" cy="955.12923" rx="17.5846" ry="9.42457"/></g><g id="Heart_Small" data-name="Heart Small"><path class="cls-5" d="M1263.04424,892.48925c0-6.16483,9.91845-14.61767,17.52712-14.61767s17.52711,9.86749,17.52711,20.95256c0,16.36049-19.56515,32.30813-35.05423,38.55811-15.48908-6.25-35.05423-22.19762-35.05423-38.55811,0-11.08507,9.91844-20.95256,17.52711-20.95256S1263.04424,886.32442,1263.04424,892.48925Z"/></g><g id="Heart_Medium" data-name="Heart Medium"><path class="cls-4" d="M1316.64463,809.6138c0-7.41931,11.93673-17.59221,21.09368-17.59221S1358.832,803.897,1358.832,817.23777c0,19.68966-23.54644,38.88247-42.18737,46.40425-18.64094-7.52178-42.18738-26.71459-42.18738-46.40425,0-13.34076,11.93674-25.21618,21.09369-25.21618S1316.64463,802.19449,1316.64463,809.6138Z"/></g><g id="Heart_Large" data-name="Heart Large"><path class="cls-2" d="M1244.90571,714.07472c0-9.35477,15.05067-22.18147,26.59639-22.18147s26.59639,14.97335,26.59639,31.79431c0,24.8261-29.689,49.02572-53.19278,58.5097-23.50378-9.484-53.19277-33.6836-53.19277-58.5097,0-16.821,15.05067-31.79431,26.59639-31.79431S1244.90571,704.72,1244.90571,714.07472Z"/></g></svg>