<svg id="Layer_1" data-name="Layer 1" xmlns="http://www.w3.org/2000/svg" viewBox="0 0 2049 2049"><defs><style>.cls-1{fill:#19191a;}.cls-2{fill:#e53;}.cls-3{fill:#e82;}</style></defs><rect id="ludum_dare_background" class="cls-1" width="2049" height="2049"/><path id="ludum_dare_l" class="cls-2" d="M562.652,1174.291a95.468,95.468,0,0,1-95.468-95.468V407.5H0v671.323c0,310.74417,251.90785,562.652,562.652,562.652H906.94621V1174.291Z"/><path id="ludum_dare_d" class="cls-3" d="M1431.51252,407.5c-.1696,0-.33833.0031-.50781.00322v-.00285h-56.87457V407.5H906.94621V1641.475h190.42823v.00037h333.63027v-.00359c.16948.00012.33821.00322.50781.00322,340.75273,0,616.98748-276.23475,616.98748-616.98748C2048.5,683.73469,1772.26525,407.5,1431.51252,407.5Zm0,766.791c-.16985,0-.33821-.00595-.50781-.00645v.00682h-56.87457V874.68431h56.87457v.00607c.1696-.00055.338-.00644.50781-.00644a149.80355,149.80355,0,0,1,0,299.60709Z"/></svg>